%TF.GenerationSoftware,KiCad,Pcbnew,10.0.5*%
%TF.CreationDate,2026-08-07T22:02:48-05:00*%
%TF.ProjectId,capsule-board,63617073-756c-4652-9d62-6f6172642e6b,rev?*%
%TF.SameCoordinates,Original*%
%TF.FileFunction,AssemblyDrawing,Top*%
%FSLAX46Y46*%
G04 Gerber Fmt 4.6, Leading zero omitted, Abs format (unit mm)*
G04 Created by KiCad (PCBNEW 10.0.5) date 2026-08-07 22:02:48*
%MOMM*%
%LPD*%
G01*
G04 APERTURE LIST*
%ADD10C,0.080000*%
%ADD11C,0.060000*%
%ADD12C,0.110000*%
%ADD13C,0.100000*%
G04 APERTURE END LIST*
D10*
X102316666Y-126597149D02*
X102150000Y-126359054D01*
X102030952Y-126597149D02*
X102030952Y-126097149D01*
X102030952Y-126097149D02*
X102221428Y-126097149D01*
X102221428Y-126097149D02*
X102269047Y-126120959D01*
X102269047Y-126120959D02*
X102292857Y-126144768D01*
X102292857Y-126144768D02*
X102316666Y-126192387D01*
X102316666Y-126192387D02*
X102316666Y-126263816D01*
X102316666Y-126263816D02*
X102292857Y-126311435D01*
X102292857Y-126311435D02*
X102269047Y-126335244D01*
X102269047Y-126335244D02*
X102221428Y-126359054D01*
X102221428Y-126359054D02*
X102030952Y-126359054D01*
X102792857Y-126597149D02*
X102507143Y-126597149D01*
X102650000Y-126597149D02*
X102650000Y-126097149D01*
X102650000Y-126097149D02*
X102602381Y-126168578D01*
X102602381Y-126168578D02*
X102554762Y-126216197D01*
X102554762Y-126216197D02*
X102507143Y-126240006D01*
X102102381Y-129457149D02*
X101816667Y-129457149D01*
X101959524Y-129457149D02*
X101959524Y-128957149D01*
X101959524Y-128957149D02*
X101911905Y-129028578D01*
X101911905Y-129028578D02*
X101864286Y-129076197D01*
X101864286Y-129076197D02*
X101816667Y-129100006D01*
X102316666Y-129457149D02*
X102316666Y-128957149D01*
X102364285Y-129266673D02*
X102507142Y-129457149D01*
X102507142Y-129123816D02*
X102316666Y-129314292D01*
X102959523Y-128957149D02*
X102721428Y-128957149D01*
X102721428Y-128957149D02*
X102697619Y-129195244D01*
X102697619Y-129195244D02*
X102721428Y-129171435D01*
X102721428Y-129171435D02*
X102769047Y-129147625D01*
X102769047Y-129147625D02*
X102888095Y-129147625D01*
X102888095Y-129147625D02*
X102935714Y-129171435D01*
X102935714Y-129171435D02*
X102959523Y-129195244D01*
X102959523Y-129195244D02*
X102983333Y-129242863D01*
X102983333Y-129242863D02*
X102983333Y-129361911D01*
X102983333Y-129361911D02*
X102959523Y-129409530D01*
X102959523Y-129409530D02*
X102935714Y-129433340D01*
X102935714Y-129433340D02*
X102888095Y-129457149D01*
X102888095Y-129457149D02*
X102769047Y-129457149D01*
X102769047Y-129457149D02*
X102721428Y-129433340D01*
X102721428Y-129433340D02*
X102697619Y-129409530D01*
D11*
X102333333Y-127981927D02*
X102200000Y-127791451D01*
X102104762Y-127981927D02*
X102104762Y-127581927D01*
X102104762Y-127581927D02*
X102257143Y-127581927D01*
X102257143Y-127581927D02*
X102295238Y-127600975D01*
X102295238Y-127600975D02*
X102314285Y-127620022D01*
X102314285Y-127620022D02*
X102333333Y-127658118D01*
X102333333Y-127658118D02*
X102333333Y-127715260D01*
X102333333Y-127715260D02*
X102314285Y-127753356D01*
X102314285Y-127753356D02*
X102295238Y-127772403D01*
X102295238Y-127772403D02*
X102257143Y-127791451D01*
X102257143Y-127791451D02*
X102104762Y-127791451D01*
X102714285Y-127981927D02*
X102485714Y-127981927D01*
X102600000Y-127981927D02*
X102600000Y-127581927D01*
X102600000Y-127581927D02*
X102561904Y-127639070D01*
X102561904Y-127639070D02*
X102523809Y-127677165D01*
X102523809Y-127677165D02*
X102485714Y-127696213D01*
D10*
X102316666Y-123397149D02*
X102150000Y-123159054D01*
X102030952Y-123397149D02*
X102030952Y-122897149D01*
X102030952Y-122897149D02*
X102221428Y-122897149D01*
X102221428Y-122897149D02*
X102269047Y-122920959D01*
X102269047Y-122920959D02*
X102292857Y-122944768D01*
X102292857Y-122944768D02*
X102316666Y-122992387D01*
X102316666Y-122992387D02*
X102316666Y-123063816D01*
X102316666Y-123063816D02*
X102292857Y-123111435D01*
X102292857Y-123111435D02*
X102269047Y-123135244D01*
X102269047Y-123135244D02*
X102221428Y-123159054D01*
X102221428Y-123159054D02*
X102030952Y-123159054D01*
X102745238Y-122897149D02*
X102650000Y-122897149D01*
X102650000Y-122897149D02*
X102602381Y-122920959D01*
X102602381Y-122920959D02*
X102578571Y-122944768D01*
X102578571Y-122944768D02*
X102530952Y-123016197D01*
X102530952Y-123016197D02*
X102507143Y-123111435D01*
X102507143Y-123111435D02*
X102507143Y-123301911D01*
X102507143Y-123301911D02*
X102530952Y-123349530D01*
X102530952Y-123349530D02*
X102554762Y-123373340D01*
X102554762Y-123373340D02*
X102602381Y-123397149D01*
X102602381Y-123397149D02*
X102697619Y-123397149D01*
X102697619Y-123397149D02*
X102745238Y-123373340D01*
X102745238Y-123373340D02*
X102769047Y-123349530D01*
X102769047Y-123349530D02*
X102792857Y-123301911D01*
X102792857Y-123301911D02*
X102792857Y-123182863D01*
X102792857Y-123182863D02*
X102769047Y-123135244D01*
X102769047Y-123135244D02*
X102745238Y-123111435D01*
X102745238Y-123111435D02*
X102697619Y-123087625D01*
X102697619Y-123087625D02*
X102602381Y-123087625D01*
X102602381Y-123087625D02*
X102554762Y-123111435D01*
X102554762Y-123111435D02*
X102530952Y-123135244D01*
X102530952Y-123135244D02*
X102507143Y-123182863D01*
X101816667Y-126257149D02*
X101530953Y-126257149D01*
X101673810Y-126257149D02*
X101673810Y-125757149D01*
X101673810Y-125757149D02*
X101626191Y-125828578D01*
X101626191Y-125828578D02*
X101578572Y-125876197D01*
X101578572Y-125876197D02*
X101530953Y-125900006D01*
X102126190Y-125757149D02*
X102173809Y-125757149D01*
X102173809Y-125757149D02*
X102221428Y-125780959D01*
X102221428Y-125780959D02*
X102245238Y-125804768D01*
X102245238Y-125804768D02*
X102269047Y-125852387D01*
X102269047Y-125852387D02*
X102292857Y-125947625D01*
X102292857Y-125947625D02*
X102292857Y-126066673D01*
X102292857Y-126066673D02*
X102269047Y-126161911D01*
X102269047Y-126161911D02*
X102245238Y-126209530D01*
X102245238Y-126209530D02*
X102221428Y-126233340D01*
X102221428Y-126233340D02*
X102173809Y-126257149D01*
X102173809Y-126257149D02*
X102126190Y-126257149D01*
X102126190Y-126257149D02*
X102078571Y-126233340D01*
X102078571Y-126233340D02*
X102054762Y-126209530D01*
X102054762Y-126209530D02*
X102030952Y-126161911D01*
X102030952Y-126161911D02*
X102007143Y-126066673D01*
X102007143Y-126066673D02*
X102007143Y-125947625D01*
X102007143Y-125947625D02*
X102030952Y-125852387D01*
X102030952Y-125852387D02*
X102054762Y-125804768D01*
X102054762Y-125804768D02*
X102078571Y-125780959D01*
X102078571Y-125780959D02*
X102126190Y-125757149D01*
X102602380Y-125757149D02*
X102649999Y-125757149D01*
X102649999Y-125757149D02*
X102697618Y-125780959D01*
X102697618Y-125780959D02*
X102721428Y-125804768D01*
X102721428Y-125804768D02*
X102745237Y-125852387D01*
X102745237Y-125852387D02*
X102769047Y-125947625D01*
X102769047Y-125947625D02*
X102769047Y-126066673D01*
X102769047Y-126066673D02*
X102745237Y-126161911D01*
X102745237Y-126161911D02*
X102721428Y-126209530D01*
X102721428Y-126209530D02*
X102697618Y-126233340D01*
X102697618Y-126233340D02*
X102649999Y-126257149D01*
X102649999Y-126257149D02*
X102602380Y-126257149D01*
X102602380Y-126257149D02*
X102554761Y-126233340D01*
X102554761Y-126233340D02*
X102530952Y-126209530D01*
X102530952Y-126209530D02*
X102507142Y-126161911D01*
X102507142Y-126161911D02*
X102483333Y-126066673D01*
X102483333Y-126066673D02*
X102483333Y-125947625D01*
X102483333Y-125947625D02*
X102507142Y-125852387D01*
X102507142Y-125852387D02*
X102530952Y-125804768D01*
X102530952Y-125804768D02*
X102554761Y-125780959D01*
X102554761Y-125780959D02*
X102602380Y-125757149D01*
X103269046Y-126257149D02*
X103102380Y-126019054D01*
X102983332Y-126257149D02*
X102983332Y-125757149D01*
X102983332Y-125757149D02*
X103173808Y-125757149D01*
X103173808Y-125757149D02*
X103221427Y-125780959D01*
X103221427Y-125780959D02*
X103245237Y-125804768D01*
X103245237Y-125804768D02*
X103269046Y-125852387D01*
X103269046Y-125852387D02*
X103269046Y-125923816D01*
X103269046Y-125923816D02*
X103245237Y-125971435D01*
X103245237Y-125971435D02*
X103221427Y-125995244D01*
X103221427Y-125995244D02*
X103173808Y-126019054D01*
X103173808Y-126019054D02*
X102983332Y-126019054D01*
D11*
X102333333Y-124781927D02*
X102200000Y-124591451D01*
X102104762Y-124781927D02*
X102104762Y-124381927D01*
X102104762Y-124381927D02*
X102257143Y-124381927D01*
X102257143Y-124381927D02*
X102295238Y-124400975D01*
X102295238Y-124400975D02*
X102314285Y-124420022D01*
X102314285Y-124420022D02*
X102333333Y-124458118D01*
X102333333Y-124458118D02*
X102333333Y-124515260D01*
X102333333Y-124515260D02*
X102314285Y-124553356D01*
X102314285Y-124553356D02*
X102295238Y-124572403D01*
X102295238Y-124572403D02*
X102257143Y-124591451D01*
X102257143Y-124591451D02*
X102104762Y-124591451D01*
X102676190Y-124381927D02*
X102600000Y-124381927D01*
X102600000Y-124381927D02*
X102561904Y-124400975D01*
X102561904Y-124400975D02*
X102542857Y-124420022D01*
X102542857Y-124420022D02*
X102504762Y-124477165D01*
X102504762Y-124477165D02*
X102485714Y-124553356D01*
X102485714Y-124553356D02*
X102485714Y-124705737D01*
X102485714Y-124705737D02*
X102504762Y-124743832D01*
X102504762Y-124743832D02*
X102523809Y-124762880D01*
X102523809Y-124762880D02*
X102561904Y-124781927D01*
X102561904Y-124781927D02*
X102638095Y-124781927D01*
X102638095Y-124781927D02*
X102676190Y-124762880D01*
X102676190Y-124762880D02*
X102695238Y-124743832D01*
X102695238Y-124743832D02*
X102714285Y-124705737D01*
X102714285Y-124705737D02*
X102714285Y-124610499D01*
X102714285Y-124610499D02*
X102695238Y-124572403D01*
X102695238Y-124572403D02*
X102676190Y-124553356D01*
X102676190Y-124553356D02*
X102638095Y-124534308D01*
X102638095Y-124534308D02*
X102561904Y-124534308D01*
X102561904Y-124534308D02*
X102523809Y-124553356D01*
X102523809Y-124553356D02*
X102504762Y-124572403D01*
X102504762Y-124572403D02*
X102485714Y-124610499D01*
D10*
X103833333Y-143227149D02*
X103833333Y-143584292D01*
X103833333Y-143584292D02*
X103809524Y-143655720D01*
X103809524Y-143655720D02*
X103761905Y-143703340D01*
X103761905Y-143703340D02*
X103690476Y-143727149D01*
X103690476Y-143727149D02*
X103642857Y-143727149D01*
X104333333Y-143727149D02*
X104047619Y-143727149D01*
X104190476Y-143727149D02*
X104190476Y-143227149D01*
X104190476Y-143227149D02*
X104142857Y-143298578D01*
X104142857Y-143298578D02*
X104095238Y-143346197D01*
X104095238Y-143346197D02*
X104047619Y-143370006D01*
X100380952Y-148279530D02*
X100357143Y-148303340D01*
X100357143Y-148303340D02*
X100285714Y-148327149D01*
X100285714Y-148327149D02*
X100238095Y-148327149D01*
X100238095Y-148327149D02*
X100166667Y-148303340D01*
X100166667Y-148303340D02*
X100119048Y-148255720D01*
X100119048Y-148255720D02*
X100095238Y-148208101D01*
X100095238Y-148208101D02*
X100071429Y-148112863D01*
X100071429Y-148112863D02*
X100071429Y-148041435D01*
X100071429Y-148041435D02*
X100095238Y-147946197D01*
X100095238Y-147946197D02*
X100119048Y-147898578D01*
X100119048Y-147898578D02*
X100166667Y-147850959D01*
X100166667Y-147850959D02*
X100238095Y-147827149D01*
X100238095Y-147827149D02*
X100285714Y-147827149D01*
X100285714Y-147827149D02*
X100357143Y-147850959D01*
X100357143Y-147850959D02*
X100380952Y-147874768D01*
X100809524Y-148327149D02*
X100809524Y-148065244D01*
X100809524Y-148065244D02*
X100785714Y-148017625D01*
X100785714Y-148017625D02*
X100738095Y-147993816D01*
X100738095Y-147993816D02*
X100642857Y-147993816D01*
X100642857Y-147993816D02*
X100595238Y-148017625D01*
X100809524Y-148303340D02*
X100761905Y-148327149D01*
X100761905Y-148327149D02*
X100642857Y-148327149D01*
X100642857Y-148327149D02*
X100595238Y-148303340D01*
X100595238Y-148303340D02*
X100571429Y-148255720D01*
X100571429Y-148255720D02*
X100571429Y-148208101D01*
X100571429Y-148208101D02*
X100595238Y-148160482D01*
X100595238Y-148160482D02*
X100642857Y-148136673D01*
X100642857Y-148136673D02*
X100761905Y-148136673D01*
X100761905Y-148136673D02*
X100809524Y-148112863D01*
X101047619Y-148327149D02*
X101047619Y-147827149D01*
X101047619Y-148017625D02*
X101095238Y-147993816D01*
X101095238Y-147993816D02*
X101190476Y-147993816D01*
X101190476Y-147993816D02*
X101238095Y-148017625D01*
X101238095Y-148017625D02*
X101261905Y-148041435D01*
X101261905Y-148041435D02*
X101285714Y-148089054D01*
X101285714Y-148089054D02*
X101285714Y-148231911D01*
X101285714Y-148231911D02*
X101261905Y-148279530D01*
X101261905Y-148279530D02*
X101238095Y-148303340D01*
X101238095Y-148303340D02*
X101190476Y-148327149D01*
X101190476Y-148327149D02*
X101095238Y-148327149D01*
X101095238Y-148327149D02*
X101047619Y-148303340D01*
X101571429Y-148327149D02*
X101523810Y-148303340D01*
X101523810Y-148303340D02*
X101500000Y-148255720D01*
X101500000Y-148255720D02*
X101500000Y-147827149D01*
X101952381Y-148303340D02*
X101904762Y-148327149D01*
X101904762Y-148327149D02*
X101809524Y-148327149D01*
X101809524Y-148327149D02*
X101761905Y-148303340D01*
X101761905Y-148303340D02*
X101738096Y-148255720D01*
X101738096Y-148255720D02*
X101738096Y-148065244D01*
X101738096Y-148065244D02*
X101761905Y-148017625D01*
X101761905Y-148017625D02*
X101809524Y-147993816D01*
X101809524Y-147993816D02*
X101904762Y-147993816D01*
X101904762Y-147993816D02*
X101952381Y-148017625D01*
X101952381Y-148017625D02*
X101976191Y-148065244D01*
X101976191Y-148065244D02*
X101976191Y-148112863D01*
X101976191Y-148112863D02*
X101738096Y-148160482D01*
X102785714Y-147993816D02*
X102785714Y-148327149D01*
X102666666Y-147803340D02*
X102547619Y-148160482D01*
X102547619Y-148160482D02*
X102857142Y-148160482D01*
X103047618Y-148136673D02*
X103428571Y-148136673D01*
X103880952Y-148303340D02*
X103833333Y-148327149D01*
X103833333Y-148327149D02*
X103738095Y-148327149D01*
X103738095Y-148327149D02*
X103690476Y-148303340D01*
X103690476Y-148303340D02*
X103666666Y-148279530D01*
X103666666Y-148279530D02*
X103642857Y-148231911D01*
X103642857Y-148231911D02*
X103642857Y-148089054D01*
X103642857Y-148089054D02*
X103666666Y-148041435D01*
X103666666Y-148041435D02*
X103690476Y-148017625D01*
X103690476Y-148017625D02*
X103738095Y-147993816D01*
X103738095Y-147993816D02*
X103833333Y-147993816D01*
X103833333Y-147993816D02*
X103880952Y-148017625D01*
X104166666Y-148327149D02*
X104119047Y-148303340D01*
X104119047Y-148303340D02*
X104095237Y-148279530D01*
X104095237Y-148279530D02*
X104071428Y-148231911D01*
X104071428Y-148231911D02*
X104071428Y-148089054D01*
X104071428Y-148089054D02*
X104095237Y-148041435D01*
X104095237Y-148041435D02*
X104119047Y-148017625D01*
X104119047Y-148017625D02*
X104166666Y-147993816D01*
X104166666Y-147993816D02*
X104238094Y-147993816D01*
X104238094Y-147993816D02*
X104285713Y-148017625D01*
X104285713Y-148017625D02*
X104309523Y-148041435D01*
X104309523Y-148041435D02*
X104333332Y-148089054D01*
X104333332Y-148089054D02*
X104333332Y-148231911D01*
X104333332Y-148231911D02*
X104309523Y-148279530D01*
X104309523Y-148279530D02*
X104285713Y-148303340D01*
X104285713Y-148303340D02*
X104238094Y-148327149D01*
X104238094Y-148327149D02*
X104166666Y-148327149D01*
X104547618Y-148327149D02*
X104547618Y-147993816D01*
X104547618Y-148089054D02*
X104571428Y-148041435D01*
X104571428Y-148041435D02*
X104595237Y-148017625D01*
X104595237Y-148017625D02*
X104642856Y-147993816D01*
X104642856Y-147993816D02*
X104690475Y-147993816D01*
X105047618Y-148303340D02*
X104999999Y-148327149D01*
X104999999Y-148327149D02*
X104904761Y-148327149D01*
X104904761Y-148327149D02*
X104857142Y-148303340D01*
X104857142Y-148303340D02*
X104833333Y-148255720D01*
X104833333Y-148255720D02*
X104833333Y-148065244D01*
X104833333Y-148065244D02*
X104857142Y-148017625D01*
X104857142Y-148017625D02*
X104904761Y-147993816D01*
X104904761Y-147993816D02*
X104999999Y-147993816D01*
X104999999Y-147993816D02*
X105047618Y-148017625D01*
X105047618Y-148017625D02*
X105071428Y-148065244D01*
X105071428Y-148065244D02*
X105071428Y-148112863D01*
X105071428Y-148112863D02*
X104833333Y-148160482D01*
X105285713Y-148136673D02*
X105666666Y-148136673D01*
X105476189Y-148327149D02*
X105476189Y-147946197D01*
X105880952Y-148303340D02*
X105928571Y-148327149D01*
X105928571Y-148327149D02*
X106023809Y-148327149D01*
X106023809Y-148327149D02*
X106071428Y-148303340D01*
X106071428Y-148303340D02*
X106095237Y-148255720D01*
X106095237Y-148255720D02*
X106095237Y-148231911D01*
X106095237Y-148231911D02*
X106071428Y-148184292D01*
X106071428Y-148184292D02*
X106023809Y-148160482D01*
X106023809Y-148160482D02*
X105952380Y-148160482D01*
X105952380Y-148160482D02*
X105904761Y-148136673D01*
X105904761Y-148136673D02*
X105880952Y-148089054D01*
X105880952Y-148089054D02*
X105880952Y-148065244D01*
X105880952Y-148065244D02*
X105904761Y-148017625D01*
X105904761Y-148017625D02*
X105952380Y-147993816D01*
X105952380Y-147993816D02*
X106023809Y-147993816D01*
X106023809Y-147993816D02*
X106071428Y-148017625D01*
X106309523Y-148327149D02*
X106309523Y-147827149D01*
X106523809Y-148327149D02*
X106523809Y-148065244D01*
X106523809Y-148065244D02*
X106499999Y-148017625D01*
X106499999Y-148017625D02*
X106452380Y-147993816D01*
X106452380Y-147993816D02*
X106380952Y-147993816D01*
X106380952Y-147993816D02*
X106333333Y-148017625D01*
X106333333Y-148017625D02*
X106309523Y-148041435D01*
X106761904Y-148327149D02*
X106761904Y-147993816D01*
X106761904Y-147827149D02*
X106738095Y-147850959D01*
X106738095Y-147850959D02*
X106761904Y-147874768D01*
X106761904Y-147874768D02*
X106785714Y-147850959D01*
X106785714Y-147850959D02*
X106761904Y-147827149D01*
X106761904Y-147827149D02*
X106761904Y-147874768D01*
X107190475Y-148303340D02*
X107142856Y-148327149D01*
X107142856Y-148327149D02*
X107047618Y-148327149D01*
X107047618Y-148327149D02*
X106999999Y-148303340D01*
X106999999Y-148303340D02*
X106976190Y-148255720D01*
X106976190Y-148255720D02*
X106976190Y-148065244D01*
X106976190Y-148065244D02*
X106999999Y-148017625D01*
X106999999Y-148017625D02*
X107047618Y-147993816D01*
X107047618Y-147993816D02*
X107142856Y-147993816D01*
X107142856Y-147993816D02*
X107190475Y-148017625D01*
X107190475Y-148017625D02*
X107214285Y-148065244D01*
X107214285Y-148065244D02*
X107214285Y-148112863D01*
X107214285Y-148112863D02*
X106976190Y-148160482D01*
X107499999Y-148327149D02*
X107452380Y-148303340D01*
X107452380Y-148303340D02*
X107428570Y-148255720D01*
X107428570Y-148255720D02*
X107428570Y-147827149D01*
X107904761Y-148327149D02*
X107904761Y-147827149D01*
X107904761Y-148303340D02*
X107857142Y-148327149D01*
X107857142Y-148327149D02*
X107761904Y-148327149D01*
X107761904Y-148327149D02*
X107714285Y-148303340D01*
X107714285Y-148303340D02*
X107690475Y-148279530D01*
X107690475Y-148279530D02*
X107666666Y-148231911D01*
X107666666Y-148231911D02*
X107666666Y-148089054D01*
X107666666Y-148089054D02*
X107690475Y-148041435D01*
X107690475Y-148041435D02*
X107714285Y-148017625D01*
X107714285Y-148017625D02*
X107761904Y-147993816D01*
X107761904Y-147993816D02*
X107857142Y-147993816D01*
X107857142Y-147993816D02*
X107904761Y-148017625D01*
X105278571Y-141797149D02*
X105111905Y-141559054D01*
X104992857Y-141797149D02*
X104992857Y-141297149D01*
X104992857Y-141297149D02*
X105183333Y-141297149D01*
X105183333Y-141297149D02*
X105230952Y-141320959D01*
X105230952Y-141320959D02*
X105254762Y-141344768D01*
X105254762Y-141344768D02*
X105278571Y-141392387D01*
X105278571Y-141392387D02*
X105278571Y-141463816D01*
X105278571Y-141463816D02*
X105254762Y-141511435D01*
X105254762Y-141511435D02*
X105230952Y-141535244D01*
X105230952Y-141535244D02*
X105183333Y-141559054D01*
X105183333Y-141559054D02*
X104992857Y-141559054D01*
X105754762Y-141797149D02*
X105469048Y-141797149D01*
X105611905Y-141797149D02*
X105611905Y-141297149D01*
X105611905Y-141297149D02*
X105564286Y-141368578D01*
X105564286Y-141368578D02*
X105516667Y-141416197D01*
X105516667Y-141416197D02*
X105469048Y-141440006D01*
X106064285Y-141297149D02*
X106111904Y-141297149D01*
X106111904Y-141297149D02*
X106159523Y-141320959D01*
X106159523Y-141320959D02*
X106183333Y-141344768D01*
X106183333Y-141344768D02*
X106207142Y-141392387D01*
X106207142Y-141392387D02*
X106230952Y-141487625D01*
X106230952Y-141487625D02*
X106230952Y-141606673D01*
X106230952Y-141606673D02*
X106207142Y-141701911D01*
X106207142Y-141701911D02*
X106183333Y-141749530D01*
X106183333Y-141749530D02*
X106159523Y-141773340D01*
X106159523Y-141773340D02*
X106111904Y-141797149D01*
X106111904Y-141797149D02*
X106064285Y-141797149D01*
X106064285Y-141797149D02*
X106016666Y-141773340D01*
X106016666Y-141773340D02*
X105992857Y-141749530D01*
X105992857Y-141749530D02*
X105969047Y-141701911D01*
X105969047Y-141701911D02*
X105945238Y-141606673D01*
X105945238Y-141606673D02*
X105945238Y-141487625D01*
X105945238Y-141487625D02*
X105969047Y-141392387D01*
X105969047Y-141392387D02*
X105992857Y-141344768D01*
X105992857Y-141344768D02*
X106016666Y-141320959D01*
X106016666Y-141320959D02*
X106064285Y-141297149D01*
X104373809Y-144157149D02*
X104421428Y-144157149D01*
X104421428Y-144157149D02*
X104469047Y-144180959D01*
X104469047Y-144180959D02*
X104492857Y-144204768D01*
X104492857Y-144204768D02*
X104516666Y-144252387D01*
X104516666Y-144252387D02*
X104540476Y-144347625D01*
X104540476Y-144347625D02*
X104540476Y-144466673D01*
X104540476Y-144466673D02*
X104516666Y-144561911D01*
X104516666Y-144561911D02*
X104492857Y-144609530D01*
X104492857Y-144609530D02*
X104469047Y-144633340D01*
X104469047Y-144633340D02*
X104421428Y-144657149D01*
X104421428Y-144657149D02*
X104373809Y-144657149D01*
X104373809Y-144657149D02*
X104326190Y-144633340D01*
X104326190Y-144633340D02*
X104302381Y-144609530D01*
X104302381Y-144609530D02*
X104278571Y-144561911D01*
X104278571Y-144561911D02*
X104254762Y-144466673D01*
X104254762Y-144466673D02*
X104254762Y-144347625D01*
X104254762Y-144347625D02*
X104278571Y-144252387D01*
X104278571Y-144252387D02*
X104302381Y-144204768D01*
X104302381Y-144204768D02*
X104326190Y-144180959D01*
X104326190Y-144180959D02*
X104373809Y-144157149D01*
X105040475Y-144657149D02*
X104873809Y-144419054D01*
X104754761Y-144657149D02*
X104754761Y-144157149D01*
X104754761Y-144157149D02*
X104945237Y-144157149D01*
X104945237Y-144157149D02*
X104992856Y-144180959D01*
X104992856Y-144180959D02*
X105016666Y-144204768D01*
X105016666Y-144204768D02*
X105040475Y-144252387D01*
X105040475Y-144252387D02*
X105040475Y-144323816D01*
X105040475Y-144323816D02*
X105016666Y-144371435D01*
X105016666Y-144371435D02*
X104992856Y-144395244D01*
X104992856Y-144395244D02*
X104945237Y-144419054D01*
X104945237Y-144419054D02*
X104754761Y-144419054D01*
X105635713Y-144657149D02*
X105635713Y-144157149D01*
X105635713Y-144157149D02*
X105754761Y-144157149D01*
X105754761Y-144157149D02*
X105826189Y-144180959D01*
X105826189Y-144180959D02*
X105873808Y-144228578D01*
X105873808Y-144228578D02*
X105897618Y-144276197D01*
X105897618Y-144276197D02*
X105921427Y-144371435D01*
X105921427Y-144371435D02*
X105921427Y-144442863D01*
X105921427Y-144442863D02*
X105897618Y-144538101D01*
X105897618Y-144538101D02*
X105873808Y-144585720D01*
X105873808Y-144585720D02*
X105826189Y-144633340D01*
X105826189Y-144633340D02*
X105754761Y-144657149D01*
X105754761Y-144657149D02*
X105635713Y-144657149D01*
X106135713Y-144657149D02*
X106135713Y-144157149D01*
X106135713Y-144157149D02*
X106421427Y-144657149D01*
X106421427Y-144657149D02*
X106421427Y-144157149D01*
X106659523Y-144657149D02*
X106659523Y-144157149D01*
X106659523Y-144157149D02*
X106849999Y-144157149D01*
X106849999Y-144157149D02*
X106897618Y-144180959D01*
X106897618Y-144180959D02*
X106921428Y-144204768D01*
X106921428Y-144204768D02*
X106945237Y-144252387D01*
X106945237Y-144252387D02*
X106945237Y-144323816D01*
X106945237Y-144323816D02*
X106921428Y-144371435D01*
X106921428Y-144371435D02*
X106897618Y-144395244D01*
X106897618Y-144395244D02*
X106849999Y-144419054D01*
X106849999Y-144419054D02*
X106659523Y-144419054D01*
D11*
X105342857Y-143181927D02*
X105209524Y-142991451D01*
X105114286Y-143181927D02*
X105114286Y-142781927D01*
X105114286Y-142781927D02*
X105266667Y-142781927D01*
X105266667Y-142781927D02*
X105304762Y-142800975D01*
X105304762Y-142800975D02*
X105323809Y-142820022D01*
X105323809Y-142820022D02*
X105342857Y-142858118D01*
X105342857Y-142858118D02*
X105342857Y-142915260D01*
X105342857Y-142915260D02*
X105323809Y-142953356D01*
X105323809Y-142953356D02*
X105304762Y-142972403D01*
X105304762Y-142972403D02*
X105266667Y-142991451D01*
X105266667Y-142991451D02*
X105114286Y-142991451D01*
X105723809Y-143181927D02*
X105495238Y-143181927D01*
X105609524Y-143181927D02*
X105609524Y-142781927D01*
X105609524Y-142781927D02*
X105571428Y-142839070D01*
X105571428Y-142839070D02*
X105533333Y-142877165D01*
X105533333Y-142877165D02*
X105495238Y-142896213D01*
X105971428Y-142781927D02*
X106009523Y-142781927D01*
X106009523Y-142781927D02*
X106047619Y-142800975D01*
X106047619Y-142800975D02*
X106066666Y-142820022D01*
X106066666Y-142820022D02*
X106085714Y-142858118D01*
X106085714Y-142858118D02*
X106104761Y-142934308D01*
X106104761Y-142934308D02*
X106104761Y-143029546D01*
X106104761Y-143029546D02*
X106085714Y-143105737D01*
X106085714Y-143105737D02*
X106066666Y-143143832D01*
X106066666Y-143143832D02*
X106047619Y-143162880D01*
X106047619Y-143162880D02*
X106009523Y-143181927D01*
X106009523Y-143181927D02*
X105971428Y-143181927D01*
X105971428Y-143181927D02*
X105933333Y-143162880D01*
X105933333Y-143162880D02*
X105914285Y-143143832D01*
X105914285Y-143143832D02*
X105895238Y-143105737D01*
X105895238Y-143105737D02*
X105876190Y-143029546D01*
X105876190Y-143029546D02*
X105876190Y-142934308D01*
X105876190Y-142934308D02*
X105895238Y-142858118D01*
X105895238Y-142858118D02*
X105914285Y-142820022D01*
X105914285Y-142820022D02*
X105933333Y-142800975D01*
X105933333Y-142800975D02*
X105971428Y-142781927D01*
D10*
X102266666Y-129499530D02*
X102242857Y-129523340D01*
X102242857Y-129523340D02*
X102171428Y-129547149D01*
X102171428Y-129547149D02*
X102123809Y-129547149D01*
X102123809Y-129547149D02*
X102052381Y-129523340D01*
X102052381Y-129523340D02*
X102004762Y-129475720D01*
X102004762Y-129475720D02*
X101980952Y-129428101D01*
X101980952Y-129428101D02*
X101957143Y-129332863D01*
X101957143Y-129332863D02*
X101957143Y-129261435D01*
X101957143Y-129261435D02*
X101980952Y-129166197D01*
X101980952Y-129166197D02*
X102004762Y-129118578D01*
X102004762Y-129118578D02*
X102052381Y-129070959D01*
X102052381Y-129070959D02*
X102123809Y-129047149D01*
X102123809Y-129047149D02*
X102171428Y-129047149D01*
X102171428Y-129047149D02*
X102242857Y-129070959D01*
X102242857Y-129070959D02*
X102266666Y-129094768D01*
X102433333Y-129047149D02*
X102742857Y-129047149D01*
X102742857Y-129047149D02*
X102576190Y-129237625D01*
X102576190Y-129237625D02*
X102647619Y-129237625D01*
X102647619Y-129237625D02*
X102695238Y-129261435D01*
X102695238Y-129261435D02*
X102719047Y-129285244D01*
X102719047Y-129285244D02*
X102742857Y-129332863D01*
X102742857Y-129332863D02*
X102742857Y-129451911D01*
X102742857Y-129451911D02*
X102719047Y-129499530D01*
X102719047Y-129499530D02*
X102695238Y-129523340D01*
X102695238Y-129523340D02*
X102647619Y-129547149D01*
X102647619Y-129547149D02*
X102504762Y-129547149D01*
X102504762Y-129547149D02*
X102457143Y-129523340D01*
X102457143Y-129523340D02*
X102433333Y-129499530D01*
X102028572Y-132907149D02*
X101742858Y-132907149D01*
X101885715Y-132907149D02*
X101885715Y-132407149D01*
X101885715Y-132407149D02*
X101838096Y-132478578D01*
X101838096Y-132478578D02*
X101790477Y-132526197D01*
X101790477Y-132526197D02*
X101742858Y-132550006D01*
X102338095Y-132407149D02*
X102385714Y-132407149D01*
X102385714Y-132407149D02*
X102433333Y-132430959D01*
X102433333Y-132430959D02*
X102457143Y-132454768D01*
X102457143Y-132454768D02*
X102480952Y-132502387D01*
X102480952Y-132502387D02*
X102504762Y-132597625D01*
X102504762Y-132597625D02*
X102504762Y-132716673D01*
X102504762Y-132716673D02*
X102480952Y-132811911D01*
X102480952Y-132811911D02*
X102457143Y-132859530D01*
X102457143Y-132859530D02*
X102433333Y-132883340D01*
X102433333Y-132883340D02*
X102385714Y-132907149D01*
X102385714Y-132907149D02*
X102338095Y-132907149D01*
X102338095Y-132907149D02*
X102290476Y-132883340D01*
X102290476Y-132883340D02*
X102266667Y-132859530D01*
X102266667Y-132859530D02*
X102242857Y-132811911D01*
X102242857Y-132811911D02*
X102219048Y-132716673D01*
X102219048Y-132716673D02*
X102219048Y-132597625D01*
X102219048Y-132597625D02*
X102242857Y-132502387D01*
X102242857Y-132502387D02*
X102266667Y-132454768D01*
X102266667Y-132454768D02*
X102290476Y-132430959D01*
X102290476Y-132430959D02*
X102338095Y-132407149D01*
X102933333Y-132573816D02*
X102933333Y-132907149D01*
X102719047Y-132573816D02*
X102719047Y-132835720D01*
X102719047Y-132835720D02*
X102742857Y-132883340D01*
X102742857Y-132883340D02*
X102790476Y-132907149D01*
X102790476Y-132907149D02*
X102861904Y-132907149D01*
X102861904Y-132907149D02*
X102909523Y-132883340D01*
X102909523Y-132883340D02*
X102933333Y-132859530D01*
X102266666Y-131179530D02*
X102242857Y-131203340D01*
X102242857Y-131203340D02*
X102171428Y-131227149D01*
X102171428Y-131227149D02*
X102123809Y-131227149D01*
X102123809Y-131227149D02*
X102052381Y-131203340D01*
X102052381Y-131203340D02*
X102004762Y-131155720D01*
X102004762Y-131155720D02*
X101980952Y-131108101D01*
X101980952Y-131108101D02*
X101957143Y-131012863D01*
X101957143Y-131012863D02*
X101957143Y-130941435D01*
X101957143Y-130941435D02*
X101980952Y-130846197D01*
X101980952Y-130846197D02*
X102004762Y-130798578D01*
X102004762Y-130798578D02*
X102052381Y-130750959D01*
X102052381Y-130750959D02*
X102123809Y-130727149D01*
X102123809Y-130727149D02*
X102171428Y-130727149D01*
X102171428Y-130727149D02*
X102242857Y-130750959D01*
X102242857Y-130750959D02*
X102266666Y-130774768D01*
X102433333Y-130727149D02*
X102742857Y-130727149D01*
X102742857Y-130727149D02*
X102576190Y-130917625D01*
X102576190Y-130917625D02*
X102647619Y-130917625D01*
X102647619Y-130917625D02*
X102695238Y-130941435D01*
X102695238Y-130941435D02*
X102719047Y-130965244D01*
X102719047Y-130965244D02*
X102742857Y-131012863D01*
X102742857Y-131012863D02*
X102742857Y-131131911D01*
X102742857Y-131131911D02*
X102719047Y-131179530D01*
X102719047Y-131179530D02*
X102695238Y-131203340D01*
X102695238Y-131203340D02*
X102647619Y-131227149D01*
X102647619Y-131227149D02*
X102504762Y-131227149D01*
X102504762Y-131227149D02*
X102457143Y-131203340D01*
X102457143Y-131203340D02*
X102433333Y-131179530D01*
X105516666Y-132997149D02*
X105350000Y-132759054D01*
X105230952Y-132997149D02*
X105230952Y-132497149D01*
X105230952Y-132497149D02*
X105421428Y-132497149D01*
X105421428Y-132497149D02*
X105469047Y-132520959D01*
X105469047Y-132520959D02*
X105492857Y-132544768D01*
X105492857Y-132544768D02*
X105516666Y-132592387D01*
X105516666Y-132592387D02*
X105516666Y-132663816D01*
X105516666Y-132663816D02*
X105492857Y-132711435D01*
X105492857Y-132711435D02*
X105469047Y-132735244D01*
X105469047Y-132735244D02*
X105421428Y-132759054D01*
X105421428Y-132759054D02*
X105230952Y-132759054D01*
X105945238Y-132663816D02*
X105945238Y-132997149D01*
X105826190Y-132473340D02*
X105707143Y-132830482D01*
X105707143Y-132830482D02*
X106016666Y-132830482D01*
X105254762Y-135523816D02*
X105254762Y-135857149D01*
X105135714Y-135333340D02*
X105016667Y-135690482D01*
X105016667Y-135690482D02*
X105326190Y-135690482D01*
X105469047Y-135357149D02*
X105802380Y-135357149D01*
X105802380Y-135357149D02*
X105588095Y-135857149D01*
X105992856Y-135857149D02*
X105992856Y-135357149D01*
X106040475Y-135666673D02*
X106183332Y-135857149D01*
X106183332Y-135523816D02*
X105992856Y-135714292D01*
D11*
X105533333Y-134381927D02*
X105400000Y-134191451D01*
X105304762Y-134381927D02*
X105304762Y-133981927D01*
X105304762Y-133981927D02*
X105457143Y-133981927D01*
X105457143Y-133981927D02*
X105495238Y-134000975D01*
X105495238Y-134000975D02*
X105514285Y-134020022D01*
X105514285Y-134020022D02*
X105533333Y-134058118D01*
X105533333Y-134058118D02*
X105533333Y-134115260D01*
X105533333Y-134115260D02*
X105514285Y-134153356D01*
X105514285Y-134153356D02*
X105495238Y-134172403D01*
X105495238Y-134172403D02*
X105457143Y-134191451D01*
X105457143Y-134191451D02*
X105304762Y-134191451D01*
X105876190Y-134115260D02*
X105876190Y-134381927D01*
X105780952Y-133962880D02*
X105685714Y-134248594D01*
X105685714Y-134248594D02*
X105933333Y-134248594D01*
D10*
X105269048Y-125879149D02*
X105554762Y-125879149D01*
X105411905Y-126379149D02*
X105411905Y-125879149D01*
X105721428Y-126379149D02*
X105721428Y-125879149D01*
X105721428Y-125879149D02*
X105911904Y-125879149D01*
X105911904Y-125879149D02*
X105959523Y-125902959D01*
X105959523Y-125902959D02*
X105983333Y-125926768D01*
X105983333Y-125926768D02*
X106007142Y-125974387D01*
X106007142Y-125974387D02*
X106007142Y-126045816D01*
X106007142Y-126045816D02*
X105983333Y-126093435D01*
X105983333Y-126093435D02*
X105959523Y-126117244D01*
X105959523Y-126117244D02*
X105911904Y-126141054D01*
X105911904Y-126141054D02*
X105721428Y-126141054D01*
X106197619Y-125926768D02*
X106221428Y-125902959D01*
X106221428Y-125902959D02*
X106269047Y-125879149D01*
X106269047Y-125879149D02*
X106388095Y-125879149D01*
X106388095Y-125879149D02*
X106435714Y-125902959D01*
X106435714Y-125902959D02*
X106459523Y-125926768D01*
X106459523Y-125926768D02*
X106483333Y-125974387D01*
X106483333Y-125974387D02*
X106483333Y-126022006D01*
X106483333Y-126022006D02*
X106459523Y-126093435D01*
X106459523Y-126093435D02*
X106173809Y-126379149D01*
X106173809Y-126379149D02*
X106483333Y-126379149D01*
X104911906Y-129277149D02*
X105078572Y-129777149D01*
X105078572Y-129777149D02*
X105245239Y-129277149D01*
X105578572Y-129515244D02*
X105650000Y-129539054D01*
X105650000Y-129539054D02*
X105673810Y-129562863D01*
X105673810Y-129562863D02*
X105697619Y-129610482D01*
X105697619Y-129610482D02*
X105697619Y-129681911D01*
X105697619Y-129681911D02*
X105673810Y-129729530D01*
X105673810Y-129729530D02*
X105650000Y-129753340D01*
X105650000Y-129753340D02*
X105602381Y-129777149D01*
X105602381Y-129777149D02*
X105411905Y-129777149D01*
X105411905Y-129777149D02*
X105411905Y-129277149D01*
X105411905Y-129277149D02*
X105578572Y-129277149D01*
X105578572Y-129277149D02*
X105626191Y-129300959D01*
X105626191Y-129300959D02*
X105650000Y-129324768D01*
X105650000Y-129324768D02*
X105673810Y-129372387D01*
X105673810Y-129372387D02*
X105673810Y-129420006D01*
X105673810Y-129420006D02*
X105650000Y-129467625D01*
X105650000Y-129467625D02*
X105626191Y-129491435D01*
X105626191Y-129491435D02*
X105578572Y-129515244D01*
X105578572Y-129515244D02*
X105411905Y-129515244D01*
X105911905Y-129777149D02*
X105911905Y-129277149D01*
X106126191Y-129634292D02*
X106364286Y-129634292D01*
X106078572Y-129777149D02*
X106245238Y-129277149D01*
X106245238Y-129277149D02*
X106411905Y-129777149D01*
X106554762Y-129753340D02*
X106626190Y-129777149D01*
X106626190Y-129777149D02*
X106745238Y-129777149D01*
X106745238Y-129777149D02*
X106792857Y-129753340D01*
X106792857Y-129753340D02*
X106816666Y-129729530D01*
X106816666Y-129729530D02*
X106840476Y-129681911D01*
X106840476Y-129681911D02*
X106840476Y-129634292D01*
X106840476Y-129634292D02*
X106816666Y-129586673D01*
X106816666Y-129586673D02*
X106792857Y-129562863D01*
X106792857Y-129562863D02*
X106745238Y-129539054D01*
X106745238Y-129539054D02*
X106650000Y-129515244D01*
X106650000Y-129515244D02*
X106602381Y-129491435D01*
X106602381Y-129491435D02*
X106578571Y-129467625D01*
X106578571Y-129467625D02*
X106554762Y-129420006D01*
X106554762Y-129420006D02*
X106554762Y-129372387D01*
X106554762Y-129372387D02*
X106578571Y-129324768D01*
X106578571Y-129324768D02*
X106602381Y-129300959D01*
X106602381Y-129300959D02*
X106650000Y-129277149D01*
X106650000Y-129277149D02*
X106769047Y-129277149D01*
X106769047Y-129277149D02*
X106840476Y-129300959D01*
X105269048Y-125877149D02*
X105554762Y-125877149D01*
X105411905Y-126377149D02*
X105411905Y-125877149D01*
X105721428Y-126377149D02*
X105721428Y-125877149D01*
X105721428Y-125877149D02*
X105911904Y-125877149D01*
X105911904Y-125877149D02*
X105959523Y-125900959D01*
X105959523Y-125900959D02*
X105983333Y-125924768D01*
X105983333Y-125924768D02*
X106007142Y-125972387D01*
X106007142Y-125972387D02*
X106007142Y-126043816D01*
X106007142Y-126043816D02*
X105983333Y-126091435D01*
X105983333Y-126091435D02*
X105959523Y-126115244D01*
X105959523Y-126115244D02*
X105911904Y-126139054D01*
X105911904Y-126139054D02*
X105721428Y-126139054D01*
X106197619Y-125924768D02*
X106221428Y-125900959D01*
X106221428Y-125900959D02*
X106269047Y-125877149D01*
X106269047Y-125877149D02*
X106388095Y-125877149D01*
X106388095Y-125877149D02*
X106435714Y-125900959D01*
X106435714Y-125900959D02*
X106459523Y-125924768D01*
X106459523Y-125924768D02*
X106483333Y-125972387D01*
X106483333Y-125972387D02*
X106483333Y-126020006D01*
X106483333Y-126020006D02*
X106459523Y-126091435D01*
X106459523Y-126091435D02*
X106173809Y-126377149D01*
X106173809Y-126377149D02*
X106483333Y-126377149D01*
X101469048Y-107179149D02*
X101754762Y-107179149D01*
X101611905Y-107679149D02*
X101611905Y-107179149D01*
X101921428Y-107679149D02*
X101921428Y-107179149D01*
X101921428Y-107179149D02*
X102111904Y-107179149D01*
X102111904Y-107179149D02*
X102159523Y-107202959D01*
X102159523Y-107202959D02*
X102183333Y-107226768D01*
X102183333Y-107226768D02*
X102207142Y-107274387D01*
X102207142Y-107274387D02*
X102207142Y-107345816D01*
X102207142Y-107345816D02*
X102183333Y-107393435D01*
X102183333Y-107393435D02*
X102159523Y-107417244D01*
X102159523Y-107417244D02*
X102111904Y-107441054D01*
X102111904Y-107441054D02*
X101921428Y-107441054D01*
X102373809Y-107179149D02*
X102683333Y-107179149D01*
X102683333Y-107179149D02*
X102516666Y-107369625D01*
X102516666Y-107369625D02*
X102588095Y-107369625D01*
X102588095Y-107369625D02*
X102635714Y-107393435D01*
X102635714Y-107393435D02*
X102659523Y-107417244D01*
X102659523Y-107417244D02*
X102683333Y-107464863D01*
X102683333Y-107464863D02*
X102683333Y-107583911D01*
X102683333Y-107583911D02*
X102659523Y-107631530D01*
X102659523Y-107631530D02*
X102635714Y-107655340D01*
X102635714Y-107655340D02*
X102588095Y-107679149D01*
X102588095Y-107679149D02*
X102445238Y-107679149D01*
X102445238Y-107679149D02*
X102397619Y-107655340D01*
X102397619Y-107655340D02*
X102373809Y-107631530D01*
X101123809Y-111077149D02*
X101123809Y-110577149D01*
X101123809Y-110577149D02*
X101290476Y-110934292D01*
X101290476Y-110934292D02*
X101457142Y-110577149D01*
X101457142Y-110577149D02*
X101457142Y-111077149D01*
X101695238Y-111077149D02*
X101695238Y-110577149D01*
X102219047Y-111029530D02*
X102195238Y-111053340D01*
X102195238Y-111053340D02*
X102123809Y-111077149D01*
X102123809Y-111077149D02*
X102076190Y-111077149D01*
X102076190Y-111077149D02*
X102004762Y-111053340D01*
X102004762Y-111053340D02*
X101957143Y-111005720D01*
X101957143Y-111005720D02*
X101933333Y-110958101D01*
X101933333Y-110958101D02*
X101909524Y-110862863D01*
X101909524Y-110862863D02*
X101909524Y-110791435D01*
X101909524Y-110791435D02*
X101933333Y-110696197D01*
X101933333Y-110696197D02*
X101957143Y-110648578D01*
X101957143Y-110648578D02*
X102004762Y-110600959D01*
X102004762Y-110600959D02*
X102076190Y-110577149D01*
X102076190Y-110577149D02*
X102123809Y-110577149D01*
X102123809Y-110577149D02*
X102195238Y-110600959D01*
X102195238Y-110600959D02*
X102219047Y-110624768D01*
X102314286Y-111124768D02*
X102695238Y-111124768D01*
X102814285Y-111077149D02*
X102814285Y-110577149D01*
X102814285Y-110577149D02*
X102933333Y-110577149D01*
X102933333Y-110577149D02*
X103004761Y-110600959D01*
X103004761Y-110600959D02*
X103052380Y-110648578D01*
X103052380Y-110648578D02*
X103076190Y-110696197D01*
X103076190Y-110696197D02*
X103099999Y-110791435D01*
X103099999Y-110791435D02*
X103099999Y-110862863D01*
X103099999Y-110862863D02*
X103076190Y-110958101D01*
X103076190Y-110958101D02*
X103052380Y-111005720D01*
X103052380Y-111005720D02*
X103004761Y-111053340D01*
X103004761Y-111053340D02*
X102933333Y-111077149D01*
X102933333Y-111077149D02*
X102814285Y-111077149D01*
X101469048Y-107177149D02*
X101754762Y-107177149D01*
X101611905Y-107677149D02*
X101611905Y-107177149D01*
X101921428Y-107677149D02*
X101921428Y-107177149D01*
X101921428Y-107177149D02*
X102111904Y-107177149D01*
X102111904Y-107177149D02*
X102159523Y-107200959D01*
X102159523Y-107200959D02*
X102183333Y-107224768D01*
X102183333Y-107224768D02*
X102207142Y-107272387D01*
X102207142Y-107272387D02*
X102207142Y-107343816D01*
X102207142Y-107343816D02*
X102183333Y-107391435D01*
X102183333Y-107391435D02*
X102159523Y-107415244D01*
X102159523Y-107415244D02*
X102111904Y-107439054D01*
X102111904Y-107439054D02*
X101921428Y-107439054D01*
X102373809Y-107177149D02*
X102683333Y-107177149D01*
X102683333Y-107177149D02*
X102516666Y-107367625D01*
X102516666Y-107367625D02*
X102588095Y-107367625D01*
X102588095Y-107367625D02*
X102635714Y-107391435D01*
X102635714Y-107391435D02*
X102659523Y-107415244D01*
X102659523Y-107415244D02*
X102683333Y-107462863D01*
X102683333Y-107462863D02*
X102683333Y-107581911D01*
X102683333Y-107581911D02*
X102659523Y-107629530D01*
X102659523Y-107629530D02*
X102635714Y-107653340D01*
X102635714Y-107653340D02*
X102588095Y-107677149D01*
X102588095Y-107677149D02*
X102445238Y-107677149D01*
X102445238Y-107677149D02*
X102397619Y-107653340D01*
X102397619Y-107653340D02*
X102373809Y-107629530D01*
X101469048Y-138779149D02*
X101754762Y-138779149D01*
X101611905Y-139279149D02*
X101611905Y-138779149D01*
X101921428Y-139279149D02*
X101921428Y-138779149D01*
X101921428Y-138779149D02*
X102111904Y-138779149D01*
X102111904Y-138779149D02*
X102159523Y-138802959D01*
X102159523Y-138802959D02*
X102183333Y-138826768D01*
X102183333Y-138826768D02*
X102207142Y-138874387D01*
X102207142Y-138874387D02*
X102207142Y-138945816D01*
X102207142Y-138945816D02*
X102183333Y-138993435D01*
X102183333Y-138993435D02*
X102159523Y-139017244D01*
X102159523Y-139017244D02*
X102111904Y-139041054D01*
X102111904Y-139041054D02*
X101921428Y-139041054D01*
X102635714Y-138945816D02*
X102635714Y-139279149D01*
X102516666Y-138755340D02*
X102397619Y-139112482D01*
X102397619Y-139112482D02*
X102707142Y-139112482D01*
X101242858Y-142177149D02*
X101409524Y-142677149D01*
X101409524Y-142677149D02*
X101576191Y-142177149D01*
X102028571Y-142677149D02*
X101861905Y-142439054D01*
X101742857Y-142677149D02*
X101742857Y-142177149D01*
X101742857Y-142177149D02*
X101933333Y-142177149D01*
X101933333Y-142177149D02*
X101980952Y-142200959D01*
X101980952Y-142200959D02*
X102004762Y-142224768D01*
X102004762Y-142224768D02*
X102028571Y-142272387D01*
X102028571Y-142272387D02*
X102028571Y-142343816D01*
X102028571Y-142343816D02*
X102004762Y-142391435D01*
X102004762Y-142391435D02*
X101980952Y-142415244D01*
X101980952Y-142415244D02*
X101933333Y-142439054D01*
X101933333Y-142439054D02*
X101742857Y-142439054D01*
X102242857Y-142415244D02*
X102409524Y-142415244D01*
X102480952Y-142677149D02*
X102242857Y-142677149D01*
X102242857Y-142677149D02*
X102242857Y-142177149D01*
X102242857Y-142177149D02*
X102480952Y-142177149D01*
X102861905Y-142415244D02*
X102695238Y-142415244D01*
X102695238Y-142677149D02*
X102695238Y-142177149D01*
X102695238Y-142177149D02*
X102933333Y-142177149D01*
X101469048Y-138777149D02*
X101754762Y-138777149D01*
X101611905Y-139277149D02*
X101611905Y-138777149D01*
X101921428Y-139277149D02*
X101921428Y-138777149D01*
X101921428Y-138777149D02*
X102111904Y-138777149D01*
X102111904Y-138777149D02*
X102159523Y-138800959D01*
X102159523Y-138800959D02*
X102183333Y-138824768D01*
X102183333Y-138824768D02*
X102207142Y-138872387D01*
X102207142Y-138872387D02*
X102207142Y-138943816D01*
X102207142Y-138943816D02*
X102183333Y-138991435D01*
X102183333Y-138991435D02*
X102159523Y-139015244D01*
X102159523Y-139015244D02*
X102111904Y-139039054D01*
X102111904Y-139039054D02*
X101921428Y-139039054D01*
X102635714Y-138943816D02*
X102635714Y-139277149D01*
X102516666Y-138753340D02*
X102397619Y-139110482D01*
X102397619Y-139110482D02*
X102707142Y-139110482D01*
X101983334Y-141535244D02*
X101816667Y-141535244D01*
X101816667Y-141797149D02*
X101816667Y-141297149D01*
X101816667Y-141297149D02*
X102054762Y-141297149D01*
X102411905Y-141535244D02*
X102483333Y-141559054D01*
X102483333Y-141559054D02*
X102507143Y-141582863D01*
X102507143Y-141582863D02*
X102530952Y-141630482D01*
X102530952Y-141630482D02*
X102530952Y-141701911D01*
X102530952Y-141701911D02*
X102507143Y-141749530D01*
X102507143Y-141749530D02*
X102483333Y-141773340D01*
X102483333Y-141773340D02*
X102435714Y-141797149D01*
X102435714Y-141797149D02*
X102245238Y-141797149D01*
X102245238Y-141797149D02*
X102245238Y-141297149D01*
X102245238Y-141297149D02*
X102411905Y-141297149D01*
X102411905Y-141297149D02*
X102459524Y-141320959D01*
X102459524Y-141320959D02*
X102483333Y-141344768D01*
X102483333Y-141344768D02*
X102507143Y-141392387D01*
X102507143Y-141392387D02*
X102507143Y-141440006D01*
X102507143Y-141440006D02*
X102483333Y-141487625D01*
X102483333Y-141487625D02*
X102459524Y-141511435D01*
X102459524Y-141511435D02*
X102411905Y-141535244D01*
X102411905Y-141535244D02*
X102245238Y-141535244D01*
X103007143Y-141797149D02*
X102721429Y-141797149D01*
X102864286Y-141797149D02*
X102864286Y-141297149D01*
X102864286Y-141297149D02*
X102816667Y-141368578D01*
X102816667Y-141368578D02*
X102769048Y-141416197D01*
X102769048Y-141416197D02*
X102721429Y-141440006D01*
X99983334Y-144157149D02*
X99888096Y-144157149D01*
X99888096Y-144157149D02*
X99840477Y-144180959D01*
X99840477Y-144180959D02*
X99816667Y-144204768D01*
X99816667Y-144204768D02*
X99769048Y-144276197D01*
X99769048Y-144276197D02*
X99745239Y-144371435D01*
X99745239Y-144371435D02*
X99745239Y-144561911D01*
X99745239Y-144561911D02*
X99769048Y-144609530D01*
X99769048Y-144609530D02*
X99792858Y-144633340D01*
X99792858Y-144633340D02*
X99840477Y-144657149D01*
X99840477Y-144657149D02*
X99935715Y-144657149D01*
X99935715Y-144657149D02*
X99983334Y-144633340D01*
X99983334Y-144633340D02*
X100007143Y-144609530D01*
X100007143Y-144609530D02*
X100030953Y-144561911D01*
X100030953Y-144561911D02*
X100030953Y-144442863D01*
X100030953Y-144442863D02*
X100007143Y-144395244D01*
X100007143Y-144395244D02*
X99983334Y-144371435D01*
X99983334Y-144371435D02*
X99935715Y-144347625D01*
X99935715Y-144347625D02*
X99840477Y-144347625D01*
X99840477Y-144347625D02*
X99792858Y-144371435D01*
X99792858Y-144371435D02*
X99769048Y-144395244D01*
X99769048Y-144395244D02*
X99745239Y-144442863D01*
X100340476Y-144157149D02*
X100388095Y-144157149D01*
X100388095Y-144157149D02*
X100435714Y-144180959D01*
X100435714Y-144180959D02*
X100459524Y-144204768D01*
X100459524Y-144204768D02*
X100483333Y-144252387D01*
X100483333Y-144252387D02*
X100507143Y-144347625D01*
X100507143Y-144347625D02*
X100507143Y-144466673D01*
X100507143Y-144466673D02*
X100483333Y-144561911D01*
X100483333Y-144561911D02*
X100459524Y-144609530D01*
X100459524Y-144609530D02*
X100435714Y-144633340D01*
X100435714Y-144633340D02*
X100388095Y-144657149D01*
X100388095Y-144657149D02*
X100340476Y-144657149D01*
X100340476Y-144657149D02*
X100292857Y-144633340D01*
X100292857Y-144633340D02*
X100269048Y-144609530D01*
X100269048Y-144609530D02*
X100245238Y-144561911D01*
X100245238Y-144561911D02*
X100221429Y-144466673D01*
X100221429Y-144466673D02*
X100221429Y-144347625D01*
X100221429Y-144347625D02*
X100245238Y-144252387D01*
X100245238Y-144252387D02*
X100269048Y-144204768D01*
X100269048Y-144204768D02*
X100292857Y-144180959D01*
X100292857Y-144180959D02*
X100340476Y-144157149D01*
X100816666Y-144157149D02*
X100864285Y-144157149D01*
X100864285Y-144157149D02*
X100911904Y-144180959D01*
X100911904Y-144180959D02*
X100935714Y-144204768D01*
X100935714Y-144204768D02*
X100959523Y-144252387D01*
X100959523Y-144252387D02*
X100983333Y-144347625D01*
X100983333Y-144347625D02*
X100983333Y-144466673D01*
X100983333Y-144466673D02*
X100959523Y-144561911D01*
X100959523Y-144561911D02*
X100935714Y-144609530D01*
X100935714Y-144609530D02*
X100911904Y-144633340D01*
X100911904Y-144633340D02*
X100864285Y-144657149D01*
X100864285Y-144657149D02*
X100816666Y-144657149D01*
X100816666Y-144657149D02*
X100769047Y-144633340D01*
X100769047Y-144633340D02*
X100745238Y-144609530D01*
X100745238Y-144609530D02*
X100721428Y-144561911D01*
X100721428Y-144561911D02*
X100697619Y-144466673D01*
X100697619Y-144466673D02*
X100697619Y-144347625D01*
X100697619Y-144347625D02*
X100721428Y-144252387D01*
X100721428Y-144252387D02*
X100745238Y-144204768D01*
X100745238Y-144204768D02*
X100769047Y-144180959D01*
X100769047Y-144180959D02*
X100816666Y-144157149D01*
X101483332Y-144657149D02*
X101316666Y-144419054D01*
X101197618Y-144657149D02*
X101197618Y-144157149D01*
X101197618Y-144157149D02*
X101388094Y-144157149D01*
X101388094Y-144157149D02*
X101435713Y-144180959D01*
X101435713Y-144180959D02*
X101459523Y-144204768D01*
X101459523Y-144204768D02*
X101483332Y-144252387D01*
X101483332Y-144252387D02*
X101483332Y-144323816D01*
X101483332Y-144323816D02*
X101459523Y-144371435D01*
X101459523Y-144371435D02*
X101435713Y-144395244D01*
X101435713Y-144395244D02*
X101388094Y-144419054D01*
X101388094Y-144419054D02*
X101197618Y-144419054D01*
X102007142Y-144419054D02*
X101983332Y-144395244D01*
X101983332Y-144395244D02*
X101935713Y-144371435D01*
X101935713Y-144371435D02*
X101888094Y-144371435D01*
X101888094Y-144371435D02*
X101840475Y-144395244D01*
X101840475Y-144395244D02*
X101816666Y-144419054D01*
X101816666Y-144419054D02*
X101792856Y-144466673D01*
X101792856Y-144466673D02*
X101792856Y-144514292D01*
X101792856Y-144514292D02*
X101816666Y-144561911D01*
X101816666Y-144561911D02*
X101840475Y-144585720D01*
X101840475Y-144585720D02*
X101888094Y-144609530D01*
X101888094Y-144609530D02*
X101935713Y-144609530D01*
X101935713Y-144609530D02*
X101983332Y-144585720D01*
X101983332Y-144585720D02*
X102007142Y-144561911D01*
X102007142Y-144371435D02*
X102007142Y-144561911D01*
X102007142Y-144561911D02*
X102030951Y-144585720D01*
X102030951Y-144585720D02*
X102054761Y-144585720D01*
X102054761Y-144585720D02*
X102102380Y-144561911D01*
X102102380Y-144561911D02*
X102126190Y-144514292D01*
X102126190Y-144514292D02*
X102126190Y-144395244D01*
X102126190Y-144395244D02*
X102078571Y-144323816D01*
X102078571Y-144323816D02*
X102007142Y-144276197D01*
X102007142Y-144276197D02*
X101911904Y-144252387D01*
X101911904Y-144252387D02*
X101816666Y-144276197D01*
X101816666Y-144276197D02*
X101745237Y-144323816D01*
X101745237Y-144323816D02*
X101697618Y-144395244D01*
X101697618Y-144395244D02*
X101673809Y-144490482D01*
X101673809Y-144490482D02*
X101697618Y-144585720D01*
X101697618Y-144585720D02*
X101745237Y-144657149D01*
X101745237Y-144657149D02*
X101816666Y-144704768D01*
X101816666Y-144704768D02*
X101911904Y-144728578D01*
X101911904Y-144728578D02*
X102007142Y-144704768D01*
X102007142Y-144704768D02*
X102078571Y-144657149D01*
X102602380Y-144657149D02*
X102316666Y-144657149D01*
X102459523Y-144657149D02*
X102459523Y-144157149D01*
X102459523Y-144157149D02*
X102411904Y-144228578D01*
X102411904Y-144228578D02*
X102364285Y-144276197D01*
X102364285Y-144276197D02*
X102316666Y-144300006D01*
X102911903Y-144157149D02*
X102959522Y-144157149D01*
X102959522Y-144157149D02*
X103007141Y-144180959D01*
X103007141Y-144180959D02*
X103030951Y-144204768D01*
X103030951Y-144204768D02*
X103054760Y-144252387D01*
X103054760Y-144252387D02*
X103078570Y-144347625D01*
X103078570Y-144347625D02*
X103078570Y-144466673D01*
X103078570Y-144466673D02*
X103054760Y-144561911D01*
X103054760Y-144561911D02*
X103030951Y-144609530D01*
X103030951Y-144609530D02*
X103007141Y-144633340D01*
X103007141Y-144633340D02*
X102959522Y-144657149D01*
X102959522Y-144657149D02*
X102911903Y-144657149D01*
X102911903Y-144657149D02*
X102864284Y-144633340D01*
X102864284Y-144633340D02*
X102840475Y-144609530D01*
X102840475Y-144609530D02*
X102816665Y-144561911D01*
X102816665Y-144561911D02*
X102792856Y-144466673D01*
X102792856Y-144466673D02*
X102792856Y-144347625D01*
X102792856Y-144347625D02*
X102816665Y-144252387D01*
X102816665Y-144252387D02*
X102840475Y-144204768D01*
X102840475Y-144204768D02*
X102864284Y-144180959D01*
X102864284Y-144180959D02*
X102911903Y-144157149D01*
X103388093Y-144157149D02*
X103435712Y-144157149D01*
X103435712Y-144157149D02*
X103483331Y-144180959D01*
X103483331Y-144180959D02*
X103507141Y-144204768D01*
X103507141Y-144204768D02*
X103530950Y-144252387D01*
X103530950Y-144252387D02*
X103554760Y-144347625D01*
X103554760Y-144347625D02*
X103554760Y-144466673D01*
X103554760Y-144466673D02*
X103530950Y-144561911D01*
X103530950Y-144561911D02*
X103507141Y-144609530D01*
X103507141Y-144609530D02*
X103483331Y-144633340D01*
X103483331Y-144633340D02*
X103435712Y-144657149D01*
X103435712Y-144657149D02*
X103388093Y-144657149D01*
X103388093Y-144657149D02*
X103340474Y-144633340D01*
X103340474Y-144633340D02*
X103316665Y-144609530D01*
X103316665Y-144609530D02*
X103292855Y-144561911D01*
X103292855Y-144561911D02*
X103269046Y-144466673D01*
X103269046Y-144466673D02*
X103269046Y-144347625D01*
X103269046Y-144347625D02*
X103292855Y-144252387D01*
X103292855Y-144252387D02*
X103316665Y-144204768D01*
X103316665Y-144204768D02*
X103340474Y-144180959D01*
X103340474Y-144180959D02*
X103388093Y-144157149D01*
X103769045Y-144657149D02*
X103769045Y-144157149D01*
X103769045Y-144157149D02*
X103935712Y-144514292D01*
X103935712Y-144514292D02*
X104102378Y-144157149D01*
X104102378Y-144157149D02*
X104102378Y-144657149D01*
X104340474Y-144657149D02*
X104340474Y-144157149D01*
X104340474Y-144395244D02*
X104626188Y-144395244D01*
X104626188Y-144657149D02*
X104626188Y-144157149D01*
X104816665Y-144323816D02*
X105078570Y-144323816D01*
X105078570Y-144323816D02*
X104816665Y-144657149D01*
X104816665Y-144657149D02*
X105078570Y-144657149D01*
D11*
X102066667Y-142972403D02*
X101933334Y-142972403D01*
X101933334Y-143181927D02*
X101933334Y-142781927D01*
X101933334Y-142781927D02*
X102123810Y-142781927D01*
X102409524Y-142972403D02*
X102466667Y-142991451D01*
X102466667Y-142991451D02*
X102485714Y-143010499D01*
X102485714Y-143010499D02*
X102504762Y-143048594D01*
X102504762Y-143048594D02*
X102504762Y-143105737D01*
X102504762Y-143105737D02*
X102485714Y-143143832D01*
X102485714Y-143143832D02*
X102466667Y-143162880D01*
X102466667Y-143162880D02*
X102428572Y-143181927D01*
X102428572Y-143181927D02*
X102276191Y-143181927D01*
X102276191Y-143181927D02*
X102276191Y-142781927D01*
X102276191Y-142781927D02*
X102409524Y-142781927D01*
X102409524Y-142781927D02*
X102447619Y-142800975D01*
X102447619Y-142800975D02*
X102466667Y-142820022D01*
X102466667Y-142820022D02*
X102485714Y-142858118D01*
X102485714Y-142858118D02*
X102485714Y-142896213D01*
X102485714Y-142896213D02*
X102466667Y-142934308D01*
X102466667Y-142934308D02*
X102447619Y-142953356D01*
X102447619Y-142953356D02*
X102409524Y-142972403D01*
X102409524Y-142972403D02*
X102276191Y-142972403D01*
X102885714Y-143181927D02*
X102657143Y-143181927D01*
X102771429Y-143181927D02*
X102771429Y-142781927D01*
X102771429Y-142781927D02*
X102733333Y-142839070D01*
X102733333Y-142839070D02*
X102695238Y-142877165D01*
X102695238Y-142877165D02*
X102657143Y-142896213D01*
D10*
X105566666Y-129749530D02*
X105542857Y-129773340D01*
X105542857Y-129773340D02*
X105471428Y-129797149D01*
X105471428Y-129797149D02*
X105423809Y-129797149D01*
X105423809Y-129797149D02*
X105352381Y-129773340D01*
X105352381Y-129773340D02*
X105304762Y-129725720D01*
X105304762Y-129725720D02*
X105280952Y-129678101D01*
X105280952Y-129678101D02*
X105257143Y-129582863D01*
X105257143Y-129582863D02*
X105257143Y-129511435D01*
X105257143Y-129511435D02*
X105280952Y-129416197D01*
X105280952Y-129416197D02*
X105304762Y-129368578D01*
X105304762Y-129368578D02*
X105352381Y-129320959D01*
X105352381Y-129320959D02*
X105423809Y-129297149D01*
X105423809Y-129297149D02*
X105471428Y-129297149D01*
X105471428Y-129297149D02*
X105542857Y-129320959D01*
X105542857Y-129320959D02*
X105566666Y-129344768D01*
X105995238Y-129463816D02*
X105995238Y-129797149D01*
X105876190Y-129273340D02*
X105757143Y-129630482D01*
X105757143Y-129630482D02*
X106066666Y-129630482D01*
X105090477Y-132657149D02*
X104804763Y-132657149D01*
X104947620Y-132657149D02*
X104947620Y-132157149D01*
X104947620Y-132157149D02*
X104900001Y-132228578D01*
X104900001Y-132228578D02*
X104852382Y-132276197D01*
X104852382Y-132276197D02*
X104804763Y-132300006D01*
X105400000Y-132157149D02*
X105447619Y-132157149D01*
X105447619Y-132157149D02*
X105495238Y-132180959D01*
X105495238Y-132180959D02*
X105519048Y-132204768D01*
X105519048Y-132204768D02*
X105542857Y-132252387D01*
X105542857Y-132252387D02*
X105566667Y-132347625D01*
X105566667Y-132347625D02*
X105566667Y-132466673D01*
X105566667Y-132466673D02*
X105542857Y-132561911D01*
X105542857Y-132561911D02*
X105519048Y-132609530D01*
X105519048Y-132609530D02*
X105495238Y-132633340D01*
X105495238Y-132633340D02*
X105447619Y-132657149D01*
X105447619Y-132657149D02*
X105400000Y-132657149D01*
X105400000Y-132657149D02*
X105352381Y-132633340D01*
X105352381Y-132633340D02*
X105328572Y-132609530D01*
X105328572Y-132609530D02*
X105304762Y-132561911D01*
X105304762Y-132561911D02*
X105280953Y-132466673D01*
X105280953Y-132466673D02*
X105280953Y-132347625D01*
X105280953Y-132347625D02*
X105304762Y-132252387D01*
X105304762Y-132252387D02*
X105328572Y-132204768D01*
X105328572Y-132204768D02*
X105352381Y-132180959D01*
X105352381Y-132180959D02*
X105400000Y-132157149D01*
X105876190Y-132157149D02*
X105923809Y-132157149D01*
X105923809Y-132157149D02*
X105971428Y-132180959D01*
X105971428Y-132180959D02*
X105995238Y-132204768D01*
X105995238Y-132204768D02*
X106019047Y-132252387D01*
X106019047Y-132252387D02*
X106042857Y-132347625D01*
X106042857Y-132347625D02*
X106042857Y-132466673D01*
X106042857Y-132466673D02*
X106019047Y-132561911D01*
X106019047Y-132561911D02*
X105995238Y-132609530D01*
X105995238Y-132609530D02*
X105971428Y-132633340D01*
X105971428Y-132633340D02*
X105923809Y-132657149D01*
X105923809Y-132657149D02*
X105876190Y-132657149D01*
X105876190Y-132657149D02*
X105828571Y-132633340D01*
X105828571Y-132633340D02*
X105804762Y-132609530D01*
X105804762Y-132609530D02*
X105780952Y-132561911D01*
X105780952Y-132561911D02*
X105757143Y-132466673D01*
X105757143Y-132466673D02*
X105757143Y-132347625D01*
X105757143Y-132347625D02*
X105780952Y-132252387D01*
X105780952Y-132252387D02*
X105804762Y-132204768D01*
X105804762Y-132204768D02*
X105828571Y-132180959D01*
X105828571Y-132180959D02*
X105876190Y-132157149D01*
X106257142Y-132323816D02*
X106257142Y-132657149D01*
X106257142Y-132371435D02*
X106280952Y-132347625D01*
X106280952Y-132347625D02*
X106328571Y-132323816D01*
X106328571Y-132323816D02*
X106399999Y-132323816D01*
X106399999Y-132323816D02*
X106447618Y-132347625D01*
X106447618Y-132347625D02*
X106471428Y-132395244D01*
X106471428Y-132395244D02*
X106471428Y-132657149D01*
D11*
X105583333Y-131143832D02*
X105564285Y-131162880D01*
X105564285Y-131162880D02*
X105507143Y-131181927D01*
X105507143Y-131181927D02*
X105469047Y-131181927D01*
X105469047Y-131181927D02*
X105411904Y-131162880D01*
X105411904Y-131162880D02*
X105373809Y-131124784D01*
X105373809Y-131124784D02*
X105354762Y-131086689D01*
X105354762Y-131086689D02*
X105335714Y-131010499D01*
X105335714Y-131010499D02*
X105335714Y-130953356D01*
X105335714Y-130953356D02*
X105354762Y-130877165D01*
X105354762Y-130877165D02*
X105373809Y-130839070D01*
X105373809Y-130839070D02*
X105411904Y-130800975D01*
X105411904Y-130800975D02*
X105469047Y-130781927D01*
X105469047Y-130781927D02*
X105507143Y-130781927D01*
X105507143Y-130781927D02*
X105564285Y-130800975D01*
X105564285Y-130800975D02*
X105583333Y-130820022D01*
X105926190Y-130915260D02*
X105926190Y-131181927D01*
X105830952Y-130762880D02*
X105735714Y-131048594D01*
X105735714Y-131048594D02*
X105983333Y-131048594D01*
D10*
X105566666Y-136149530D02*
X105542857Y-136173340D01*
X105542857Y-136173340D02*
X105471428Y-136197149D01*
X105471428Y-136197149D02*
X105423809Y-136197149D01*
X105423809Y-136197149D02*
X105352381Y-136173340D01*
X105352381Y-136173340D02*
X105304762Y-136125720D01*
X105304762Y-136125720D02*
X105280952Y-136078101D01*
X105280952Y-136078101D02*
X105257143Y-135982863D01*
X105257143Y-135982863D02*
X105257143Y-135911435D01*
X105257143Y-135911435D02*
X105280952Y-135816197D01*
X105280952Y-135816197D02*
X105304762Y-135768578D01*
X105304762Y-135768578D02*
X105352381Y-135720959D01*
X105352381Y-135720959D02*
X105423809Y-135697149D01*
X105423809Y-135697149D02*
X105471428Y-135697149D01*
X105471428Y-135697149D02*
X105542857Y-135720959D01*
X105542857Y-135720959D02*
X105566666Y-135744768D01*
X105733333Y-135697149D02*
X106066666Y-135697149D01*
X106066666Y-135697149D02*
X105852381Y-136197149D01*
X105090477Y-139057149D02*
X104804763Y-139057149D01*
X104947620Y-139057149D02*
X104947620Y-138557149D01*
X104947620Y-138557149D02*
X104900001Y-138628578D01*
X104900001Y-138628578D02*
X104852382Y-138676197D01*
X104852382Y-138676197D02*
X104804763Y-138700006D01*
X105400000Y-138557149D02*
X105447619Y-138557149D01*
X105447619Y-138557149D02*
X105495238Y-138580959D01*
X105495238Y-138580959D02*
X105519048Y-138604768D01*
X105519048Y-138604768D02*
X105542857Y-138652387D01*
X105542857Y-138652387D02*
X105566667Y-138747625D01*
X105566667Y-138747625D02*
X105566667Y-138866673D01*
X105566667Y-138866673D02*
X105542857Y-138961911D01*
X105542857Y-138961911D02*
X105519048Y-139009530D01*
X105519048Y-139009530D02*
X105495238Y-139033340D01*
X105495238Y-139033340D02*
X105447619Y-139057149D01*
X105447619Y-139057149D02*
X105400000Y-139057149D01*
X105400000Y-139057149D02*
X105352381Y-139033340D01*
X105352381Y-139033340D02*
X105328572Y-139009530D01*
X105328572Y-139009530D02*
X105304762Y-138961911D01*
X105304762Y-138961911D02*
X105280953Y-138866673D01*
X105280953Y-138866673D02*
X105280953Y-138747625D01*
X105280953Y-138747625D02*
X105304762Y-138652387D01*
X105304762Y-138652387D02*
X105328572Y-138604768D01*
X105328572Y-138604768D02*
X105352381Y-138580959D01*
X105352381Y-138580959D02*
X105400000Y-138557149D01*
X105876190Y-138557149D02*
X105923809Y-138557149D01*
X105923809Y-138557149D02*
X105971428Y-138580959D01*
X105971428Y-138580959D02*
X105995238Y-138604768D01*
X105995238Y-138604768D02*
X106019047Y-138652387D01*
X106019047Y-138652387D02*
X106042857Y-138747625D01*
X106042857Y-138747625D02*
X106042857Y-138866673D01*
X106042857Y-138866673D02*
X106019047Y-138961911D01*
X106019047Y-138961911D02*
X105995238Y-139009530D01*
X105995238Y-139009530D02*
X105971428Y-139033340D01*
X105971428Y-139033340D02*
X105923809Y-139057149D01*
X105923809Y-139057149D02*
X105876190Y-139057149D01*
X105876190Y-139057149D02*
X105828571Y-139033340D01*
X105828571Y-139033340D02*
X105804762Y-139009530D01*
X105804762Y-139009530D02*
X105780952Y-138961911D01*
X105780952Y-138961911D02*
X105757143Y-138866673D01*
X105757143Y-138866673D02*
X105757143Y-138747625D01*
X105757143Y-138747625D02*
X105780952Y-138652387D01*
X105780952Y-138652387D02*
X105804762Y-138604768D01*
X105804762Y-138604768D02*
X105828571Y-138580959D01*
X105828571Y-138580959D02*
X105876190Y-138557149D01*
X106257142Y-138723816D02*
X106257142Y-139057149D01*
X106257142Y-138771435D02*
X106280952Y-138747625D01*
X106280952Y-138747625D02*
X106328571Y-138723816D01*
X106328571Y-138723816D02*
X106399999Y-138723816D01*
X106399999Y-138723816D02*
X106447618Y-138747625D01*
X106447618Y-138747625D02*
X106471428Y-138795244D01*
X106471428Y-138795244D02*
X106471428Y-139057149D01*
D11*
X105583333Y-137543832D02*
X105564285Y-137562880D01*
X105564285Y-137562880D02*
X105507143Y-137581927D01*
X105507143Y-137581927D02*
X105469047Y-137581927D01*
X105469047Y-137581927D02*
X105411904Y-137562880D01*
X105411904Y-137562880D02*
X105373809Y-137524784D01*
X105373809Y-137524784D02*
X105354762Y-137486689D01*
X105354762Y-137486689D02*
X105335714Y-137410499D01*
X105335714Y-137410499D02*
X105335714Y-137353356D01*
X105335714Y-137353356D02*
X105354762Y-137277165D01*
X105354762Y-137277165D02*
X105373809Y-137239070D01*
X105373809Y-137239070D02*
X105411904Y-137200975D01*
X105411904Y-137200975D02*
X105469047Y-137181927D01*
X105469047Y-137181927D02*
X105507143Y-137181927D01*
X105507143Y-137181927D02*
X105564285Y-137200975D01*
X105564285Y-137200975D02*
X105583333Y-137220022D01*
X105716666Y-137181927D02*
X105983333Y-137181927D01*
X105983333Y-137181927D02*
X105811904Y-137581927D01*
D10*
X102316666Y-132997149D02*
X102150000Y-132759054D01*
X102030952Y-132997149D02*
X102030952Y-132497149D01*
X102030952Y-132497149D02*
X102221428Y-132497149D01*
X102221428Y-132497149D02*
X102269047Y-132520959D01*
X102269047Y-132520959D02*
X102292857Y-132544768D01*
X102292857Y-132544768D02*
X102316666Y-132592387D01*
X102316666Y-132592387D02*
X102316666Y-132663816D01*
X102316666Y-132663816D02*
X102292857Y-132711435D01*
X102292857Y-132711435D02*
X102269047Y-132735244D01*
X102269047Y-132735244D02*
X102221428Y-132759054D01*
X102221428Y-132759054D02*
X102030952Y-132759054D01*
X102483333Y-132497149D02*
X102792857Y-132497149D01*
X102792857Y-132497149D02*
X102626190Y-132687625D01*
X102626190Y-132687625D02*
X102697619Y-132687625D01*
X102697619Y-132687625D02*
X102745238Y-132711435D01*
X102745238Y-132711435D02*
X102769047Y-132735244D01*
X102769047Y-132735244D02*
X102792857Y-132782863D01*
X102792857Y-132782863D02*
X102792857Y-132901911D01*
X102792857Y-132901911D02*
X102769047Y-132949530D01*
X102769047Y-132949530D02*
X102745238Y-132973340D01*
X102745238Y-132973340D02*
X102697619Y-132997149D01*
X102697619Y-132997149D02*
X102554762Y-132997149D01*
X102554762Y-132997149D02*
X102507143Y-132973340D01*
X102507143Y-132973340D02*
X102483333Y-132949530D01*
X102054762Y-135523816D02*
X102054762Y-135857149D01*
X101935714Y-135333340D02*
X101816667Y-135690482D01*
X101816667Y-135690482D02*
X102126190Y-135690482D01*
X102269047Y-135357149D02*
X102602380Y-135357149D01*
X102602380Y-135357149D02*
X102388095Y-135857149D01*
X102792856Y-135857149D02*
X102792856Y-135357149D01*
X102840475Y-135666673D02*
X102983332Y-135857149D01*
X102983332Y-135523816D02*
X102792856Y-135714292D01*
D11*
X102333333Y-134381927D02*
X102200000Y-134191451D01*
X102104762Y-134381927D02*
X102104762Y-133981927D01*
X102104762Y-133981927D02*
X102257143Y-133981927D01*
X102257143Y-133981927D02*
X102295238Y-134000975D01*
X102295238Y-134000975D02*
X102314285Y-134020022D01*
X102314285Y-134020022D02*
X102333333Y-134058118D01*
X102333333Y-134058118D02*
X102333333Y-134115260D01*
X102333333Y-134115260D02*
X102314285Y-134153356D01*
X102314285Y-134153356D02*
X102295238Y-134172403D01*
X102295238Y-134172403D02*
X102257143Y-134191451D01*
X102257143Y-134191451D02*
X102104762Y-134191451D01*
X102466666Y-133981927D02*
X102714285Y-133981927D01*
X102714285Y-133981927D02*
X102580952Y-134134308D01*
X102580952Y-134134308D02*
X102638095Y-134134308D01*
X102638095Y-134134308D02*
X102676190Y-134153356D01*
X102676190Y-134153356D02*
X102695238Y-134172403D01*
X102695238Y-134172403D02*
X102714285Y-134210499D01*
X102714285Y-134210499D02*
X102714285Y-134305737D01*
X102714285Y-134305737D02*
X102695238Y-134343832D01*
X102695238Y-134343832D02*
X102676190Y-134362880D01*
X102676190Y-134362880D02*
X102638095Y-134381927D01*
X102638095Y-134381927D02*
X102523809Y-134381927D01*
X102523809Y-134381927D02*
X102485714Y-134362880D01*
X102485714Y-134362880D02*
X102466666Y-134343832D01*
D10*
X102266666Y-116949530D02*
X102242857Y-116973340D01*
X102242857Y-116973340D02*
X102171428Y-116997149D01*
X102171428Y-116997149D02*
X102123809Y-116997149D01*
X102123809Y-116997149D02*
X102052381Y-116973340D01*
X102052381Y-116973340D02*
X102004762Y-116925720D01*
X102004762Y-116925720D02*
X101980952Y-116878101D01*
X101980952Y-116878101D02*
X101957143Y-116782863D01*
X101957143Y-116782863D02*
X101957143Y-116711435D01*
X101957143Y-116711435D02*
X101980952Y-116616197D01*
X101980952Y-116616197D02*
X102004762Y-116568578D01*
X102004762Y-116568578D02*
X102052381Y-116520959D01*
X102052381Y-116520959D02*
X102123809Y-116497149D01*
X102123809Y-116497149D02*
X102171428Y-116497149D01*
X102171428Y-116497149D02*
X102242857Y-116520959D01*
X102242857Y-116520959D02*
X102266666Y-116544768D01*
X102457143Y-116544768D02*
X102480952Y-116520959D01*
X102480952Y-116520959D02*
X102528571Y-116497149D01*
X102528571Y-116497149D02*
X102647619Y-116497149D01*
X102647619Y-116497149D02*
X102695238Y-116520959D01*
X102695238Y-116520959D02*
X102719047Y-116544768D01*
X102719047Y-116544768D02*
X102742857Y-116592387D01*
X102742857Y-116592387D02*
X102742857Y-116640006D01*
X102742857Y-116640006D02*
X102719047Y-116711435D01*
X102719047Y-116711435D02*
X102433333Y-116997149D01*
X102433333Y-116997149D02*
X102742857Y-116997149D01*
X101790477Y-119857149D02*
X101504763Y-119857149D01*
X101647620Y-119857149D02*
X101647620Y-119357149D01*
X101647620Y-119357149D02*
X101600001Y-119428578D01*
X101600001Y-119428578D02*
X101552382Y-119476197D01*
X101552382Y-119476197D02*
X101504763Y-119500006D01*
X102100000Y-119357149D02*
X102147619Y-119357149D01*
X102147619Y-119357149D02*
X102195238Y-119380959D01*
X102195238Y-119380959D02*
X102219048Y-119404768D01*
X102219048Y-119404768D02*
X102242857Y-119452387D01*
X102242857Y-119452387D02*
X102266667Y-119547625D01*
X102266667Y-119547625D02*
X102266667Y-119666673D01*
X102266667Y-119666673D02*
X102242857Y-119761911D01*
X102242857Y-119761911D02*
X102219048Y-119809530D01*
X102219048Y-119809530D02*
X102195238Y-119833340D01*
X102195238Y-119833340D02*
X102147619Y-119857149D01*
X102147619Y-119857149D02*
X102100000Y-119857149D01*
X102100000Y-119857149D02*
X102052381Y-119833340D01*
X102052381Y-119833340D02*
X102028572Y-119809530D01*
X102028572Y-119809530D02*
X102004762Y-119761911D01*
X102004762Y-119761911D02*
X101980953Y-119666673D01*
X101980953Y-119666673D02*
X101980953Y-119547625D01*
X101980953Y-119547625D02*
X102004762Y-119452387D01*
X102004762Y-119452387D02*
X102028572Y-119404768D01*
X102028572Y-119404768D02*
X102052381Y-119380959D01*
X102052381Y-119380959D02*
X102100000Y-119357149D01*
X102576190Y-119357149D02*
X102623809Y-119357149D01*
X102623809Y-119357149D02*
X102671428Y-119380959D01*
X102671428Y-119380959D02*
X102695238Y-119404768D01*
X102695238Y-119404768D02*
X102719047Y-119452387D01*
X102719047Y-119452387D02*
X102742857Y-119547625D01*
X102742857Y-119547625D02*
X102742857Y-119666673D01*
X102742857Y-119666673D02*
X102719047Y-119761911D01*
X102719047Y-119761911D02*
X102695238Y-119809530D01*
X102695238Y-119809530D02*
X102671428Y-119833340D01*
X102671428Y-119833340D02*
X102623809Y-119857149D01*
X102623809Y-119857149D02*
X102576190Y-119857149D01*
X102576190Y-119857149D02*
X102528571Y-119833340D01*
X102528571Y-119833340D02*
X102504762Y-119809530D01*
X102504762Y-119809530D02*
X102480952Y-119761911D01*
X102480952Y-119761911D02*
X102457143Y-119666673D01*
X102457143Y-119666673D02*
X102457143Y-119547625D01*
X102457143Y-119547625D02*
X102480952Y-119452387D01*
X102480952Y-119452387D02*
X102504762Y-119404768D01*
X102504762Y-119404768D02*
X102528571Y-119380959D01*
X102528571Y-119380959D02*
X102576190Y-119357149D01*
X102957142Y-119523816D02*
X102957142Y-119857149D01*
X102957142Y-119571435D02*
X102980952Y-119547625D01*
X102980952Y-119547625D02*
X103028571Y-119523816D01*
X103028571Y-119523816D02*
X103099999Y-119523816D01*
X103099999Y-119523816D02*
X103147618Y-119547625D01*
X103147618Y-119547625D02*
X103171428Y-119595244D01*
X103171428Y-119595244D02*
X103171428Y-119857149D01*
D11*
X102283333Y-118343832D02*
X102264285Y-118362880D01*
X102264285Y-118362880D02*
X102207143Y-118381927D01*
X102207143Y-118381927D02*
X102169047Y-118381927D01*
X102169047Y-118381927D02*
X102111904Y-118362880D01*
X102111904Y-118362880D02*
X102073809Y-118324784D01*
X102073809Y-118324784D02*
X102054762Y-118286689D01*
X102054762Y-118286689D02*
X102035714Y-118210499D01*
X102035714Y-118210499D02*
X102035714Y-118153356D01*
X102035714Y-118153356D02*
X102054762Y-118077165D01*
X102054762Y-118077165D02*
X102073809Y-118039070D01*
X102073809Y-118039070D02*
X102111904Y-118000975D01*
X102111904Y-118000975D02*
X102169047Y-117981927D01*
X102169047Y-117981927D02*
X102207143Y-117981927D01*
X102207143Y-117981927D02*
X102264285Y-118000975D01*
X102264285Y-118000975D02*
X102283333Y-118020022D01*
X102435714Y-118020022D02*
X102454762Y-118000975D01*
X102454762Y-118000975D02*
X102492857Y-117981927D01*
X102492857Y-117981927D02*
X102588095Y-117981927D01*
X102588095Y-117981927D02*
X102626190Y-118000975D01*
X102626190Y-118000975D02*
X102645238Y-118020022D01*
X102645238Y-118020022D02*
X102664285Y-118058118D01*
X102664285Y-118058118D02*
X102664285Y-118096213D01*
X102664285Y-118096213D02*
X102645238Y-118153356D01*
X102645238Y-118153356D02*
X102416666Y-118381927D01*
X102416666Y-118381927D02*
X102664285Y-118381927D01*
D10*
X105616666Y-104699530D02*
X105592857Y-104723340D01*
X105592857Y-104723340D02*
X105521428Y-104747149D01*
X105521428Y-104747149D02*
X105473809Y-104747149D01*
X105473809Y-104747149D02*
X105402381Y-104723340D01*
X105402381Y-104723340D02*
X105354762Y-104675720D01*
X105354762Y-104675720D02*
X105330952Y-104628101D01*
X105330952Y-104628101D02*
X105307143Y-104532863D01*
X105307143Y-104532863D02*
X105307143Y-104461435D01*
X105307143Y-104461435D02*
X105330952Y-104366197D01*
X105330952Y-104366197D02*
X105354762Y-104318578D01*
X105354762Y-104318578D02*
X105402381Y-104270959D01*
X105402381Y-104270959D02*
X105473809Y-104247149D01*
X105473809Y-104247149D02*
X105521428Y-104247149D01*
X105521428Y-104247149D02*
X105592857Y-104270959D01*
X105592857Y-104270959D02*
X105616666Y-104294768D01*
X106069047Y-104247149D02*
X105830952Y-104247149D01*
X105830952Y-104247149D02*
X105807143Y-104485244D01*
X105807143Y-104485244D02*
X105830952Y-104461435D01*
X105830952Y-104461435D02*
X105878571Y-104437625D01*
X105878571Y-104437625D02*
X105997619Y-104437625D01*
X105997619Y-104437625D02*
X106045238Y-104461435D01*
X106045238Y-104461435D02*
X106069047Y-104485244D01*
X106069047Y-104485244D02*
X106092857Y-104532863D01*
X106092857Y-104532863D02*
X106092857Y-104651911D01*
X106092857Y-104651911D02*
X106069047Y-104699530D01*
X106069047Y-104699530D02*
X106045238Y-104723340D01*
X106045238Y-104723340D02*
X105997619Y-104747149D01*
X105997619Y-104747149D02*
X105878571Y-104747149D01*
X105878571Y-104747149D02*
X105830952Y-104723340D01*
X105830952Y-104723340D02*
X105807143Y-104699530D01*
X105616667Y-108107149D02*
X105330953Y-108107149D01*
X105473810Y-108107149D02*
X105473810Y-107607149D01*
X105473810Y-107607149D02*
X105426191Y-107678578D01*
X105426191Y-107678578D02*
X105378572Y-107726197D01*
X105378572Y-107726197D02*
X105330953Y-107750006D01*
X106045238Y-107773816D02*
X106045238Y-108107149D01*
X105830952Y-107773816D02*
X105830952Y-108035720D01*
X105830952Y-108035720D02*
X105854762Y-108083340D01*
X105854762Y-108083340D02*
X105902381Y-108107149D01*
X105902381Y-108107149D02*
X105973809Y-108107149D01*
X105973809Y-108107149D02*
X106021428Y-108083340D01*
X106021428Y-108083340D02*
X106045238Y-108059530D01*
X105616666Y-106379530D02*
X105592857Y-106403340D01*
X105592857Y-106403340D02*
X105521428Y-106427149D01*
X105521428Y-106427149D02*
X105473809Y-106427149D01*
X105473809Y-106427149D02*
X105402381Y-106403340D01*
X105402381Y-106403340D02*
X105354762Y-106355720D01*
X105354762Y-106355720D02*
X105330952Y-106308101D01*
X105330952Y-106308101D02*
X105307143Y-106212863D01*
X105307143Y-106212863D02*
X105307143Y-106141435D01*
X105307143Y-106141435D02*
X105330952Y-106046197D01*
X105330952Y-106046197D02*
X105354762Y-105998578D01*
X105354762Y-105998578D02*
X105402381Y-105950959D01*
X105402381Y-105950959D02*
X105473809Y-105927149D01*
X105473809Y-105927149D02*
X105521428Y-105927149D01*
X105521428Y-105927149D02*
X105592857Y-105950959D01*
X105592857Y-105950959D02*
X105616666Y-105974768D01*
X106069047Y-105927149D02*
X105830952Y-105927149D01*
X105830952Y-105927149D02*
X105807143Y-106165244D01*
X105807143Y-106165244D02*
X105830952Y-106141435D01*
X105830952Y-106141435D02*
X105878571Y-106117625D01*
X105878571Y-106117625D02*
X105997619Y-106117625D01*
X105997619Y-106117625D02*
X106045238Y-106141435D01*
X106045238Y-106141435D02*
X106069047Y-106165244D01*
X106069047Y-106165244D02*
X106092857Y-106212863D01*
X106092857Y-106212863D02*
X106092857Y-106331911D01*
X106092857Y-106331911D02*
X106069047Y-106379530D01*
X106069047Y-106379530D02*
X106045238Y-106403340D01*
X106045238Y-106403340D02*
X105997619Y-106427149D01*
X105997619Y-106427149D02*
X105878571Y-106427149D01*
X105878571Y-106427149D02*
X105830952Y-106403340D01*
X105830952Y-106403340D02*
X105807143Y-106379530D01*
X105269048Y-138779149D02*
X105554762Y-138779149D01*
X105411905Y-139279149D02*
X105411905Y-138779149D01*
X105721428Y-139279149D02*
X105721428Y-138779149D01*
X105721428Y-138779149D02*
X105911904Y-138779149D01*
X105911904Y-138779149D02*
X105959523Y-138802959D01*
X105959523Y-138802959D02*
X105983333Y-138826768D01*
X105983333Y-138826768D02*
X106007142Y-138874387D01*
X106007142Y-138874387D02*
X106007142Y-138945816D01*
X106007142Y-138945816D02*
X105983333Y-138993435D01*
X105983333Y-138993435D02*
X105959523Y-139017244D01*
X105959523Y-139017244D02*
X105911904Y-139041054D01*
X105911904Y-139041054D02*
X105721428Y-139041054D01*
X106483333Y-139279149D02*
X106197619Y-139279149D01*
X106340476Y-139279149D02*
X106340476Y-138779149D01*
X106340476Y-138779149D02*
X106292857Y-138850578D01*
X106292857Y-138850578D02*
X106245238Y-138898197D01*
X106245238Y-138898197D02*
X106197619Y-138922006D01*
X105495239Y-142177149D02*
X105661905Y-142677149D01*
X105661905Y-142677149D02*
X105828572Y-142177149D01*
X106233333Y-142177149D02*
X105995238Y-142177149D01*
X105995238Y-142177149D02*
X105971429Y-142415244D01*
X105971429Y-142415244D02*
X105995238Y-142391435D01*
X105995238Y-142391435D02*
X106042857Y-142367625D01*
X106042857Y-142367625D02*
X106161905Y-142367625D01*
X106161905Y-142367625D02*
X106209524Y-142391435D01*
X106209524Y-142391435D02*
X106233333Y-142415244D01*
X106233333Y-142415244D02*
X106257143Y-142462863D01*
X106257143Y-142462863D02*
X106257143Y-142581911D01*
X106257143Y-142581911D02*
X106233333Y-142629530D01*
X106233333Y-142629530D02*
X106209524Y-142653340D01*
X106209524Y-142653340D02*
X106161905Y-142677149D01*
X106161905Y-142677149D02*
X106042857Y-142677149D01*
X106042857Y-142677149D02*
X105995238Y-142653340D01*
X105995238Y-142653340D02*
X105971429Y-142629530D01*
X105269048Y-138777149D02*
X105554762Y-138777149D01*
X105411905Y-139277149D02*
X105411905Y-138777149D01*
X105721428Y-139277149D02*
X105721428Y-138777149D01*
X105721428Y-138777149D02*
X105911904Y-138777149D01*
X105911904Y-138777149D02*
X105959523Y-138800959D01*
X105959523Y-138800959D02*
X105983333Y-138824768D01*
X105983333Y-138824768D02*
X106007142Y-138872387D01*
X106007142Y-138872387D02*
X106007142Y-138943816D01*
X106007142Y-138943816D02*
X105983333Y-138991435D01*
X105983333Y-138991435D02*
X105959523Y-139015244D01*
X105959523Y-139015244D02*
X105911904Y-139039054D01*
X105911904Y-139039054D02*
X105721428Y-139039054D01*
X106483333Y-139277149D02*
X106197619Y-139277149D01*
X106340476Y-139277149D02*
X106340476Y-138777149D01*
X106340476Y-138777149D02*
X106292857Y-138848578D01*
X106292857Y-138848578D02*
X106245238Y-138896197D01*
X106245238Y-138896197D02*
X106197619Y-138920006D01*
X105516666Y-108197149D02*
X105350000Y-107959054D01*
X105230952Y-108197149D02*
X105230952Y-107697149D01*
X105230952Y-107697149D02*
X105421428Y-107697149D01*
X105421428Y-107697149D02*
X105469047Y-107720959D01*
X105469047Y-107720959D02*
X105492857Y-107744768D01*
X105492857Y-107744768D02*
X105516666Y-107792387D01*
X105516666Y-107792387D02*
X105516666Y-107863816D01*
X105516666Y-107863816D02*
X105492857Y-107911435D01*
X105492857Y-107911435D02*
X105469047Y-107935244D01*
X105469047Y-107935244D02*
X105421428Y-107959054D01*
X105421428Y-107959054D02*
X105230952Y-107959054D01*
X105707143Y-107744768D02*
X105730952Y-107720959D01*
X105730952Y-107720959D02*
X105778571Y-107697149D01*
X105778571Y-107697149D02*
X105897619Y-107697149D01*
X105897619Y-107697149D02*
X105945238Y-107720959D01*
X105945238Y-107720959D02*
X105969047Y-107744768D01*
X105969047Y-107744768D02*
X105992857Y-107792387D01*
X105992857Y-107792387D02*
X105992857Y-107840006D01*
X105992857Y-107840006D02*
X105969047Y-107911435D01*
X105969047Y-107911435D02*
X105683333Y-108197149D01*
X105683333Y-108197149D02*
X105992857Y-108197149D01*
X105254762Y-110723816D02*
X105254762Y-111057149D01*
X105135714Y-110533340D02*
X105016667Y-110890482D01*
X105016667Y-110890482D02*
X105326190Y-110890482D01*
X105469047Y-110557149D02*
X105802380Y-110557149D01*
X105802380Y-110557149D02*
X105588095Y-111057149D01*
X105992856Y-111057149D02*
X105992856Y-110557149D01*
X106040475Y-110866673D02*
X106183332Y-111057149D01*
X106183332Y-110723816D02*
X105992856Y-110914292D01*
D11*
X105533333Y-109581927D02*
X105400000Y-109391451D01*
X105304762Y-109581927D02*
X105304762Y-109181927D01*
X105304762Y-109181927D02*
X105457143Y-109181927D01*
X105457143Y-109181927D02*
X105495238Y-109200975D01*
X105495238Y-109200975D02*
X105514285Y-109220022D01*
X105514285Y-109220022D02*
X105533333Y-109258118D01*
X105533333Y-109258118D02*
X105533333Y-109315260D01*
X105533333Y-109315260D02*
X105514285Y-109353356D01*
X105514285Y-109353356D02*
X105495238Y-109372403D01*
X105495238Y-109372403D02*
X105457143Y-109391451D01*
X105457143Y-109391451D02*
X105304762Y-109391451D01*
X105685714Y-109220022D02*
X105704762Y-109200975D01*
X105704762Y-109200975D02*
X105742857Y-109181927D01*
X105742857Y-109181927D02*
X105838095Y-109181927D01*
X105838095Y-109181927D02*
X105876190Y-109200975D01*
X105876190Y-109200975D02*
X105895238Y-109220022D01*
X105895238Y-109220022D02*
X105914285Y-109258118D01*
X105914285Y-109258118D02*
X105914285Y-109296213D01*
X105914285Y-109296213D02*
X105895238Y-109353356D01*
X105895238Y-109353356D02*
X105666666Y-109581927D01*
X105666666Y-109581927D02*
X105914285Y-109581927D01*
D10*
X102266666Y-135899530D02*
X102242857Y-135923340D01*
X102242857Y-135923340D02*
X102171428Y-135947149D01*
X102171428Y-135947149D02*
X102123809Y-135947149D01*
X102123809Y-135947149D02*
X102052381Y-135923340D01*
X102052381Y-135923340D02*
X102004762Y-135875720D01*
X102004762Y-135875720D02*
X101980952Y-135828101D01*
X101980952Y-135828101D02*
X101957143Y-135732863D01*
X101957143Y-135732863D02*
X101957143Y-135661435D01*
X101957143Y-135661435D02*
X101980952Y-135566197D01*
X101980952Y-135566197D02*
X102004762Y-135518578D01*
X102004762Y-135518578D02*
X102052381Y-135470959D01*
X102052381Y-135470959D02*
X102123809Y-135447149D01*
X102123809Y-135447149D02*
X102171428Y-135447149D01*
X102171428Y-135447149D02*
X102242857Y-135470959D01*
X102242857Y-135470959D02*
X102266666Y-135494768D01*
X102695238Y-135447149D02*
X102600000Y-135447149D01*
X102600000Y-135447149D02*
X102552381Y-135470959D01*
X102552381Y-135470959D02*
X102528571Y-135494768D01*
X102528571Y-135494768D02*
X102480952Y-135566197D01*
X102480952Y-135566197D02*
X102457143Y-135661435D01*
X102457143Y-135661435D02*
X102457143Y-135851911D01*
X102457143Y-135851911D02*
X102480952Y-135899530D01*
X102480952Y-135899530D02*
X102504762Y-135923340D01*
X102504762Y-135923340D02*
X102552381Y-135947149D01*
X102552381Y-135947149D02*
X102647619Y-135947149D01*
X102647619Y-135947149D02*
X102695238Y-135923340D01*
X102695238Y-135923340D02*
X102719047Y-135899530D01*
X102719047Y-135899530D02*
X102742857Y-135851911D01*
X102742857Y-135851911D02*
X102742857Y-135732863D01*
X102742857Y-135732863D02*
X102719047Y-135685244D01*
X102719047Y-135685244D02*
X102695238Y-135661435D01*
X102695238Y-135661435D02*
X102647619Y-135637625D01*
X102647619Y-135637625D02*
X102552381Y-135637625D01*
X102552381Y-135637625D02*
X102504762Y-135661435D01*
X102504762Y-135661435D02*
X102480952Y-135685244D01*
X102480952Y-135685244D02*
X102457143Y-135732863D01*
X102028572Y-139307149D02*
X101742858Y-139307149D01*
X101885715Y-139307149D02*
X101885715Y-138807149D01*
X101885715Y-138807149D02*
X101838096Y-138878578D01*
X101838096Y-138878578D02*
X101790477Y-138926197D01*
X101790477Y-138926197D02*
X101742858Y-138950006D01*
X102338095Y-138807149D02*
X102385714Y-138807149D01*
X102385714Y-138807149D02*
X102433333Y-138830959D01*
X102433333Y-138830959D02*
X102457143Y-138854768D01*
X102457143Y-138854768D02*
X102480952Y-138902387D01*
X102480952Y-138902387D02*
X102504762Y-138997625D01*
X102504762Y-138997625D02*
X102504762Y-139116673D01*
X102504762Y-139116673D02*
X102480952Y-139211911D01*
X102480952Y-139211911D02*
X102457143Y-139259530D01*
X102457143Y-139259530D02*
X102433333Y-139283340D01*
X102433333Y-139283340D02*
X102385714Y-139307149D01*
X102385714Y-139307149D02*
X102338095Y-139307149D01*
X102338095Y-139307149D02*
X102290476Y-139283340D01*
X102290476Y-139283340D02*
X102266667Y-139259530D01*
X102266667Y-139259530D02*
X102242857Y-139211911D01*
X102242857Y-139211911D02*
X102219048Y-139116673D01*
X102219048Y-139116673D02*
X102219048Y-138997625D01*
X102219048Y-138997625D02*
X102242857Y-138902387D01*
X102242857Y-138902387D02*
X102266667Y-138854768D01*
X102266667Y-138854768D02*
X102290476Y-138830959D01*
X102290476Y-138830959D02*
X102338095Y-138807149D01*
X102933333Y-138973816D02*
X102933333Y-139307149D01*
X102719047Y-138973816D02*
X102719047Y-139235720D01*
X102719047Y-139235720D02*
X102742857Y-139283340D01*
X102742857Y-139283340D02*
X102790476Y-139307149D01*
X102790476Y-139307149D02*
X102861904Y-139307149D01*
X102861904Y-139307149D02*
X102909523Y-139283340D01*
X102909523Y-139283340D02*
X102933333Y-139259530D01*
X102266666Y-137579530D02*
X102242857Y-137603340D01*
X102242857Y-137603340D02*
X102171428Y-137627149D01*
X102171428Y-137627149D02*
X102123809Y-137627149D01*
X102123809Y-137627149D02*
X102052381Y-137603340D01*
X102052381Y-137603340D02*
X102004762Y-137555720D01*
X102004762Y-137555720D02*
X101980952Y-137508101D01*
X101980952Y-137508101D02*
X101957143Y-137412863D01*
X101957143Y-137412863D02*
X101957143Y-137341435D01*
X101957143Y-137341435D02*
X101980952Y-137246197D01*
X101980952Y-137246197D02*
X102004762Y-137198578D01*
X102004762Y-137198578D02*
X102052381Y-137150959D01*
X102052381Y-137150959D02*
X102123809Y-137127149D01*
X102123809Y-137127149D02*
X102171428Y-137127149D01*
X102171428Y-137127149D02*
X102242857Y-137150959D01*
X102242857Y-137150959D02*
X102266666Y-137174768D01*
X102695238Y-137127149D02*
X102600000Y-137127149D01*
X102600000Y-137127149D02*
X102552381Y-137150959D01*
X102552381Y-137150959D02*
X102528571Y-137174768D01*
X102528571Y-137174768D02*
X102480952Y-137246197D01*
X102480952Y-137246197D02*
X102457143Y-137341435D01*
X102457143Y-137341435D02*
X102457143Y-137531911D01*
X102457143Y-137531911D02*
X102480952Y-137579530D01*
X102480952Y-137579530D02*
X102504762Y-137603340D01*
X102504762Y-137603340D02*
X102552381Y-137627149D01*
X102552381Y-137627149D02*
X102647619Y-137627149D01*
X102647619Y-137627149D02*
X102695238Y-137603340D01*
X102695238Y-137603340D02*
X102719047Y-137579530D01*
X102719047Y-137579530D02*
X102742857Y-137531911D01*
X102742857Y-137531911D02*
X102742857Y-137412863D01*
X102742857Y-137412863D02*
X102719047Y-137365244D01*
X102719047Y-137365244D02*
X102695238Y-137341435D01*
X102695238Y-137341435D02*
X102647619Y-137317625D01*
X102647619Y-137317625D02*
X102552381Y-137317625D01*
X102552381Y-137317625D02*
X102504762Y-137341435D01*
X102504762Y-137341435D02*
X102480952Y-137365244D01*
X102480952Y-137365244D02*
X102457143Y-137412863D01*
X103345238Y-101027149D02*
X103345238Y-100527149D01*
X103345238Y-100527149D02*
X103511905Y-100884292D01*
X103511905Y-100884292D02*
X103678571Y-100527149D01*
X103678571Y-100527149D02*
X103678571Y-101027149D01*
X103916667Y-101027149D02*
X103916667Y-100527149D01*
X104202381Y-101027149D02*
X103988096Y-100741435D01*
X104202381Y-100527149D02*
X103916667Y-100812863D01*
X104678572Y-101027149D02*
X104392858Y-101027149D01*
X104535715Y-101027149D02*
X104535715Y-100527149D01*
X104535715Y-100527149D02*
X104488096Y-100598578D01*
X104488096Y-100598578D02*
X104440477Y-100646197D01*
X104440477Y-100646197D02*
X104392858Y-100670006D01*
X100488095Y-105284292D02*
X100726190Y-105284292D01*
X100440476Y-105427149D02*
X100607142Y-104927149D01*
X100607142Y-104927149D02*
X100773809Y-105427149D01*
X101035713Y-104927149D02*
X101130951Y-104927149D01*
X101130951Y-104927149D02*
X101178570Y-104950959D01*
X101178570Y-104950959D02*
X101226189Y-104998578D01*
X101226189Y-104998578D02*
X101249999Y-105093816D01*
X101249999Y-105093816D02*
X101249999Y-105260482D01*
X101249999Y-105260482D02*
X101226189Y-105355720D01*
X101226189Y-105355720D02*
X101178570Y-105403340D01*
X101178570Y-105403340D02*
X101130951Y-105427149D01*
X101130951Y-105427149D02*
X101035713Y-105427149D01*
X101035713Y-105427149D02*
X100988094Y-105403340D01*
X100988094Y-105403340D02*
X100940475Y-105355720D01*
X100940475Y-105355720D02*
X100916666Y-105260482D01*
X100916666Y-105260482D02*
X100916666Y-105093816D01*
X100916666Y-105093816D02*
X100940475Y-104998578D01*
X100940475Y-104998578D02*
X100988094Y-104950959D01*
X100988094Y-104950959D02*
X101035713Y-104927149D01*
X101464285Y-105427149D02*
X101464285Y-104927149D01*
X101464285Y-104927149D02*
X101630952Y-105284292D01*
X101630952Y-105284292D02*
X101797618Y-104927149D01*
X101797618Y-104927149D02*
X101797618Y-105427149D01*
X102035714Y-105236673D02*
X102416667Y-105236673D01*
X102892857Y-104927149D02*
X102654762Y-104927149D01*
X102654762Y-104927149D02*
X102630953Y-105165244D01*
X102630953Y-105165244D02*
X102654762Y-105141435D01*
X102654762Y-105141435D02*
X102702381Y-105117625D01*
X102702381Y-105117625D02*
X102821429Y-105117625D01*
X102821429Y-105117625D02*
X102869048Y-105141435D01*
X102869048Y-105141435D02*
X102892857Y-105165244D01*
X102892857Y-105165244D02*
X102916667Y-105212863D01*
X102916667Y-105212863D02*
X102916667Y-105331911D01*
X102916667Y-105331911D02*
X102892857Y-105379530D01*
X102892857Y-105379530D02*
X102869048Y-105403340D01*
X102869048Y-105403340D02*
X102821429Y-105427149D01*
X102821429Y-105427149D02*
X102702381Y-105427149D01*
X102702381Y-105427149D02*
X102654762Y-105403340D01*
X102654762Y-105403340D02*
X102630953Y-105379530D01*
X103226190Y-104927149D02*
X103273809Y-104927149D01*
X103273809Y-104927149D02*
X103321428Y-104950959D01*
X103321428Y-104950959D02*
X103345238Y-104974768D01*
X103345238Y-104974768D02*
X103369047Y-105022387D01*
X103369047Y-105022387D02*
X103392857Y-105117625D01*
X103392857Y-105117625D02*
X103392857Y-105236673D01*
X103392857Y-105236673D02*
X103369047Y-105331911D01*
X103369047Y-105331911D02*
X103345238Y-105379530D01*
X103345238Y-105379530D02*
X103321428Y-105403340D01*
X103321428Y-105403340D02*
X103273809Y-105427149D01*
X103273809Y-105427149D02*
X103226190Y-105427149D01*
X103226190Y-105427149D02*
X103178571Y-105403340D01*
X103178571Y-105403340D02*
X103154762Y-105379530D01*
X103154762Y-105379530D02*
X103130952Y-105331911D01*
X103130952Y-105331911D02*
X103107143Y-105236673D01*
X103107143Y-105236673D02*
X103107143Y-105117625D01*
X103107143Y-105117625D02*
X103130952Y-105022387D01*
X103130952Y-105022387D02*
X103154762Y-104974768D01*
X103154762Y-104974768D02*
X103178571Y-104950959D01*
X103178571Y-104950959D02*
X103226190Y-104927149D01*
X103583333Y-104974768D02*
X103607142Y-104950959D01*
X103607142Y-104950959D02*
X103654761Y-104927149D01*
X103654761Y-104927149D02*
X103773809Y-104927149D01*
X103773809Y-104927149D02*
X103821428Y-104950959D01*
X103821428Y-104950959D02*
X103845237Y-104974768D01*
X103845237Y-104974768D02*
X103869047Y-105022387D01*
X103869047Y-105022387D02*
X103869047Y-105070006D01*
X103869047Y-105070006D02*
X103845237Y-105141435D01*
X103845237Y-105141435D02*
X103559523Y-105427149D01*
X103559523Y-105427149D02*
X103869047Y-105427149D01*
X104297618Y-105093816D02*
X104297618Y-105427149D01*
X104178570Y-104903340D02*
X104059523Y-105260482D01*
X104059523Y-105260482D02*
X104369046Y-105260482D01*
X104797617Y-105427149D02*
X104559522Y-105427149D01*
X104559522Y-105427149D02*
X104559522Y-104927149D01*
X104964284Y-105236673D02*
X105345237Y-105236673D01*
X105583332Y-105427149D02*
X105583332Y-104927149D01*
X105583332Y-105165244D02*
X105869046Y-105165244D01*
X105869046Y-105427149D02*
X105869046Y-104927149D01*
X106107142Y-105427149D02*
X106107142Y-104927149D01*
X106107142Y-104927149D02*
X106226190Y-104927149D01*
X106226190Y-104927149D02*
X106297618Y-104950959D01*
X106297618Y-104950959D02*
X106345237Y-104998578D01*
X106345237Y-104998578D02*
X106369047Y-105046197D01*
X106369047Y-105046197D02*
X106392856Y-105141435D01*
X106392856Y-105141435D02*
X106392856Y-105212863D01*
X106392856Y-105212863D02*
X106369047Y-105308101D01*
X106369047Y-105308101D02*
X106345237Y-105355720D01*
X106345237Y-105355720D02*
X106297618Y-105403340D01*
X106297618Y-105403340D02*
X106226190Y-105427149D01*
X106226190Y-105427149D02*
X106107142Y-105427149D01*
X106607142Y-105236673D02*
X106988095Y-105236673D01*
X107511904Y-105427149D02*
X107345238Y-105189054D01*
X107226190Y-105427149D02*
X107226190Y-104927149D01*
X107226190Y-104927149D02*
X107416666Y-104927149D01*
X107416666Y-104927149D02*
X107464285Y-104950959D01*
X107464285Y-104950959D02*
X107488095Y-104974768D01*
X107488095Y-104974768D02*
X107511904Y-105022387D01*
X107511904Y-105022387D02*
X107511904Y-105093816D01*
X107511904Y-105093816D02*
X107488095Y-105141435D01*
X107488095Y-105141435D02*
X107464285Y-105165244D01*
X107464285Y-105165244D02*
X107416666Y-105189054D01*
X107416666Y-105189054D02*
X107226190Y-105189054D01*
X101277149Y-114180952D02*
X101681911Y-114180952D01*
X101681911Y-114180952D02*
X101729530Y-114157142D01*
X101729530Y-114157142D02*
X101753340Y-114133333D01*
X101753340Y-114133333D02*
X101777149Y-114085714D01*
X101777149Y-114085714D02*
X101777149Y-113990476D01*
X101777149Y-113990476D02*
X101753340Y-113942857D01*
X101753340Y-113942857D02*
X101729530Y-113919047D01*
X101729530Y-113919047D02*
X101681911Y-113895238D01*
X101681911Y-113895238D02*
X101277149Y-113895238D01*
X101777149Y-113395237D02*
X101777149Y-113680951D01*
X101777149Y-113538094D02*
X101277149Y-113538094D01*
X101277149Y-113538094D02*
X101348578Y-113585713D01*
X101348578Y-113585713D02*
X101396197Y-113633332D01*
X101396197Y-113633332D02*
X101420006Y-113680951D01*
X106177149Y-116014284D02*
X106177149Y-115919046D01*
X106177149Y-115919046D02*
X106200959Y-115871427D01*
X106200959Y-115871427D02*
X106248578Y-115823808D01*
X106248578Y-115823808D02*
X106343816Y-115799998D01*
X106343816Y-115799998D02*
X106510482Y-115799998D01*
X106510482Y-115799998D02*
X106605720Y-115823808D01*
X106605720Y-115823808D02*
X106653340Y-115871427D01*
X106653340Y-115871427D02*
X106677149Y-115919046D01*
X106677149Y-115919046D02*
X106677149Y-116014284D01*
X106677149Y-116014284D02*
X106653340Y-116061903D01*
X106653340Y-116061903D02*
X106605720Y-116109522D01*
X106605720Y-116109522D02*
X106510482Y-116133331D01*
X106510482Y-116133331D02*
X106343816Y-116133331D01*
X106343816Y-116133331D02*
X106248578Y-116109522D01*
X106248578Y-116109522D02*
X106200959Y-116061903D01*
X106200959Y-116061903D02*
X106177149Y-116014284D01*
X106677149Y-115585712D02*
X106177149Y-115585712D01*
X106177149Y-115585712D02*
X106177149Y-115395236D01*
X106177149Y-115395236D02*
X106200959Y-115347617D01*
X106200959Y-115347617D02*
X106224768Y-115323807D01*
X106224768Y-115323807D02*
X106272387Y-115299998D01*
X106272387Y-115299998D02*
X106343816Y-115299998D01*
X106343816Y-115299998D02*
X106391435Y-115323807D01*
X106391435Y-115323807D02*
X106415244Y-115347617D01*
X106415244Y-115347617D02*
X106439054Y-115395236D01*
X106439054Y-115395236D02*
X106439054Y-115585712D01*
X106534292Y-115109521D02*
X106534292Y-114871426D01*
X106677149Y-115157140D02*
X106177149Y-114990474D01*
X106177149Y-114990474D02*
X106677149Y-114823807D01*
X106677149Y-114395236D02*
X106677149Y-114680950D01*
X106677149Y-114538093D02*
X106177149Y-114538093D01*
X106177149Y-114538093D02*
X106248578Y-114585712D01*
X106248578Y-114585712D02*
X106296197Y-114633331D01*
X106296197Y-114633331D02*
X106320006Y-114680950D01*
X106177149Y-113966665D02*
X106177149Y-114061903D01*
X106177149Y-114061903D02*
X106200959Y-114109522D01*
X106200959Y-114109522D02*
X106224768Y-114133332D01*
X106224768Y-114133332D02*
X106296197Y-114180951D01*
X106296197Y-114180951D02*
X106391435Y-114204760D01*
X106391435Y-114204760D02*
X106581911Y-114204760D01*
X106581911Y-114204760D02*
X106629530Y-114180951D01*
X106629530Y-114180951D02*
X106653340Y-114157141D01*
X106653340Y-114157141D02*
X106677149Y-114109522D01*
X106677149Y-114109522D02*
X106677149Y-114014284D01*
X106677149Y-114014284D02*
X106653340Y-113966665D01*
X106653340Y-113966665D02*
X106629530Y-113942856D01*
X106629530Y-113942856D02*
X106581911Y-113919046D01*
X106581911Y-113919046D02*
X106462863Y-113919046D01*
X106462863Y-113919046D02*
X106415244Y-113942856D01*
X106415244Y-113942856D02*
X106391435Y-113966665D01*
X106391435Y-113966665D02*
X106367625Y-114014284D01*
X106367625Y-114014284D02*
X106367625Y-114109522D01*
X106367625Y-114109522D02*
X106391435Y-114157141D01*
X106391435Y-114157141D02*
X106415244Y-114180951D01*
X106415244Y-114180951D02*
X106462863Y-114204760D01*
X106177149Y-113490475D02*
X106177149Y-113585713D01*
X106177149Y-113585713D02*
X106200959Y-113633332D01*
X106200959Y-113633332D02*
X106224768Y-113657142D01*
X106224768Y-113657142D02*
X106296197Y-113704761D01*
X106296197Y-113704761D02*
X106391435Y-113728570D01*
X106391435Y-113728570D02*
X106581911Y-113728570D01*
X106581911Y-113728570D02*
X106629530Y-113704761D01*
X106629530Y-113704761D02*
X106653340Y-113680951D01*
X106653340Y-113680951D02*
X106677149Y-113633332D01*
X106677149Y-113633332D02*
X106677149Y-113538094D01*
X106677149Y-113538094D02*
X106653340Y-113490475D01*
X106653340Y-113490475D02*
X106629530Y-113466666D01*
X106629530Y-113466666D02*
X106581911Y-113442856D01*
X106581911Y-113442856D02*
X106462863Y-113442856D01*
X106462863Y-113442856D02*
X106415244Y-113466666D01*
X106415244Y-113466666D02*
X106391435Y-113490475D01*
X106391435Y-113490475D02*
X106367625Y-113538094D01*
X106367625Y-113538094D02*
X106367625Y-113633332D01*
X106367625Y-113633332D02*
X106391435Y-113680951D01*
X106391435Y-113680951D02*
X106415244Y-113704761D01*
X106415244Y-113704761D02*
X106462863Y-113728570D01*
X106224768Y-113252380D02*
X106200959Y-113228571D01*
X106200959Y-113228571D02*
X106177149Y-113180952D01*
X106177149Y-113180952D02*
X106177149Y-113061904D01*
X106177149Y-113061904D02*
X106200959Y-113014285D01*
X106200959Y-113014285D02*
X106224768Y-112990476D01*
X106224768Y-112990476D02*
X106272387Y-112966666D01*
X106272387Y-112966666D02*
X106320006Y-112966666D01*
X106320006Y-112966666D02*
X106391435Y-112990476D01*
X106391435Y-112990476D02*
X106677149Y-113276190D01*
X106677149Y-113276190D02*
X106677149Y-112966666D01*
X106677149Y-112752381D02*
X106177149Y-112752381D01*
X106177149Y-112752381D02*
X106177149Y-112633333D01*
X106177149Y-112633333D02*
X106200959Y-112561905D01*
X106200959Y-112561905D02*
X106248578Y-112514286D01*
X106248578Y-112514286D02*
X106296197Y-112490476D01*
X106296197Y-112490476D02*
X106391435Y-112466667D01*
X106391435Y-112466667D02*
X106462863Y-112466667D01*
X106462863Y-112466667D02*
X106558101Y-112490476D01*
X106558101Y-112490476D02*
X106605720Y-112514286D01*
X106605720Y-112514286D02*
X106653340Y-112561905D01*
X106653340Y-112561905D02*
X106677149Y-112633333D01*
X106677149Y-112633333D02*
X106677149Y-112752381D01*
X106200959Y-111990476D02*
X106177149Y-112038095D01*
X106177149Y-112038095D02*
X106177149Y-112109524D01*
X106177149Y-112109524D02*
X106200959Y-112180952D01*
X106200959Y-112180952D02*
X106248578Y-112228571D01*
X106248578Y-112228571D02*
X106296197Y-112252381D01*
X106296197Y-112252381D02*
X106391435Y-112276190D01*
X106391435Y-112276190D02*
X106462863Y-112276190D01*
X106462863Y-112276190D02*
X106558101Y-112252381D01*
X106558101Y-112252381D02*
X106605720Y-112228571D01*
X106605720Y-112228571D02*
X106653340Y-112180952D01*
X106653340Y-112180952D02*
X106677149Y-112109524D01*
X106677149Y-112109524D02*
X106677149Y-112061905D01*
X106677149Y-112061905D02*
X106653340Y-111990476D01*
X106653340Y-111990476D02*
X106629530Y-111966667D01*
X106629530Y-111966667D02*
X106462863Y-111966667D01*
X106462863Y-111966667D02*
X106462863Y-112061905D01*
X106677149Y-111752381D02*
X106177149Y-111752381D01*
X106677149Y-111466667D02*
X106391435Y-111680952D01*
X106177149Y-111466667D02*
X106462863Y-111752381D01*
D12*
X103591244Y-114371428D02*
X104198387Y-114371428D01*
X104198387Y-114371428D02*
X104269815Y-114335714D01*
X104269815Y-114335714D02*
X104305530Y-114300000D01*
X104305530Y-114300000D02*
X104341244Y-114228571D01*
X104341244Y-114228571D02*
X104341244Y-114085714D01*
X104341244Y-114085714D02*
X104305530Y-114014285D01*
X104305530Y-114014285D02*
X104269815Y-113978571D01*
X104269815Y-113978571D02*
X104198387Y-113942857D01*
X104198387Y-113942857D02*
X103591244Y-113942857D01*
X104341244Y-113192857D02*
X104341244Y-113621428D01*
X104341244Y-113407143D02*
X103591244Y-113407143D01*
X103591244Y-113407143D02*
X103698387Y-113478571D01*
X103698387Y-113478571D02*
X103769815Y-113550000D01*
X103769815Y-113550000D02*
X103805530Y-113621428D01*
D10*
X105616666Y-116699530D02*
X105592857Y-116723340D01*
X105592857Y-116723340D02*
X105521428Y-116747149D01*
X105521428Y-116747149D02*
X105473809Y-116747149D01*
X105473809Y-116747149D02*
X105402381Y-116723340D01*
X105402381Y-116723340D02*
X105354762Y-116675720D01*
X105354762Y-116675720D02*
X105330952Y-116628101D01*
X105330952Y-116628101D02*
X105307143Y-116532863D01*
X105307143Y-116532863D02*
X105307143Y-116461435D01*
X105307143Y-116461435D02*
X105330952Y-116366197D01*
X105330952Y-116366197D02*
X105354762Y-116318578D01*
X105354762Y-116318578D02*
X105402381Y-116270959D01*
X105402381Y-116270959D02*
X105473809Y-116247149D01*
X105473809Y-116247149D02*
X105521428Y-116247149D01*
X105521428Y-116247149D02*
X105592857Y-116270959D01*
X105592857Y-116270959D02*
X105616666Y-116294768D01*
X106092857Y-116747149D02*
X105807143Y-116747149D01*
X105950000Y-116747149D02*
X105950000Y-116247149D01*
X105950000Y-116247149D02*
X105902381Y-116318578D01*
X105902381Y-116318578D02*
X105854762Y-116366197D01*
X105854762Y-116366197D02*
X105807143Y-116390006D01*
X105378572Y-120107149D02*
X105092858Y-120107149D01*
X105235715Y-120107149D02*
X105235715Y-119607149D01*
X105235715Y-119607149D02*
X105188096Y-119678578D01*
X105188096Y-119678578D02*
X105140477Y-119726197D01*
X105140477Y-119726197D02*
X105092858Y-119750006D01*
X105688095Y-119607149D02*
X105735714Y-119607149D01*
X105735714Y-119607149D02*
X105783333Y-119630959D01*
X105783333Y-119630959D02*
X105807143Y-119654768D01*
X105807143Y-119654768D02*
X105830952Y-119702387D01*
X105830952Y-119702387D02*
X105854762Y-119797625D01*
X105854762Y-119797625D02*
X105854762Y-119916673D01*
X105854762Y-119916673D02*
X105830952Y-120011911D01*
X105830952Y-120011911D02*
X105807143Y-120059530D01*
X105807143Y-120059530D02*
X105783333Y-120083340D01*
X105783333Y-120083340D02*
X105735714Y-120107149D01*
X105735714Y-120107149D02*
X105688095Y-120107149D01*
X105688095Y-120107149D02*
X105640476Y-120083340D01*
X105640476Y-120083340D02*
X105616667Y-120059530D01*
X105616667Y-120059530D02*
X105592857Y-120011911D01*
X105592857Y-120011911D02*
X105569048Y-119916673D01*
X105569048Y-119916673D02*
X105569048Y-119797625D01*
X105569048Y-119797625D02*
X105592857Y-119702387D01*
X105592857Y-119702387D02*
X105616667Y-119654768D01*
X105616667Y-119654768D02*
X105640476Y-119630959D01*
X105640476Y-119630959D02*
X105688095Y-119607149D01*
X106283333Y-119773816D02*
X106283333Y-120107149D01*
X106069047Y-119773816D02*
X106069047Y-120035720D01*
X106069047Y-120035720D02*
X106092857Y-120083340D01*
X106092857Y-120083340D02*
X106140476Y-120107149D01*
X106140476Y-120107149D02*
X106211904Y-120107149D01*
X106211904Y-120107149D02*
X106259523Y-120083340D01*
X106259523Y-120083340D02*
X106283333Y-120059530D01*
X105616666Y-118379530D02*
X105592857Y-118403340D01*
X105592857Y-118403340D02*
X105521428Y-118427149D01*
X105521428Y-118427149D02*
X105473809Y-118427149D01*
X105473809Y-118427149D02*
X105402381Y-118403340D01*
X105402381Y-118403340D02*
X105354762Y-118355720D01*
X105354762Y-118355720D02*
X105330952Y-118308101D01*
X105330952Y-118308101D02*
X105307143Y-118212863D01*
X105307143Y-118212863D02*
X105307143Y-118141435D01*
X105307143Y-118141435D02*
X105330952Y-118046197D01*
X105330952Y-118046197D02*
X105354762Y-117998578D01*
X105354762Y-117998578D02*
X105402381Y-117950959D01*
X105402381Y-117950959D02*
X105473809Y-117927149D01*
X105473809Y-117927149D02*
X105521428Y-117927149D01*
X105521428Y-117927149D02*
X105592857Y-117950959D01*
X105592857Y-117950959D02*
X105616666Y-117974768D01*
X106092857Y-118427149D02*
X105807143Y-118427149D01*
X105950000Y-118427149D02*
X105950000Y-117927149D01*
X105950000Y-117927149D02*
X105902381Y-117998578D01*
X105902381Y-117998578D02*
X105854762Y-118046197D01*
X105854762Y-118046197D02*
X105807143Y-118070006D01*
X102266666Y-104997149D02*
X102100000Y-104759054D01*
X101980952Y-104997149D02*
X101980952Y-104497149D01*
X101980952Y-104497149D02*
X102171428Y-104497149D01*
X102171428Y-104497149D02*
X102219047Y-104520959D01*
X102219047Y-104520959D02*
X102242857Y-104544768D01*
X102242857Y-104544768D02*
X102266666Y-104592387D01*
X102266666Y-104592387D02*
X102266666Y-104663816D01*
X102266666Y-104663816D02*
X102242857Y-104711435D01*
X102242857Y-104711435D02*
X102219047Y-104735244D01*
X102219047Y-104735244D02*
X102171428Y-104759054D01*
X102171428Y-104759054D02*
X101980952Y-104759054D01*
X102719047Y-104497149D02*
X102480952Y-104497149D01*
X102480952Y-104497149D02*
X102457143Y-104735244D01*
X102457143Y-104735244D02*
X102480952Y-104711435D01*
X102480952Y-104711435D02*
X102528571Y-104687625D01*
X102528571Y-104687625D02*
X102647619Y-104687625D01*
X102647619Y-104687625D02*
X102695238Y-104711435D01*
X102695238Y-104711435D02*
X102719047Y-104735244D01*
X102719047Y-104735244D02*
X102742857Y-104782863D01*
X102742857Y-104782863D02*
X102742857Y-104901911D01*
X102742857Y-104901911D02*
X102719047Y-104949530D01*
X102719047Y-104949530D02*
X102695238Y-104973340D01*
X102695238Y-104973340D02*
X102647619Y-104997149D01*
X102647619Y-104997149D02*
X102528571Y-104997149D01*
X102528571Y-104997149D02*
X102480952Y-104973340D01*
X102480952Y-104973340D02*
X102457143Y-104949530D01*
X101766667Y-107404768D02*
X101790476Y-107380959D01*
X101790476Y-107380959D02*
X101838095Y-107357149D01*
X101838095Y-107357149D02*
X101957143Y-107357149D01*
X101957143Y-107357149D02*
X102004762Y-107380959D01*
X102004762Y-107380959D02*
X102028571Y-107404768D01*
X102028571Y-107404768D02*
X102052381Y-107452387D01*
X102052381Y-107452387D02*
X102052381Y-107500006D01*
X102052381Y-107500006D02*
X102028571Y-107571435D01*
X102028571Y-107571435D02*
X101742857Y-107857149D01*
X101742857Y-107857149D02*
X102052381Y-107857149D01*
X102266666Y-107857149D02*
X102266666Y-107357149D01*
X102314285Y-107666673D02*
X102457142Y-107857149D01*
X102457142Y-107523816D02*
X102266666Y-107714292D01*
X102647619Y-107404768D02*
X102671428Y-107380959D01*
X102671428Y-107380959D02*
X102719047Y-107357149D01*
X102719047Y-107357149D02*
X102838095Y-107357149D01*
X102838095Y-107357149D02*
X102885714Y-107380959D01*
X102885714Y-107380959D02*
X102909523Y-107404768D01*
X102909523Y-107404768D02*
X102933333Y-107452387D01*
X102933333Y-107452387D02*
X102933333Y-107500006D01*
X102933333Y-107500006D02*
X102909523Y-107571435D01*
X102909523Y-107571435D02*
X102623809Y-107857149D01*
X102623809Y-107857149D02*
X102933333Y-107857149D01*
D11*
X102283333Y-106381927D02*
X102150000Y-106191451D01*
X102054762Y-106381927D02*
X102054762Y-105981927D01*
X102054762Y-105981927D02*
X102207143Y-105981927D01*
X102207143Y-105981927D02*
X102245238Y-106000975D01*
X102245238Y-106000975D02*
X102264285Y-106020022D01*
X102264285Y-106020022D02*
X102283333Y-106058118D01*
X102283333Y-106058118D02*
X102283333Y-106115260D01*
X102283333Y-106115260D02*
X102264285Y-106153356D01*
X102264285Y-106153356D02*
X102245238Y-106172403D01*
X102245238Y-106172403D02*
X102207143Y-106191451D01*
X102207143Y-106191451D02*
X102054762Y-106191451D01*
X102645238Y-105981927D02*
X102454762Y-105981927D01*
X102454762Y-105981927D02*
X102435714Y-106172403D01*
X102435714Y-106172403D02*
X102454762Y-106153356D01*
X102454762Y-106153356D02*
X102492857Y-106134308D01*
X102492857Y-106134308D02*
X102588095Y-106134308D01*
X102588095Y-106134308D02*
X102626190Y-106153356D01*
X102626190Y-106153356D02*
X102645238Y-106172403D01*
X102645238Y-106172403D02*
X102664285Y-106210499D01*
X102664285Y-106210499D02*
X102664285Y-106305737D01*
X102664285Y-106305737D02*
X102645238Y-106343832D01*
X102645238Y-106343832D02*
X102626190Y-106362880D01*
X102626190Y-106362880D02*
X102588095Y-106381927D01*
X102588095Y-106381927D02*
X102492857Y-106381927D01*
X102492857Y-106381927D02*
X102454762Y-106362880D01*
X102454762Y-106362880D02*
X102435714Y-106343832D01*
D10*
X102316666Y-120197149D02*
X102150000Y-119959054D01*
X102030952Y-120197149D02*
X102030952Y-119697149D01*
X102030952Y-119697149D02*
X102221428Y-119697149D01*
X102221428Y-119697149D02*
X102269047Y-119720959D01*
X102269047Y-119720959D02*
X102292857Y-119744768D01*
X102292857Y-119744768D02*
X102316666Y-119792387D01*
X102316666Y-119792387D02*
X102316666Y-119863816D01*
X102316666Y-119863816D02*
X102292857Y-119911435D01*
X102292857Y-119911435D02*
X102269047Y-119935244D01*
X102269047Y-119935244D02*
X102221428Y-119959054D01*
X102221428Y-119959054D02*
X102030952Y-119959054D01*
X102483333Y-119697149D02*
X102816666Y-119697149D01*
X102816666Y-119697149D02*
X102602381Y-120197149D01*
X101030953Y-123057149D02*
X100745239Y-123057149D01*
X100888096Y-123057149D02*
X100888096Y-122557149D01*
X100888096Y-122557149D02*
X100840477Y-122628578D01*
X100840477Y-122628578D02*
X100792858Y-122676197D01*
X100792858Y-122676197D02*
X100745239Y-122700006D01*
X101340476Y-122557149D02*
X101388095Y-122557149D01*
X101388095Y-122557149D02*
X101435714Y-122580959D01*
X101435714Y-122580959D02*
X101459524Y-122604768D01*
X101459524Y-122604768D02*
X101483333Y-122652387D01*
X101483333Y-122652387D02*
X101507143Y-122747625D01*
X101507143Y-122747625D02*
X101507143Y-122866673D01*
X101507143Y-122866673D02*
X101483333Y-122961911D01*
X101483333Y-122961911D02*
X101459524Y-123009530D01*
X101459524Y-123009530D02*
X101435714Y-123033340D01*
X101435714Y-123033340D02*
X101388095Y-123057149D01*
X101388095Y-123057149D02*
X101340476Y-123057149D01*
X101340476Y-123057149D02*
X101292857Y-123033340D01*
X101292857Y-123033340D02*
X101269048Y-123009530D01*
X101269048Y-123009530D02*
X101245238Y-122961911D01*
X101245238Y-122961911D02*
X101221429Y-122866673D01*
X101221429Y-122866673D02*
X101221429Y-122747625D01*
X101221429Y-122747625D02*
X101245238Y-122652387D01*
X101245238Y-122652387D02*
X101269048Y-122604768D01*
X101269048Y-122604768D02*
X101292857Y-122580959D01*
X101292857Y-122580959D02*
X101340476Y-122557149D01*
X101721428Y-123057149D02*
X101721428Y-122557149D01*
X101769047Y-122866673D02*
X101911904Y-123057149D01*
X101911904Y-122723816D02*
X101721428Y-122914292D01*
X102602380Y-122557149D02*
X102649999Y-122557149D01*
X102649999Y-122557149D02*
X102697618Y-122580959D01*
X102697618Y-122580959D02*
X102721428Y-122604768D01*
X102721428Y-122604768D02*
X102745237Y-122652387D01*
X102745237Y-122652387D02*
X102769047Y-122747625D01*
X102769047Y-122747625D02*
X102769047Y-122866673D01*
X102769047Y-122866673D02*
X102745237Y-122961911D01*
X102745237Y-122961911D02*
X102721428Y-123009530D01*
X102721428Y-123009530D02*
X102697618Y-123033340D01*
X102697618Y-123033340D02*
X102649999Y-123057149D01*
X102649999Y-123057149D02*
X102602380Y-123057149D01*
X102602380Y-123057149D02*
X102554761Y-123033340D01*
X102554761Y-123033340D02*
X102530952Y-123009530D01*
X102530952Y-123009530D02*
X102507142Y-122961911D01*
X102507142Y-122961911D02*
X102483333Y-122866673D01*
X102483333Y-122866673D02*
X102483333Y-122747625D01*
X102483333Y-122747625D02*
X102507142Y-122652387D01*
X102507142Y-122652387D02*
X102530952Y-122604768D01*
X102530952Y-122604768D02*
X102554761Y-122580959D01*
X102554761Y-122580959D02*
X102602380Y-122557149D01*
X102983332Y-123009530D02*
X103007142Y-123033340D01*
X103007142Y-123033340D02*
X102983332Y-123057149D01*
X102983332Y-123057149D02*
X102959523Y-123033340D01*
X102959523Y-123033340D02*
X102983332Y-123009530D01*
X102983332Y-123009530D02*
X102983332Y-123057149D01*
X103483332Y-123057149D02*
X103197618Y-123057149D01*
X103340475Y-123057149D02*
X103340475Y-122557149D01*
X103340475Y-122557149D02*
X103292856Y-122628578D01*
X103292856Y-122628578D02*
X103245237Y-122676197D01*
X103245237Y-122676197D02*
X103197618Y-122700006D01*
X103673808Y-123057149D02*
X104054760Y-122557149D01*
X103745236Y-122557149D02*
X103792855Y-122580959D01*
X103792855Y-122580959D02*
X103816665Y-122628578D01*
X103816665Y-122628578D02*
X103792855Y-122676197D01*
X103792855Y-122676197D02*
X103745236Y-122700006D01*
X103745236Y-122700006D02*
X103697617Y-122676197D01*
X103697617Y-122676197D02*
X103673808Y-122628578D01*
X103673808Y-122628578D02*
X103697617Y-122580959D01*
X103697617Y-122580959D02*
X103745236Y-122557149D01*
X104030950Y-123033340D02*
X104054760Y-122985720D01*
X104054760Y-122985720D02*
X104030950Y-122938101D01*
X104030950Y-122938101D02*
X103983331Y-122914292D01*
X103983331Y-122914292D02*
X103935712Y-122938101D01*
X103935712Y-122938101D02*
X103911903Y-122985720D01*
X103911903Y-122985720D02*
X103935712Y-123033340D01*
X103935712Y-123033340D02*
X103983331Y-123057149D01*
X103983331Y-123057149D02*
X104030950Y-123033340D01*
D11*
X102333333Y-121581927D02*
X102200000Y-121391451D01*
X102104762Y-121581927D02*
X102104762Y-121181927D01*
X102104762Y-121181927D02*
X102257143Y-121181927D01*
X102257143Y-121181927D02*
X102295238Y-121200975D01*
X102295238Y-121200975D02*
X102314285Y-121220022D01*
X102314285Y-121220022D02*
X102333333Y-121258118D01*
X102333333Y-121258118D02*
X102333333Y-121315260D01*
X102333333Y-121315260D02*
X102314285Y-121353356D01*
X102314285Y-121353356D02*
X102295238Y-121372403D01*
X102295238Y-121372403D02*
X102257143Y-121391451D01*
X102257143Y-121391451D02*
X102104762Y-121391451D01*
X102466666Y-121181927D02*
X102733333Y-121181927D01*
X102733333Y-121181927D02*
X102561904Y-121581927D01*
D10*
X105516666Y-123397149D02*
X105350000Y-123159054D01*
X105230952Y-123397149D02*
X105230952Y-122897149D01*
X105230952Y-122897149D02*
X105421428Y-122897149D01*
X105421428Y-122897149D02*
X105469047Y-122920959D01*
X105469047Y-122920959D02*
X105492857Y-122944768D01*
X105492857Y-122944768D02*
X105516666Y-122992387D01*
X105516666Y-122992387D02*
X105516666Y-123063816D01*
X105516666Y-123063816D02*
X105492857Y-123111435D01*
X105492857Y-123111435D02*
X105469047Y-123135244D01*
X105469047Y-123135244D02*
X105421428Y-123159054D01*
X105421428Y-123159054D02*
X105230952Y-123159054D01*
X105754762Y-123397149D02*
X105850000Y-123397149D01*
X105850000Y-123397149D02*
X105897619Y-123373340D01*
X105897619Y-123373340D02*
X105921428Y-123349530D01*
X105921428Y-123349530D02*
X105969047Y-123278101D01*
X105969047Y-123278101D02*
X105992857Y-123182863D01*
X105992857Y-123182863D02*
X105992857Y-122992387D01*
X105992857Y-122992387D02*
X105969047Y-122944768D01*
X105969047Y-122944768D02*
X105945238Y-122920959D01*
X105945238Y-122920959D02*
X105897619Y-122897149D01*
X105897619Y-122897149D02*
X105802381Y-122897149D01*
X105802381Y-122897149D02*
X105754762Y-122920959D01*
X105754762Y-122920959D02*
X105730952Y-122944768D01*
X105730952Y-122944768D02*
X105707143Y-122992387D01*
X105707143Y-122992387D02*
X105707143Y-123111435D01*
X105707143Y-123111435D02*
X105730952Y-123159054D01*
X105730952Y-123159054D02*
X105754762Y-123182863D01*
X105754762Y-123182863D02*
X105802381Y-123206673D01*
X105802381Y-123206673D02*
X105897619Y-123206673D01*
X105897619Y-123206673D02*
X105945238Y-123182863D01*
X105945238Y-123182863D02*
X105969047Y-123159054D01*
X105969047Y-123159054D02*
X105992857Y-123111435D01*
X105016667Y-126257149D02*
X104730953Y-126257149D01*
X104873810Y-126257149D02*
X104873810Y-125757149D01*
X104873810Y-125757149D02*
X104826191Y-125828578D01*
X104826191Y-125828578D02*
X104778572Y-125876197D01*
X104778572Y-125876197D02*
X104730953Y-125900006D01*
X105326190Y-125757149D02*
X105373809Y-125757149D01*
X105373809Y-125757149D02*
X105421428Y-125780959D01*
X105421428Y-125780959D02*
X105445238Y-125804768D01*
X105445238Y-125804768D02*
X105469047Y-125852387D01*
X105469047Y-125852387D02*
X105492857Y-125947625D01*
X105492857Y-125947625D02*
X105492857Y-126066673D01*
X105492857Y-126066673D02*
X105469047Y-126161911D01*
X105469047Y-126161911D02*
X105445238Y-126209530D01*
X105445238Y-126209530D02*
X105421428Y-126233340D01*
X105421428Y-126233340D02*
X105373809Y-126257149D01*
X105373809Y-126257149D02*
X105326190Y-126257149D01*
X105326190Y-126257149D02*
X105278571Y-126233340D01*
X105278571Y-126233340D02*
X105254762Y-126209530D01*
X105254762Y-126209530D02*
X105230952Y-126161911D01*
X105230952Y-126161911D02*
X105207143Y-126066673D01*
X105207143Y-126066673D02*
X105207143Y-125947625D01*
X105207143Y-125947625D02*
X105230952Y-125852387D01*
X105230952Y-125852387D02*
X105254762Y-125804768D01*
X105254762Y-125804768D02*
X105278571Y-125780959D01*
X105278571Y-125780959D02*
X105326190Y-125757149D01*
X105802380Y-125757149D02*
X105849999Y-125757149D01*
X105849999Y-125757149D02*
X105897618Y-125780959D01*
X105897618Y-125780959D02*
X105921428Y-125804768D01*
X105921428Y-125804768D02*
X105945237Y-125852387D01*
X105945237Y-125852387D02*
X105969047Y-125947625D01*
X105969047Y-125947625D02*
X105969047Y-126066673D01*
X105969047Y-126066673D02*
X105945237Y-126161911D01*
X105945237Y-126161911D02*
X105921428Y-126209530D01*
X105921428Y-126209530D02*
X105897618Y-126233340D01*
X105897618Y-126233340D02*
X105849999Y-126257149D01*
X105849999Y-126257149D02*
X105802380Y-126257149D01*
X105802380Y-126257149D02*
X105754761Y-126233340D01*
X105754761Y-126233340D02*
X105730952Y-126209530D01*
X105730952Y-126209530D02*
X105707142Y-126161911D01*
X105707142Y-126161911D02*
X105683333Y-126066673D01*
X105683333Y-126066673D02*
X105683333Y-125947625D01*
X105683333Y-125947625D02*
X105707142Y-125852387D01*
X105707142Y-125852387D02*
X105730952Y-125804768D01*
X105730952Y-125804768D02*
X105754761Y-125780959D01*
X105754761Y-125780959D02*
X105802380Y-125757149D01*
X106469046Y-126257149D02*
X106302380Y-126019054D01*
X106183332Y-126257149D02*
X106183332Y-125757149D01*
X106183332Y-125757149D02*
X106373808Y-125757149D01*
X106373808Y-125757149D02*
X106421427Y-125780959D01*
X106421427Y-125780959D02*
X106445237Y-125804768D01*
X106445237Y-125804768D02*
X106469046Y-125852387D01*
X106469046Y-125852387D02*
X106469046Y-125923816D01*
X106469046Y-125923816D02*
X106445237Y-125971435D01*
X106445237Y-125971435D02*
X106421427Y-125995244D01*
X106421427Y-125995244D02*
X106373808Y-126019054D01*
X106373808Y-126019054D02*
X106183332Y-126019054D01*
D11*
X105533333Y-124781927D02*
X105400000Y-124591451D01*
X105304762Y-124781927D02*
X105304762Y-124381927D01*
X105304762Y-124381927D02*
X105457143Y-124381927D01*
X105457143Y-124381927D02*
X105495238Y-124400975D01*
X105495238Y-124400975D02*
X105514285Y-124420022D01*
X105514285Y-124420022D02*
X105533333Y-124458118D01*
X105533333Y-124458118D02*
X105533333Y-124515260D01*
X105533333Y-124515260D02*
X105514285Y-124553356D01*
X105514285Y-124553356D02*
X105495238Y-124572403D01*
X105495238Y-124572403D02*
X105457143Y-124591451D01*
X105457143Y-124591451D02*
X105304762Y-124591451D01*
X105723809Y-124781927D02*
X105800000Y-124781927D01*
X105800000Y-124781927D02*
X105838095Y-124762880D01*
X105838095Y-124762880D02*
X105857143Y-124743832D01*
X105857143Y-124743832D02*
X105895238Y-124686689D01*
X105895238Y-124686689D02*
X105914285Y-124610499D01*
X105914285Y-124610499D02*
X105914285Y-124458118D01*
X105914285Y-124458118D02*
X105895238Y-124420022D01*
X105895238Y-124420022D02*
X105876190Y-124400975D01*
X105876190Y-124400975D02*
X105838095Y-124381927D01*
X105838095Y-124381927D02*
X105761904Y-124381927D01*
X105761904Y-124381927D02*
X105723809Y-124400975D01*
X105723809Y-124400975D02*
X105704762Y-124420022D01*
X105704762Y-124420022D02*
X105685714Y-124458118D01*
X105685714Y-124458118D02*
X105685714Y-124553356D01*
X105685714Y-124553356D02*
X105704762Y-124591451D01*
X105704762Y-124591451D02*
X105723809Y-124610499D01*
X105723809Y-124610499D02*
X105761904Y-124629546D01*
X105761904Y-124629546D02*
X105838095Y-124629546D01*
X105838095Y-124629546D02*
X105876190Y-124610499D01*
X105876190Y-124610499D02*
X105895238Y-124591451D01*
X105895238Y-124591451D02*
X105914285Y-124553356D01*
D10*
X105516666Y-120197149D02*
X105350000Y-119959054D01*
X105230952Y-120197149D02*
X105230952Y-119697149D01*
X105230952Y-119697149D02*
X105421428Y-119697149D01*
X105421428Y-119697149D02*
X105469047Y-119720959D01*
X105469047Y-119720959D02*
X105492857Y-119744768D01*
X105492857Y-119744768D02*
X105516666Y-119792387D01*
X105516666Y-119792387D02*
X105516666Y-119863816D01*
X105516666Y-119863816D02*
X105492857Y-119911435D01*
X105492857Y-119911435D02*
X105469047Y-119935244D01*
X105469047Y-119935244D02*
X105421428Y-119959054D01*
X105421428Y-119959054D02*
X105230952Y-119959054D01*
X105802381Y-119911435D02*
X105754762Y-119887625D01*
X105754762Y-119887625D02*
X105730952Y-119863816D01*
X105730952Y-119863816D02*
X105707143Y-119816197D01*
X105707143Y-119816197D02*
X105707143Y-119792387D01*
X105707143Y-119792387D02*
X105730952Y-119744768D01*
X105730952Y-119744768D02*
X105754762Y-119720959D01*
X105754762Y-119720959D02*
X105802381Y-119697149D01*
X105802381Y-119697149D02*
X105897619Y-119697149D01*
X105897619Y-119697149D02*
X105945238Y-119720959D01*
X105945238Y-119720959D02*
X105969047Y-119744768D01*
X105969047Y-119744768D02*
X105992857Y-119792387D01*
X105992857Y-119792387D02*
X105992857Y-119816197D01*
X105992857Y-119816197D02*
X105969047Y-119863816D01*
X105969047Y-119863816D02*
X105945238Y-119887625D01*
X105945238Y-119887625D02*
X105897619Y-119911435D01*
X105897619Y-119911435D02*
X105802381Y-119911435D01*
X105802381Y-119911435D02*
X105754762Y-119935244D01*
X105754762Y-119935244D02*
X105730952Y-119959054D01*
X105730952Y-119959054D02*
X105707143Y-120006673D01*
X105707143Y-120006673D02*
X105707143Y-120101911D01*
X105707143Y-120101911D02*
X105730952Y-120149530D01*
X105730952Y-120149530D02*
X105754762Y-120173340D01*
X105754762Y-120173340D02*
X105802381Y-120197149D01*
X105802381Y-120197149D02*
X105897619Y-120197149D01*
X105897619Y-120197149D02*
X105945238Y-120173340D01*
X105945238Y-120173340D02*
X105969047Y-120149530D01*
X105969047Y-120149530D02*
X105992857Y-120101911D01*
X105992857Y-120101911D02*
X105992857Y-120006673D01*
X105992857Y-120006673D02*
X105969047Y-119959054D01*
X105969047Y-119959054D02*
X105945238Y-119935244D01*
X105945238Y-119935244D02*
X105897619Y-119911435D01*
X104230953Y-123057149D02*
X103945239Y-123057149D01*
X104088096Y-123057149D02*
X104088096Y-122557149D01*
X104088096Y-122557149D02*
X104040477Y-122628578D01*
X104040477Y-122628578D02*
X103992858Y-122676197D01*
X103992858Y-122676197D02*
X103945239Y-122700006D01*
X104540476Y-122557149D02*
X104588095Y-122557149D01*
X104588095Y-122557149D02*
X104635714Y-122580959D01*
X104635714Y-122580959D02*
X104659524Y-122604768D01*
X104659524Y-122604768D02*
X104683333Y-122652387D01*
X104683333Y-122652387D02*
X104707143Y-122747625D01*
X104707143Y-122747625D02*
X104707143Y-122866673D01*
X104707143Y-122866673D02*
X104683333Y-122961911D01*
X104683333Y-122961911D02*
X104659524Y-123009530D01*
X104659524Y-123009530D02*
X104635714Y-123033340D01*
X104635714Y-123033340D02*
X104588095Y-123057149D01*
X104588095Y-123057149D02*
X104540476Y-123057149D01*
X104540476Y-123057149D02*
X104492857Y-123033340D01*
X104492857Y-123033340D02*
X104469048Y-123009530D01*
X104469048Y-123009530D02*
X104445238Y-122961911D01*
X104445238Y-122961911D02*
X104421429Y-122866673D01*
X104421429Y-122866673D02*
X104421429Y-122747625D01*
X104421429Y-122747625D02*
X104445238Y-122652387D01*
X104445238Y-122652387D02*
X104469048Y-122604768D01*
X104469048Y-122604768D02*
X104492857Y-122580959D01*
X104492857Y-122580959D02*
X104540476Y-122557149D01*
X104921428Y-123057149D02*
X104921428Y-122557149D01*
X104969047Y-122866673D02*
X105111904Y-123057149D01*
X105111904Y-122723816D02*
X104921428Y-122914292D01*
X105802380Y-122557149D02*
X105849999Y-122557149D01*
X105849999Y-122557149D02*
X105897618Y-122580959D01*
X105897618Y-122580959D02*
X105921428Y-122604768D01*
X105921428Y-122604768D02*
X105945237Y-122652387D01*
X105945237Y-122652387D02*
X105969047Y-122747625D01*
X105969047Y-122747625D02*
X105969047Y-122866673D01*
X105969047Y-122866673D02*
X105945237Y-122961911D01*
X105945237Y-122961911D02*
X105921428Y-123009530D01*
X105921428Y-123009530D02*
X105897618Y-123033340D01*
X105897618Y-123033340D02*
X105849999Y-123057149D01*
X105849999Y-123057149D02*
X105802380Y-123057149D01*
X105802380Y-123057149D02*
X105754761Y-123033340D01*
X105754761Y-123033340D02*
X105730952Y-123009530D01*
X105730952Y-123009530D02*
X105707142Y-122961911D01*
X105707142Y-122961911D02*
X105683333Y-122866673D01*
X105683333Y-122866673D02*
X105683333Y-122747625D01*
X105683333Y-122747625D02*
X105707142Y-122652387D01*
X105707142Y-122652387D02*
X105730952Y-122604768D01*
X105730952Y-122604768D02*
X105754761Y-122580959D01*
X105754761Y-122580959D02*
X105802380Y-122557149D01*
X106183332Y-123009530D02*
X106207142Y-123033340D01*
X106207142Y-123033340D02*
X106183332Y-123057149D01*
X106183332Y-123057149D02*
X106159523Y-123033340D01*
X106159523Y-123033340D02*
X106183332Y-123009530D01*
X106183332Y-123009530D02*
X106183332Y-123057149D01*
X106683332Y-123057149D02*
X106397618Y-123057149D01*
X106540475Y-123057149D02*
X106540475Y-122557149D01*
X106540475Y-122557149D02*
X106492856Y-122628578D01*
X106492856Y-122628578D02*
X106445237Y-122676197D01*
X106445237Y-122676197D02*
X106397618Y-122700006D01*
X106873808Y-123057149D02*
X107254760Y-122557149D01*
X106945236Y-122557149D02*
X106992855Y-122580959D01*
X106992855Y-122580959D02*
X107016665Y-122628578D01*
X107016665Y-122628578D02*
X106992855Y-122676197D01*
X106992855Y-122676197D02*
X106945236Y-122700006D01*
X106945236Y-122700006D02*
X106897617Y-122676197D01*
X106897617Y-122676197D02*
X106873808Y-122628578D01*
X106873808Y-122628578D02*
X106897617Y-122580959D01*
X106897617Y-122580959D02*
X106945236Y-122557149D01*
X107230950Y-123033340D02*
X107254760Y-122985720D01*
X107254760Y-122985720D02*
X107230950Y-122938101D01*
X107230950Y-122938101D02*
X107183331Y-122914292D01*
X107183331Y-122914292D02*
X107135712Y-122938101D01*
X107135712Y-122938101D02*
X107111903Y-122985720D01*
X107111903Y-122985720D02*
X107135712Y-123033340D01*
X107135712Y-123033340D02*
X107183331Y-123057149D01*
X107183331Y-123057149D02*
X107230950Y-123033340D01*
D11*
X105533333Y-121581927D02*
X105400000Y-121391451D01*
X105304762Y-121581927D02*
X105304762Y-121181927D01*
X105304762Y-121181927D02*
X105457143Y-121181927D01*
X105457143Y-121181927D02*
X105495238Y-121200975D01*
X105495238Y-121200975D02*
X105514285Y-121220022D01*
X105514285Y-121220022D02*
X105533333Y-121258118D01*
X105533333Y-121258118D02*
X105533333Y-121315260D01*
X105533333Y-121315260D02*
X105514285Y-121353356D01*
X105514285Y-121353356D02*
X105495238Y-121372403D01*
X105495238Y-121372403D02*
X105457143Y-121391451D01*
X105457143Y-121391451D02*
X105304762Y-121391451D01*
X105761904Y-121353356D02*
X105723809Y-121334308D01*
X105723809Y-121334308D02*
X105704762Y-121315260D01*
X105704762Y-121315260D02*
X105685714Y-121277165D01*
X105685714Y-121277165D02*
X105685714Y-121258118D01*
X105685714Y-121258118D02*
X105704762Y-121220022D01*
X105704762Y-121220022D02*
X105723809Y-121200975D01*
X105723809Y-121200975D02*
X105761904Y-121181927D01*
X105761904Y-121181927D02*
X105838095Y-121181927D01*
X105838095Y-121181927D02*
X105876190Y-121200975D01*
X105876190Y-121200975D02*
X105895238Y-121220022D01*
X105895238Y-121220022D02*
X105914285Y-121258118D01*
X105914285Y-121258118D02*
X105914285Y-121277165D01*
X105914285Y-121277165D02*
X105895238Y-121315260D01*
X105895238Y-121315260D02*
X105876190Y-121334308D01*
X105876190Y-121334308D02*
X105838095Y-121353356D01*
X105838095Y-121353356D02*
X105761904Y-121353356D01*
X105761904Y-121353356D02*
X105723809Y-121372403D01*
X105723809Y-121372403D02*
X105704762Y-121391451D01*
X105704762Y-121391451D02*
X105685714Y-121429546D01*
X105685714Y-121429546D02*
X105685714Y-121505737D01*
X105685714Y-121505737D02*
X105704762Y-121543832D01*
X105704762Y-121543832D02*
X105723809Y-121562880D01*
X105723809Y-121562880D02*
X105761904Y-121581927D01*
X105761904Y-121581927D02*
X105838095Y-121581927D01*
X105838095Y-121581927D02*
X105876190Y-121562880D01*
X105876190Y-121562880D02*
X105895238Y-121543832D01*
X105895238Y-121543832D02*
X105914285Y-121505737D01*
X105914285Y-121505737D02*
X105914285Y-121429546D01*
X105914285Y-121429546D02*
X105895238Y-121391451D01*
X105895238Y-121391451D02*
X105876190Y-121372403D01*
X105876190Y-121372403D02*
X105838095Y-121353356D01*
%TO.C,R1*%
D13*
X101600000Y-127387500D02*
X103200000Y-127387500D01*
X103200000Y-128212500D01*
X101600000Y-128212500D01*
X101600000Y-127387500D01*
%TO.C,R6*%
X101600000Y-124187500D02*
X103200000Y-124187500D01*
X103200000Y-125012500D01*
X101600000Y-125012500D01*
X101600000Y-124187500D01*
%TO.C,R10*%
X104800000Y-142587500D02*
X106400000Y-142587500D01*
X106400000Y-143412500D01*
X104800000Y-143412500D01*
X104800000Y-142587500D01*
%TO.C,C3*%
X101350000Y-130375000D02*
X103350000Y-130375000D01*
X103350000Y-131625000D01*
X101350000Y-131625000D01*
X101350000Y-130375000D01*
%TO.C,R4*%
X104800000Y-133787500D02*
X106400000Y-133787500D01*
X106400000Y-134612500D01*
X104800000Y-134612500D01*
X104800000Y-133787500D01*
%TO.C,FB1*%
X101600000Y-142600000D02*
X103200000Y-142600000D01*
X103200000Y-143400000D01*
X101600000Y-143400000D01*
X101600000Y-142600000D01*
%TO.C,C4*%
X104850000Y-130600000D02*
X106450000Y-130600000D01*
X106450000Y-131400000D01*
X104850000Y-131400000D01*
X104850000Y-130600000D01*
%TO.C,C7*%
X104850000Y-137000000D02*
X106450000Y-137000000D01*
X106450000Y-137800000D01*
X104850000Y-137800000D01*
X104850000Y-137000000D01*
%TO.C,R3*%
X101600000Y-133787500D02*
X103200000Y-133787500D01*
X103200000Y-134612500D01*
X101600000Y-134612500D01*
X101600000Y-133787500D01*
%TO.C,C2*%
X101550000Y-117800000D02*
X103150000Y-117800000D01*
X103150000Y-118600000D01*
X101550000Y-118600000D01*
X101550000Y-117800000D01*
%TO.C,C5*%
X104700000Y-105575000D02*
X106700000Y-105575000D01*
X106700000Y-106825000D01*
X104700000Y-106825000D01*
X104700000Y-105575000D01*
%TO.C,R2*%
X104800000Y-108987500D02*
X106400000Y-108987500D01*
X106400000Y-109812500D01*
X104800000Y-109812500D01*
X104800000Y-108987500D01*
%TO.C,C6*%
X101350000Y-136775000D02*
X103350000Y-136775000D01*
X103350000Y-138025000D01*
X101350000Y-138025000D01*
X101350000Y-136775000D01*
%TO.C,U1*%
X102500000Y-114550000D02*
X102500000Y-112300000D01*
X105500000Y-112300000D01*
X105500000Y-115300000D01*
X103250000Y-115300000D01*
X102500000Y-114550000D01*
%TO.C,C1*%
X104700000Y-117575000D02*
X106700000Y-117575000D01*
X106700000Y-118825000D01*
X104700000Y-118825000D01*
X104700000Y-117575000D01*
%TO.C,R5*%
X101550000Y-105787500D02*
X103150000Y-105787500D01*
X103150000Y-106612500D01*
X101550000Y-106612500D01*
X101550000Y-105787500D01*
%TO.C,R7*%
X101600000Y-120987500D02*
X103200000Y-120987500D01*
X103200000Y-121812500D01*
X101600000Y-121812500D01*
X101600000Y-120987500D01*
%TO.C,R9*%
X104800000Y-124187500D02*
X106400000Y-124187500D01*
X106400000Y-125012500D01*
X104800000Y-125012500D01*
X104800000Y-124187500D01*
%TO.C,R8*%
X104800000Y-120987500D02*
X106400000Y-120987500D01*
X106400000Y-121812500D01*
X104800000Y-121812500D01*
X104800000Y-120987500D01*
%TD*%
M02*
