%TF.GenerationSoftware,KiCad,Pcbnew,10.0.5*%
%TF.CreationDate,2026-08-07T22:02:48-05:00*%
%TF.ProjectId,capsule-board,63617073-756c-4652-9d62-6f6172642e6b,rev?*%
%TF.SameCoordinates,Original*%
%TF.FileFunction,Copper,L4,Bot*%
%TF.FilePolarity,Positive*%
%FSLAX46Y46*%
G04 Gerber Fmt 4.6, Leading zero omitted, Abs format (unit mm)*
G04 Created by KiCad (PCBNEW 10.0.5) date 2026-08-07 22:02:48*
%MOMM*%
%LPD*%
G01*
G04 APERTURE LIST*
%TA.AperFunction,ComponentPad*%
%ADD10C,1.600000*%
%TD*%
%TA.AperFunction,ViaPad*%
%ADD11C,0.600000*%
%TD*%
%TA.AperFunction,Conductor*%
%ADD12C,0.200000*%
%TD*%
G04 APERTURE END LIST*
D10*
%TO.P,MK1,1*%
%TO.N,/AGND*%
X102730000Y-103000000D03*
%TO.P,MK1,2*%
%TO.N,/MIC_D*%
X105270000Y-103000000D03*
%TD*%
D11*
%TO.N,/V5*%
X100680000Y-141264700D03*
X106097900Y-139240200D03*
%TO.N,/VBIAS*%
X101321700Y-107512900D03*
X102853900Y-126370900D03*
%TO.N,/OUT_A*%
X102153100Y-115495100D03*
X101536300Y-123355400D03*
%TO.N,/HOT*%
X103174400Y-144062100D03*
X103503800Y-123353200D03*
%TO.N,/AGND*%
X103700000Y-119700000D03*
X105950000Y-142200000D03*
X101700000Y-110700000D03*
X102450000Y-104200000D03*
X106200000Y-125950000D03*
X104200000Y-107700000D03*
X104450000Y-127700000D03*
X100700000Y-125700000D03*
X102700000Y-132199999D03*
X101450000Y-135450000D03*
X107200000Y-107950000D03*
X105200000Y-100700000D03*
X102950000Y-100700000D03*
X107200000Y-138950000D03*
X100700000Y-114700000D03*
X100700000Y-122450000D03*
X100700000Y-112450000D03*
X104950000Y-138450000D03*
X100700000Y-108950000D03*
X106200000Y-122700000D03*
X104200000Y-125700000D03*
X106950000Y-143950000D03*
X106700000Y-102950000D03*
X101450000Y-128949999D03*
X100700000Y-100700000D03*
X106200000Y-113450000D03*
X100950000Y-102700000D03*
X103700000Y-122450000D03*
X105950000Y-129199999D03*
X100700000Y-116950000D03*
X107200000Y-100950000D03*
X100700000Y-119450000D03*
X102200000Y-144200000D03*
X105950000Y-135200000D03*
X102700000Y-138450000D03*
X104450000Y-104450000D03*
X102200000Y-107450000D03*
X106200000Y-131949999D03*
%TO.N,/VREF*%
X105999900Y-111660100D03*
X104486200Y-132725100D03*
%TO.N,/INV_IN*%
X104535900Y-113163000D03*
X105740200Y-115494000D03*
%TO.N,/OUT_B*%
X103855800Y-110211800D03*
X106213500Y-120335600D03*
%TD*%
%TO.N,/VBIAS*%
D12*
X102853900Y-126370900D02*
X102831200Y-126348200D01*
X102831200Y-126348200D02*
X102831200Y-109022400D01*
X102831200Y-109022400D02*
X101321700Y-107512900D01*
%TO.N,/OUT_A*%
X102153100Y-122738600D02*
X102153100Y-115495100D01*
X101536300Y-123355400D02*
X102153100Y-122738600D01*
%TO.N,/HOT*%
X103505600Y-123355000D02*
X103503800Y-123353200D01*
X103505600Y-143730900D02*
X103505600Y-123355000D01*
X103174400Y-144062100D02*
X103505600Y-143730900D01*
%TO.N,/VREF*%
X105999900Y-111660100D02*
X106893100Y-112553300D01*
X106893100Y-112553300D02*
X106893100Y-130318200D01*
X106893100Y-130318200D02*
X104486200Y-132725100D01*
%TO.N,/INV_IN*%
X104536000Y-113163000D02*
X104535900Y-113163000D01*
X105740200Y-115494000D02*
X104536000Y-114289800D01*
X104536000Y-114289800D02*
X104536000Y-113163000D01*
%TO.N,/OUT_B*%
X106213500Y-120335600D02*
X103855800Y-117977900D01*
X103855800Y-117977900D02*
X103855800Y-110211800D01*
%TD*%
%TA.AperFunction,Conductor*%
%TO.N,/AGND*%
G36*
X100877541Y-107846159D02*
G01*
X100881185Y-107850908D01*
X100881189Y-107850912D01*
X100881191Y-107850915D01*
X100983685Y-107953409D01*
X100983687Y-107953410D01*
X100983689Y-107953412D01*
X101109211Y-108025882D01*
X101109212Y-108025882D01*
X101109215Y-108025884D01*
X101249225Y-108063400D01*
X101335510Y-108063400D01*
X101393701Y-108082307D01*
X101405514Y-108092396D01*
X102451704Y-109138585D01*
X102479481Y-109193102D01*
X102480700Y-109208589D01*
X102480700Y-114883941D01*
X102461793Y-114942132D01*
X102412293Y-114978096D01*
X102356077Y-114979568D01*
X102286116Y-114960822D01*
X102225575Y-114944600D01*
X102080625Y-114944600D01*
X102018890Y-114961141D01*
X101940610Y-114982117D01*
X101815089Y-115054587D01*
X101712587Y-115157089D01*
X101640117Y-115282610D01*
X101602600Y-115422625D01*
X101602600Y-115567574D01*
X101640117Y-115707589D01*
X101712587Y-115833110D01*
X101712589Y-115833112D01*
X101712591Y-115833115D01*
X101773605Y-115894129D01*
X101801381Y-115948644D01*
X101802600Y-115964131D01*
X101802600Y-122552410D01*
X101783693Y-122610601D01*
X101773604Y-122622414D01*
X101620114Y-122775904D01*
X101565597Y-122803681D01*
X101550110Y-122804900D01*
X101463825Y-122804900D01*
X101402090Y-122821441D01*
X101323810Y-122842417D01*
X101198289Y-122914887D01*
X101095787Y-123017389D01*
X101023317Y-123142910D01*
X100985800Y-123282925D01*
X100985800Y-123427874D01*
X101023317Y-123567889D01*
X101095787Y-123693410D01*
X101095789Y-123693412D01*
X101095791Y-123693415D01*
X101198285Y-123795909D01*
X101198287Y-123795910D01*
X101198289Y-123795912D01*
X101323811Y-123868382D01*
X101323812Y-123868382D01*
X101323815Y-123868384D01*
X101463825Y-123905900D01*
X101463826Y-123905900D01*
X101608774Y-123905900D01*
X101608775Y-123905900D01*
X101748785Y-123868384D01*
X101748787Y-123868382D01*
X101748789Y-123868382D01*
X101874310Y-123795912D01*
X101874310Y-123795911D01*
X101874315Y-123795909D01*
X101976809Y-123693415D01*
X101978079Y-123691215D01*
X102049282Y-123567889D01*
X102049282Y-123567887D01*
X102049284Y-123567885D01*
X102086800Y-123427875D01*
X102086800Y-123341589D01*
X102105707Y-123283398D01*
X102115790Y-123271591D01*
X102311698Y-123075683D01*
X102366213Y-123047908D01*
X102426645Y-123057479D01*
X102469910Y-123100744D01*
X102480700Y-123145689D01*
X102480700Y-125924568D01*
X102461793Y-125982759D01*
X102451704Y-125994571D01*
X102413392Y-126032883D01*
X102413387Y-126032889D01*
X102340917Y-126158410D01*
X102303400Y-126298425D01*
X102303400Y-126443374D01*
X102340917Y-126583389D01*
X102413387Y-126708910D01*
X102413389Y-126708912D01*
X102413391Y-126708915D01*
X102515885Y-126811409D01*
X102515887Y-126811410D01*
X102515889Y-126811412D01*
X102641411Y-126883882D01*
X102641412Y-126883882D01*
X102641415Y-126883884D01*
X102781425Y-126921400D01*
X102781426Y-126921400D01*
X102926373Y-126921400D01*
X102926375Y-126921400D01*
X103030478Y-126893505D01*
X103091578Y-126896707D01*
X103139128Y-126935212D01*
X103155100Y-126989132D01*
X103155100Y-143421386D01*
X103136193Y-143479577D01*
X103086693Y-143515541D01*
X103081724Y-143517012D01*
X102961915Y-143549115D01*
X102961911Y-143549117D01*
X102836389Y-143621587D01*
X102733887Y-143724089D01*
X102661417Y-143849610D01*
X102623900Y-143989625D01*
X102623900Y-144134574D01*
X102661417Y-144274589D01*
X102733887Y-144400110D01*
X102733889Y-144400112D01*
X102733891Y-144400115D01*
X102836385Y-144502609D01*
X102836387Y-144502610D01*
X102836389Y-144502612D01*
X102961911Y-144575082D01*
X102961912Y-144575082D01*
X102961915Y-144575084D01*
X103101925Y-144612600D01*
X103101926Y-144612600D01*
X103246874Y-144612600D01*
X103246875Y-144612600D01*
X103386885Y-144575084D01*
X103386887Y-144575082D01*
X103386889Y-144575082D01*
X103512410Y-144502612D01*
X103512410Y-144502611D01*
X103512415Y-144502609D01*
X103614909Y-144400115D01*
X103687384Y-144274585D01*
X103724900Y-144134575D01*
X103724900Y-144048289D01*
X103743807Y-143990098D01*
X103753890Y-143978291D01*
X103786070Y-143946112D01*
X103832214Y-143866188D01*
X103856100Y-143777043D01*
X103856100Y-143684756D01*
X103856100Y-139167725D01*
X105547400Y-139167725D01*
X105547400Y-139312674D01*
X105584917Y-139452689D01*
X105657387Y-139578210D01*
X105657389Y-139578212D01*
X105657391Y-139578215D01*
X105759885Y-139680709D01*
X105759887Y-139680710D01*
X105759889Y-139680712D01*
X105885411Y-139753182D01*
X105885412Y-139753182D01*
X105885415Y-139753184D01*
X106025425Y-139790700D01*
X106025426Y-139790700D01*
X106170374Y-139790700D01*
X106170375Y-139790700D01*
X106310385Y-139753184D01*
X106310387Y-139753182D01*
X106310389Y-139753182D01*
X106435910Y-139680712D01*
X106435910Y-139680711D01*
X106435915Y-139680709D01*
X106538409Y-139578215D01*
X106610884Y-139452685D01*
X106648400Y-139312675D01*
X106648400Y-139167725D01*
X106610884Y-139027715D01*
X106610882Y-139027712D01*
X106610882Y-139027710D01*
X106538412Y-138902189D01*
X106538410Y-138902187D01*
X106538409Y-138902185D01*
X106435915Y-138799691D01*
X106435912Y-138799689D01*
X106435910Y-138799687D01*
X106310388Y-138727217D01*
X106310389Y-138727217D01*
X106280796Y-138719287D01*
X106170375Y-138689700D01*
X106025425Y-138689700D01*
X105963690Y-138706241D01*
X105885410Y-138727217D01*
X105759889Y-138799687D01*
X105657387Y-138902189D01*
X105584917Y-139027710D01*
X105547400Y-139167725D01*
X103856100Y-139167725D01*
X103856100Y-133104207D01*
X103875007Y-133046016D01*
X103924507Y-133010052D01*
X103985693Y-133010052D01*
X104035193Y-133046016D01*
X104040833Y-133054701D01*
X104045691Y-133063115D01*
X104148185Y-133165609D01*
X104148187Y-133165610D01*
X104148189Y-133165612D01*
X104273711Y-133238082D01*
X104273712Y-133238082D01*
X104273715Y-133238084D01*
X104413725Y-133275600D01*
X104413726Y-133275600D01*
X104558674Y-133275600D01*
X104558675Y-133275600D01*
X104698685Y-133238084D01*
X104698687Y-133238082D01*
X104698689Y-133238082D01*
X104824210Y-133165612D01*
X104824210Y-133165611D01*
X104824215Y-133165609D01*
X104926709Y-133063115D01*
X104926712Y-133063110D01*
X104999182Y-132937589D01*
X104999182Y-132937587D01*
X104999184Y-132937585D01*
X105036700Y-132797575D01*
X105036700Y-132711289D01*
X105055607Y-132653098D01*
X105065690Y-132641291D01*
X107130998Y-130575983D01*
X107185513Y-130548208D01*
X107245945Y-130557779D01*
X107289210Y-130601044D01*
X107300000Y-130645989D01*
X107300000Y-147201000D01*
X107281093Y-147259191D01*
X107231593Y-147295155D01*
X107201000Y-147300000D01*
X100799000Y-147300000D01*
X100740809Y-147281093D01*
X100704845Y-147231593D01*
X100700000Y-147201000D01*
X100700000Y-141905225D01*
X100718907Y-141847034D01*
X100768407Y-141811070D01*
X100773332Y-141809611D01*
X100892485Y-141777684D01*
X100892487Y-141777682D01*
X100892489Y-141777682D01*
X101018010Y-141705212D01*
X101018010Y-141705211D01*
X101018015Y-141705209D01*
X101120509Y-141602715D01*
X101192984Y-141477185D01*
X101230500Y-141337175D01*
X101230500Y-141192225D01*
X101192984Y-141052215D01*
X101192982Y-141052212D01*
X101192982Y-141052210D01*
X101120512Y-140926689D01*
X101120510Y-140926687D01*
X101120509Y-140926685D01*
X101018015Y-140824191D01*
X101018012Y-140824189D01*
X101018010Y-140824187D01*
X100892490Y-140751718D01*
X100892487Y-140751717D01*
X100892485Y-140751716D01*
X100773374Y-140719800D01*
X100722062Y-140686476D01*
X100700136Y-140629355D01*
X100700000Y-140624174D01*
X100700000Y-107906427D01*
X100718907Y-107848236D01*
X100768407Y-107812272D01*
X100829593Y-107812272D01*
X100877541Y-107846159D01*
G37*
%TD.AperFunction*%
%TA.AperFunction,Conductor*%
G36*
X103360793Y-110456506D02*
G01*
X103366436Y-110465197D01*
X103415287Y-110549810D01*
X103415289Y-110549812D01*
X103415291Y-110549815D01*
X103476305Y-110610829D01*
X103504081Y-110665344D01*
X103505300Y-110680831D01*
X103505300Y-118024044D01*
X103529186Y-118113188D01*
X103575330Y-118193112D01*
X105107062Y-119724843D01*
X105634004Y-120251785D01*
X105661781Y-120306302D01*
X105663000Y-120321789D01*
X105663000Y-120408074D01*
X105700517Y-120548089D01*
X105772987Y-120673610D01*
X105772989Y-120673612D01*
X105772991Y-120673615D01*
X105875485Y-120776109D01*
X105875487Y-120776110D01*
X105875489Y-120776112D01*
X106001011Y-120848582D01*
X106001012Y-120848582D01*
X106001015Y-120848584D01*
X106141025Y-120886100D01*
X106141026Y-120886100D01*
X106285976Y-120886100D01*
X106285976Y-120886099D01*
X106417976Y-120850730D01*
X106479078Y-120853931D01*
X106526628Y-120892436D01*
X106542600Y-120946356D01*
X106542600Y-130132010D01*
X106523693Y-130190201D01*
X106513604Y-130202014D01*
X104570014Y-132145604D01*
X104515497Y-132173381D01*
X104500010Y-132174600D01*
X104413725Y-132174600D01*
X104351990Y-132191141D01*
X104273710Y-132212117D01*
X104148189Y-132284587D01*
X104045687Y-132387089D01*
X104040835Y-132395494D01*
X103995364Y-132436434D01*
X103934514Y-132442828D01*
X103881527Y-132412234D01*
X103856642Y-132356338D01*
X103856100Y-132345992D01*
X103856100Y-123820431D01*
X103875007Y-123762240D01*
X103885090Y-123750433D01*
X103944309Y-123691215D01*
X104016784Y-123565685D01*
X104054300Y-123425675D01*
X104054300Y-123280725D01*
X104016784Y-123140715D01*
X104016782Y-123140712D01*
X104016782Y-123140710D01*
X103944312Y-123015189D01*
X103944310Y-123015187D01*
X103944309Y-123015185D01*
X103841815Y-122912691D01*
X103841812Y-122912689D01*
X103841810Y-122912687D01*
X103716288Y-122840217D01*
X103716289Y-122840217D01*
X103686696Y-122832287D01*
X103576275Y-122802700D01*
X103431325Y-122802700D01*
X103306321Y-122836194D01*
X103245222Y-122832993D01*
X103197672Y-122794488D01*
X103181700Y-122740568D01*
X103181700Y-110514697D01*
X103200607Y-110456506D01*
X103250107Y-110420542D01*
X103311293Y-110420542D01*
X103360793Y-110456506D01*
G37*
%TD.AperFunction*%
%TA.AperFunction,Conductor*%
G36*
X107259191Y-100718907D02*
G01*
X107295155Y-100768407D01*
X107300000Y-100799000D01*
X107300000Y-112225510D01*
X107281093Y-112283701D01*
X107231593Y-112319665D01*
X107170407Y-112319665D01*
X107130996Y-112295514D01*
X106579396Y-111743914D01*
X106551619Y-111689397D01*
X106550400Y-111673910D01*
X106550400Y-111587625D01*
X106512884Y-111447615D01*
X106512882Y-111447612D01*
X106512882Y-111447610D01*
X106440412Y-111322089D01*
X106440410Y-111322087D01*
X106440409Y-111322085D01*
X106337915Y-111219591D01*
X106337912Y-111219589D01*
X106337910Y-111219587D01*
X106212388Y-111147117D01*
X106212389Y-111147117D01*
X106182796Y-111139187D01*
X106072375Y-111109600D01*
X105927425Y-111109600D01*
X105865690Y-111126141D01*
X105787410Y-111147117D01*
X105661889Y-111219587D01*
X105559387Y-111322089D01*
X105486917Y-111447610D01*
X105486916Y-111447615D01*
X105449400Y-111587625D01*
X105449400Y-111732575D01*
X105478987Y-111842996D01*
X105486917Y-111872589D01*
X105559387Y-111998110D01*
X105559389Y-111998112D01*
X105559391Y-111998115D01*
X105661885Y-112100609D01*
X105661887Y-112100610D01*
X105661889Y-112100612D01*
X105787411Y-112173082D01*
X105787412Y-112173082D01*
X105787415Y-112173084D01*
X105927425Y-112210600D01*
X106013710Y-112210600D01*
X106071901Y-112229507D01*
X106083714Y-112239596D01*
X106513604Y-112669486D01*
X106541381Y-112724003D01*
X106542600Y-112739490D01*
X106542600Y-119724843D01*
X106523693Y-119783034D01*
X106474193Y-119818998D01*
X106417977Y-119820470D01*
X106355873Y-119803829D01*
X106285975Y-119785100D01*
X106285974Y-119785100D01*
X106199689Y-119785100D01*
X106141498Y-119766193D01*
X106129685Y-119756104D01*
X104235296Y-117861714D01*
X104207519Y-117807197D01*
X104206300Y-117791710D01*
X104206300Y-114694789D01*
X104225207Y-114636598D01*
X104274707Y-114600634D01*
X104335893Y-114600634D01*
X104375301Y-114624783D01*
X105160705Y-115410187D01*
X105188481Y-115464702D01*
X105189700Y-115480189D01*
X105189700Y-115566475D01*
X105189995Y-115567575D01*
X105227217Y-115706489D01*
X105299687Y-115832010D01*
X105299689Y-115832012D01*
X105299691Y-115832015D01*
X105402185Y-115934509D01*
X105402187Y-115934510D01*
X105402189Y-115934512D01*
X105527711Y-116006982D01*
X105527712Y-116006982D01*
X105527715Y-116006984D01*
X105667725Y-116044500D01*
X105667726Y-116044500D01*
X105812674Y-116044500D01*
X105812675Y-116044500D01*
X105952685Y-116006984D01*
X105952687Y-116006982D01*
X105952689Y-116006982D01*
X106078210Y-115934512D01*
X106078210Y-115934511D01*
X106078215Y-115934509D01*
X106180709Y-115832015D01*
X106253184Y-115706485D01*
X106290700Y-115566475D01*
X106290700Y-115421525D01*
X106253184Y-115281515D01*
X106253182Y-115281512D01*
X106253182Y-115281510D01*
X106180712Y-115155989D01*
X106180710Y-115155987D01*
X106180709Y-115155985D01*
X106078215Y-115053491D01*
X106078212Y-115053489D01*
X106078210Y-115053487D01*
X105952688Y-114981017D01*
X105952689Y-114981017D01*
X105923096Y-114973087D01*
X105812675Y-114943500D01*
X105812674Y-114943500D01*
X105726390Y-114943500D01*
X105668199Y-114924593D01*
X105656386Y-114914504D01*
X104915496Y-114173614D01*
X104887719Y-114119097D01*
X104886500Y-114103610D01*
X104886500Y-113631931D01*
X104905407Y-113573740D01*
X104915490Y-113561933D01*
X104976409Y-113501015D01*
X105048884Y-113375485D01*
X105086400Y-113235475D01*
X105086400Y-113090525D01*
X105048884Y-112950515D01*
X105048882Y-112950512D01*
X105048882Y-112950510D01*
X104976412Y-112824989D01*
X104976410Y-112824987D01*
X104976409Y-112824985D01*
X104873915Y-112722491D01*
X104873912Y-112722489D01*
X104873910Y-112722487D01*
X104748388Y-112650017D01*
X104748389Y-112650017D01*
X104718796Y-112642087D01*
X104608375Y-112612500D01*
X104463425Y-112612500D01*
X104389790Y-112632230D01*
X104330923Y-112648004D01*
X104269822Y-112644801D01*
X104222272Y-112606296D01*
X104206300Y-112552377D01*
X104206300Y-110680831D01*
X104225207Y-110622640D01*
X104235290Y-110610833D01*
X104296309Y-110549815D01*
X104296312Y-110549810D01*
X104368782Y-110424289D01*
X104368782Y-110424287D01*
X104368784Y-110424285D01*
X104406300Y-110284275D01*
X104406300Y-110139325D01*
X104368784Y-109999315D01*
X104368782Y-109999312D01*
X104368782Y-109999310D01*
X104296312Y-109873789D01*
X104296310Y-109873787D01*
X104296309Y-109873785D01*
X104193815Y-109771291D01*
X104193812Y-109771289D01*
X104193810Y-109771287D01*
X104068288Y-109698817D01*
X104068289Y-109698817D01*
X104038696Y-109690887D01*
X103928275Y-109661300D01*
X103783325Y-109661300D01*
X103721590Y-109677841D01*
X103643310Y-109698817D01*
X103517789Y-109771287D01*
X103415287Y-109873789D01*
X103366436Y-109958402D01*
X103320966Y-109999343D01*
X103260116Y-110005739D01*
X103207128Y-109975146D01*
X103182242Y-109919250D01*
X103181700Y-109908902D01*
X103181700Y-108976257D01*
X103181700Y-108976256D01*
X103157814Y-108887112D01*
X103111669Y-108807188D01*
X103111668Y-108807187D01*
X103046412Y-108741930D01*
X103046412Y-108741931D01*
X101901196Y-107596714D01*
X101873419Y-107542197D01*
X101872200Y-107526710D01*
X101872200Y-107440425D01*
X101834684Y-107300415D01*
X101834682Y-107300412D01*
X101834682Y-107300410D01*
X101762212Y-107174889D01*
X101762210Y-107174887D01*
X101762209Y-107174885D01*
X101659715Y-107072391D01*
X101659712Y-107072389D01*
X101659710Y-107072387D01*
X101534188Y-106999917D01*
X101534189Y-106999917D01*
X101504596Y-106991987D01*
X101394175Y-106962400D01*
X101249225Y-106962400D01*
X101187490Y-106978941D01*
X101109210Y-106999917D01*
X100983689Y-107072387D01*
X100881184Y-107174892D01*
X100877538Y-107179644D01*
X100827112Y-107214297D01*
X100765948Y-107212692D01*
X100717408Y-107175441D01*
X100700000Y-107119372D01*
X100700000Y-102896532D01*
X104219500Y-102896532D01*
X104219500Y-103103467D01*
X104259869Y-103306418D01*
X104339058Y-103497597D01*
X104339059Y-103497598D01*
X104454023Y-103669655D01*
X104600345Y-103815977D01*
X104772402Y-103930941D01*
X104963580Y-104010130D01*
X105166535Y-104050500D01*
X105166536Y-104050500D01*
X105373464Y-104050500D01*
X105373465Y-104050500D01*
X105576420Y-104010130D01*
X105767598Y-103930941D01*
X105939655Y-103815977D01*
X106085977Y-103669655D01*
X106200941Y-103497598D01*
X106280130Y-103306420D01*
X106320500Y-103103465D01*
X106320500Y-102896535D01*
X106280130Y-102693580D01*
X106200941Y-102502402D01*
X106085977Y-102330345D01*
X105939655Y-102184023D01*
X105767598Y-102069059D01*
X105767599Y-102069059D01*
X105767597Y-102069058D01*
X105576418Y-101989869D01*
X105373467Y-101949500D01*
X105373465Y-101949500D01*
X105166535Y-101949500D01*
X105166532Y-101949500D01*
X104963581Y-101989869D01*
X104772402Y-102069058D01*
X104600348Y-102184020D01*
X104454020Y-102330348D01*
X104339058Y-102502402D01*
X104259869Y-102693581D01*
X104219500Y-102896532D01*
X100700000Y-102896532D01*
X100700000Y-100799000D01*
X100718907Y-100740809D01*
X100768407Y-100704845D01*
X100799000Y-100700000D01*
X107201000Y-100700000D01*
X107259191Y-100718907D01*
G37*
%TD.AperFunction*%
%TD*%
M02*
