%TF.GenerationSoftware,KiCad,Pcbnew,10.0.5*%
%TF.CreationDate,2026-08-07T22:02:48-05:00*%
%TF.ProjectId,capsule-board,63617073-756c-4652-9d62-6f6172642e6b,rev?*%
%TF.SameCoordinates,Original*%
%TF.FileFunction,Other,User*%
%FSLAX46Y46*%
G04 Gerber Fmt 4.6, Leading zero omitted, Abs format (unit mm)*
G04 Created by KiCad (PCBNEW 10.0.5) date 2026-08-07 22:02:48*
%MOMM*%
%LPD*%
G01*
G04 APERTURE LIST*
%ADD10C,0.050000*%
G04 APERTURE END LIST*
%TO.C,R1*%
D10*
X100920000Y-127070000D02*
X103880000Y-127070000D01*
X103880000Y-128530000D01*
X100920000Y-128530000D01*
X100920000Y-127070000D01*
%TO.C,R6*%
X100920000Y-123870000D02*
X103880000Y-123870000D01*
X103880000Y-125330000D01*
X100920000Y-125330000D01*
X100920000Y-123870000D01*
%TO.C,J1*%
X100300000Y-144300000D02*
X107700000Y-144300000D01*
X107700000Y-147300000D01*
X100300000Y-147300000D01*
X100300000Y-144300000D01*
%TO.C,R10*%
X104120000Y-142270000D02*
X107080000Y-142270000D01*
X107080000Y-143730000D01*
X104120000Y-143730000D01*
X104120000Y-142270000D01*
%TO.C,C3*%
X100650000Y-130020000D02*
X104050000Y-130020000D01*
X104050000Y-131980000D01*
X100650000Y-131980000D01*
X100650000Y-130020000D01*
%TO.C,R4*%
X104120000Y-133470000D02*
X107080000Y-133470000D01*
X107080000Y-134930000D01*
X104120000Y-134930000D01*
X104120000Y-133470000D01*
%TO.C,TP2*%
X107150000Y-127800000D02*
G75*
G02*
X104650000Y-127800000I-1250000J0D01*
G01*
X104650000Y-127800000D02*
G75*
G02*
X107150000Y-127800000I1250000J0D01*
G01*
%TO.C,TP3*%
X103350000Y-109100000D02*
G75*
G02*
X100850000Y-109100000I-1250000J0D01*
G01*
X100850000Y-109100000D02*
G75*
G02*
X103350000Y-109100000I1250000J0D01*
G01*
%TO.C,TP4*%
X103350000Y-140700000D02*
G75*
G02*
X100850000Y-140700000I-1250000J0D01*
G01*
X100850000Y-140700000D02*
G75*
G02*
X103350000Y-140700000I1250000J0D01*
G01*
%TO.C,FB1*%
X100920000Y-142270000D02*
X103880000Y-142270000D01*
X103880000Y-143730000D01*
X100920000Y-143730000D01*
X100920000Y-142270000D01*
%TO.C,C4*%
X104170000Y-130270000D02*
X107130000Y-130270000D01*
X107130000Y-131730000D01*
X104170000Y-131730000D01*
X104170000Y-130270000D01*
%TO.C,C7*%
X104170000Y-136670000D02*
X107130000Y-136670000D01*
X107130000Y-138130000D01*
X104170000Y-138130000D01*
X104170000Y-136670000D01*
%TO.C,R3*%
X100920000Y-133470000D02*
X103880000Y-133470000D01*
X103880000Y-134930000D01*
X100920000Y-134930000D01*
X100920000Y-133470000D01*
%TO.C,C2*%
X100870000Y-117470000D02*
X103830000Y-117470000D01*
X103830000Y-118930000D01*
X100870000Y-118930000D01*
X100870000Y-117470000D01*
%TO.C,C5*%
X104000000Y-105220000D02*
X107400000Y-105220000D01*
X107400000Y-107180000D01*
X104000000Y-107180000D01*
X104000000Y-105220000D01*
%TO.C,TP1*%
X107150000Y-140700000D02*
G75*
G02*
X104650000Y-140700000I-1250000J0D01*
G01*
X104650000Y-140700000D02*
G75*
G02*
X107150000Y-140700000I1250000J0D01*
G01*
%TO.C,R2*%
X104120000Y-108670000D02*
X107080000Y-108670000D01*
X107080000Y-110130000D01*
X104120000Y-110130000D01*
X104120000Y-108670000D01*
%TO.C,C6*%
X100650000Y-136420000D02*
X104050000Y-136420000D01*
X104050000Y-138380000D01*
X100650000Y-138380000D01*
X100650000Y-136420000D01*
%TO.C,MK1*%
X101600000Y-101700000D02*
X106400000Y-101700000D01*
X106400000Y-104300000D01*
X101600000Y-104300000D01*
X101600000Y-101700000D01*
%TO.C,U1*%
X102250000Y-112050000D02*
X102570000Y-112050000D01*
X102250000Y-115550000D02*
X102250000Y-112050000D01*
X102570000Y-110620000D02*
X105430000Y-110620000D01*
X102570000Y-112050000D02*
X102570000Y-110620000D01*
X102570000Y-115550000D02*
X102250000Y-115550000D01*
X102570000Y-116980000D02*
X102570000Y-115550000D01*
X105430000Y-110620000D02*
X105430000Y-112050000D01*
X105430000Y-112050000D02*
X105750000Y-112050000D01*
X105430000Y-115550000D02*
X105430000Y-116980000D01*
X105430000Y-116980000D02*
X102570000Y-116980000D01*
X105750000Y-112050000D02*
X105750000Y-115550000D01*
X105750000Y-115550000D02*
X105430000Y-115550000D01*
%TO.C,C1*%
X104000000Y-117220000D02*
X107400000Y-117220000D01*
X107400000Y-119180000D01*
X104000000Y-119180000D01*
X104000000Y-117220000D01*
%TO.C,R5*%
X100870000Y-105470000D02*
X103830000Y-105470000D01*
X103830000Y-106930000D01*
X100870000Y-106930000D01*
X100870000Y-105470000D01*
%TO.C,R7*%
X100920000Y-120670000D02*
X103880000Y-120670000D01*
X103880000Y-122130000D01*
X100920000Y-122130000D01*
X100920000Y-120670000D01*
%TO.C,R9*%
X104120000Y-123870000D02*
X107080000Y-123870000D01*
X107080000Y-125330000D01*
X104120000Y-125330000D01*
X104120000Y-123870000D01*
%TO.C,R8*%
X104120000Y-120670000D02*
X107080000Y-120670000D01*
X107080000Y-122130000D01*
X104120000Y-122130000D01*
X104120000Y-120670000D01*
%TD*%
M02*
