%TF.GenerationSoftware,KiCad,Pcbnew,10.0.5*%
%TF.CreationDate,2026-08-07T22:02:48-05:00*%
%TF.ProjectId,capsule-board,63617073-756c-4652-9d62-6f6172642e6b,rev?*%
%TF.SameCoordinates,Original*%
%TF.FileFunction,Copper,L1,Top*%
%TF.FilePolarity,Positive*%
%FSLAX46Y46*%
G04 Gerber Fmt 4.6, Leading zero omitted, Abs format (unit mm)*
G04 Created by KiCad (PCBNEW 10.0.5) date 2026-08-07 22:02:48*
%MOMM*%
%LPD*%
G01*
G04 APERTURE LIST*
G04 Aperture macros list*
%AMRoundRect*
0 Rectangle with rounded corners*
0 $1 Rounding radius*
0 $2 $3 $4 $5 $6 $7 $8 $9 X,Y pos of 4 corners*
0 Add a 4 corners polygon primitive as box body*
4,1,4,$2,$3,$4,$5,$6,$7,$8,$9,$2,$3,0*
0 Add four circle primitives for the rounded corners*
1,1,$1+$1,$2,$3*
1,1,$1+$1,$4,$5*
1,1,$1+$1,$6,$7*
1,1,$1+$1,$8,$9*
0 Add four rect primitives between the rounded corners*
20,1,$1+$1,$2,$3,$4,$5,0*
20,1,$1+$1,$4,$5,$6,$7,0*
20,1,$1+$1,$6,$7,$8,$9,0*
20,1,$1+$1,$8,$9,$2,$3,0*%
G04 Aperture macros list end*
%TA.AperFunction,SMDPad,CuDef*%
%ADD10RoundRect,0.200000X-0.200000X-0.275000X0.200000X-0.275000X0.200000X0.275000X-0.200000X0.275000X0*%
%TD*%
%TA.AperFunction,SMDPad,CuDef*%
%ADD11RoundRect,0.225000X-0.225000X-1.025000X0.225000X-1.025000X0.225000X1.025000X-0.225000X1.025000X0*%
%TD*%
%TA.AperFunction,SMDPad,CuDef*%
%ADD12RoundRect,0.250000X-0.250000X-0.475000X0.250000X-0.475000X0.250000X0.475000X-0.250000X0.475000X0*%
%TD*%
%TA.AperFunction,SMDPad,CuDef*%
%ADD13C,1.500000*%
%TD*%
%TA.AperFunction,SMDPad,CuDef*%
%ADD14RoundRect,0.218750X-0.218750X-0.256250X0.218750X-0.256250X0.218750X0.256250X-0.218750X0.256250X0*%
%TD*%
%TA.AperFunction,SMDPad,CuDef*%
%ADD15RoundRect,0.225000X-0.225000X-0.250000X0.225000X-0.250000X0.225000X0.250000X-0.225000X0.250000X0*%
%TD*%
%TA.AperFunction,ComponentPad*%
%ADD16C,1.600000*%
%TD*%
%TA.AperFunction,SMDPad,CuDef*%
%ADD17RoundRect,0.100000X0.100000X-0.712500X0.100000X0.712500X-0.100000X0.712500X-0.100000X-0.712500X0*%
%TD*%
%TA.AperFunction,ViaPad*%
%ADD18C,0.600000*%
%TD*%
%TA.AperFunction,Conductor*%
%ADD19C,0.200000*%
%TD*%
G04 APERTURE END LIST*
D10*
%TO.P,R1,1*%
%TO.N,/V5*%
X101575000Y-127800000D03*
%TO.P,R1,2*%
%TO.N,/VBIAS*%
X103225000Y-127800000D03*
%TD*%
%TO.P,R6,1*%
%TO.N,/OUT_A*%
X101575000Y-124600000D03*
%TO.P,R6,2*%
%TO.N,/HOT*%
X103225000Y-124600000D03*
%TD*%
D11*
%TO.P,J1,1*%
%TO.N,/+5V_IN*%
X101000000Y-145800000D03*
%TO.P,J1,2*%
%TO.N,/AGND*%
X102500000Y-145800000D03*
%TO.P,J1,3*%
%TO.N,/HOT*%
X104000000Y-145800000D03*
%TO.P,J1,4*%
%TO.N,/COLD*%
X105500000Y-145800000D03*
%TO.P,J1,5*%
%TO.N,/SHIELD*%
X107000000Y-145800000D03*
%TD*%
D10*
%TO.P,R10,1*%
%TO.N,/SHIELD*%
X104775000Y-143000000D03*
%TO.P,R10,2*%
%TO.N,/AGND*%
X106425000Y-143000000D03*
%TD*%
D12*
%TO.P,C3,1*%
%TO.N,/VBIAS*%
X101400000Y-131000000D03*
%TO.P,C3,2*%
%TO.N,/AGND*%
X103300000Y-131000000D03*
%TD*%
D10*
%TO.P,R4,1*%
%TO.N,/VREF*%
X104775000Y-134200000D03*
%TO.P,R4,2*%
%TO.N,/AGND*%
X106425000Y-134200000D03*
%TD*%
D13*
%TO.P,TP2,1*%
%TO.N,/VBIAS*%
X105900000Y-127800000D03*
%TD*%
%TO.P,TP3,1*%
%TO.N,/MIC_D*%
X102100000Y-109100000D03*
%TD*%
%TO.P,TP4,1*%
%TO.N,/VREF*%
X102100000Y-140700000D03*
%TD*%
D14*
%TO.P,FB1,1*%
%TO.N,/+5V_IN*%
X101612500Y-143000000D03*
%TO.P,FB1,2*%
%TO.N,/V5*%
X103187500Y-143000000D03*
%TD*%
D15*
%TO.P,C4,1*%
%TO.N,/VBIAS*%
X104875000Y-131000000D03*
%TO.P,C4,2*%
%TO.N,/AGND*%
X106425000Y-131000000D03*
%TD*%
%TO.P,C7,1*%
%TO.N,/VREF*%
X104875000Y-137400000D03*
%TO.P,C7,2*%
%TO.N,/AGND*%
X106425000Y-137400000D03*
%TD*%
D10*
%TO.P,R3,1*%
%TO.N,/V5*%
X101575000Y-134200000D03*
%TO.P,R3,2*%
%TO.N,/VREF*%
X103225000Y-134200000D03*
%TD*%
D15*
%TO.P,C2,1*%
%TO.N,/V5*%
X101575000Y-118200000D03*
%TO.P,C2,2*%
%TO.N,/AGND*%
X103125000Y-118200000D03*
%TD*%
D12*
%TO.P,C5,1*%
%TO.N,/MIC_D*%
X104750000Y-106200000D03*
%TO.P,C5,2*%
%TO.N,/SIG*%
X106650000Y-106200000D03*
%TD*%
D13*
%TO.P,TP1,1*%
%TO.N,/V5*%
X105900000Y-140700000D03*
%TD*%
D10*
%TO.P,R2,1*%
%TO.N,/SIG*%
X104775000Y-109400000D03*
%TO.P,R2,2*%
%TO.N,/VREF*%
X106425000Y-109400000D03*
%TD*%
D12*
%TO.P,C6,1*%
%TO.N,/VREF*%
X101400000Y-137400000D03*
%TO.P,C6,2*%
%TO.N,/AGND*%
X103300000Y-137400000D03*
%TD*%
D16*
%TO.P,MK1,1*%
%TO.N,/AGND*%
X102730000Y-103000000D03*
%TO.P,MK1,2*%
%TO.N,/MIC_D*%
X105270000Y-103000000D03*
%TD*%
D17*
%TO.P,U1,1*%
%TO.N,/OUT_A*%
X103025000Y-115912500D03*
%TO.P,U1,2*%
X103675000Y-115912500D03*
%TO.P,U1,3*%
%TO.N,/SIG*%
X104325000Y-115912500D03*
%TO.P,U1,4*%
%TO.N,/AGND*%
X104975000Y-115912500D03*
%TO.P,U1,5*%
%TO.N,/VREF*%
X104975000Y-111687500D03*
%TO.P,U1,6*%
%TO.N,/INV_IN*%
X104325000Y-111687500D03*
%TO.P,U1,7*%
%TO.N,/OUT_B*%
X103675000Y-111687500D03*
%TO.P,U1,8*%
%TO.N,/V5*%
X103025000Y-111687500D03*
%TD*%
D12*
%TO.P,C1,1*%
%TO.N,/V5*%
X104750000Y-118200000D03*
%TO.P,C1,2*%
%TO.N,/AGND*%
X106650000Y-118200000D03*
%TD*%
D10*
%TO.P,R5,1*%
%TO.N,/VBIAS*%
X101525000Y-106200000D03*
%TO.P,R5,2*%
%TO.N,/MIC_D*%
X103175000Y-106200000D03*
%TD*%
%TO.P,R7,1*%
%TO.N,/OUT_A*%
X101575000Y-121400000D03*
%TO.P,R7,2*%
%TO.N,/INV_IN*%
X103225000Y-121400000D03*
%TD*%
%TO.P,R9,1*%
%TO.N,/OUT_B*%
X104775000Y-124600000D03*
%TO.P,R9,2*%
%TO.N,/COLD*%
X106425000Y-124600000D03*
%TD*%
%TO.P,R8,1*%
%TO.N,/INV_IN*%
X104775000Y-121400000D03*
%TO.P,R8,2*%
%TO.N,/OUT_B*%
X106425000Y-121400000D03*
%TD*%
D18*
%TO.N,/V5*%
X100680000Y-141264700D03*
X106097900Y-139240200D03*
%TO.N,/VBIAS*%
X101321700Y-107512900D03*
X102853900Y-126370900D03*
%TO.N,/OUT_A*%
X102153100Y-115495100D03*
X101536300Y-123355400D03*
%TO.N,/HOT*%
X103174400Y-144062100D03*
X103503800Y-123353200D03*
%TO.N,/AGND*%
X103700000Y-119700000D03*
X105950000Y-142200000D03*
X101700000Y-110700000D03*
X102450000Y-104200000D03*
X106200000Y-125950000D03*
X104200000Y-107700000D03*
X104450000Y-127700000D03*
X100700000Y-125700000D03*
X102700000Y-132199999D03*
X101450000Y-135450000D03*
X107200000Y-107950000D03*
X105200000Y-100700000D03*
X102950000Y-100700000D03*
X107200000Y-138950000D03*
X100700000Y-114700000D03*
X100700000Y-122450000D03*
X100700000Y-112450000D03*
X104950000Y-138450000D03*
X100700000Y-108950000D03*
X106200000Y-122700000D03*
X104200000Y-125700000D03*
X106950000Y-143950000D03*
X106700000Y-102950000D03*
X101450000Y-128949999D03*
X100700000Y-100700000D03*
X106200000Y-113450000D03*
X100950000Y-102700000D03*
X103700000Y-122450000D03*
X105950000Y-129199999D03*
X100700000Y-116950000D03*
X107200000Y-100950000D03*
X100700000Y-119450000D03*
X102200000Y-144200000D03*
X105950000Y-135200000D03*
X102700000Y-138450000D03*
X104450000Y-104450000D03*
X102200000Y-107450000D03*
X106200000Y-131949999D03*
%TO.N,/VREF*%
X105999900Y-111660100D03*
X104486200Y-132725100D03*
%TO.N,/INV_IN*%
X104535900Y-113163000D03*
X105740200Y-115494000D03*
%TO.N,/OUT_B*%
X103855800Y-110211800D03*
X106213500Y-120335600D03*
%TD*%
%TO.N,/V5*%
D19*
X101501400Y-118126400D02*
X101575000Y-118200000D01*
X102348400Y-125954800D02*
X101575000Y-126728200D01*
X102413200Y-117361800D02*
X101575000Y-118200000D01*
X103911800Y-117361800D02*
X102413200Y-117361800D01*
X100547300Y-140712000D02*
X100547300Y-135227700D01*
X103187500Y-143000000D02*
X102174600Y-141987100D01*
X102174600Y-141987100D02*
X101822400Y-141987100D01*
X101822400Y-141987100D02*
X100890000Y-141054700D01*
X100890000Y-141054700D02*
X100680000Y-141264700D01*
X102348400Y-118973400D02*
X102348400Y-125954800D01*
X100547300Y-133172300D02*
X101575000Y-134200000D01*
X103025000Y-111687500D02*
X101501400Y-113211100D01*
X101501400Y-113211100D02*
X101501400Y-118126400D01*
X100547300Y-135227700D02*
X101575000Y-134200000D01*
X101575000Y-118200000D02*
X102348400Y-118973400D01*
X106097900Y-140502100D02*
X105900000Y-140700000D01*
X101575000Y-126728200D02*
X101575000Y-127800000D01*
X101575000Y-127800000D02*
X100547300Y-128827700D01*
X106097900Y-139240200D02*
X106097900Y-140502100D01*
X104750000Y-118200000D02*
X103911800Y-117361800D01*
X100890000Y-141054700D02*
X100547300Y-140712000D01*
X100547300Y-128827700D02*
X100547300Y-133172300D01*
%TO.N,/VBIAS*%
X104875000Y-128825000D02*
X104875000Y-131000000D01*
X103225000Y-129175000D02*
X103225000Y-127800000D01*
X103225000Y-126742000D02*
X102853900Y-126370900D01*
X101400000Y-131000000D02*
X103225000Y-129175000D01*
X101525000Y-107309600D02*
X101525000Y-106200000D01*
X101321700Y-107512900D02*
X101525000Y-107309600D01*
X103225000Y-127800000D02*
X103225000Y-126742000D01*
X104250000Y-128825000D02*
X104875000Y-128825000D01*
X105900000Y-127800000D02*
X104875000Y-128825000D01*
X103225000Y-127800000D02*
X104250000Y-128825000D01*
%TO.N,/OUT_A*%
X101575000Y-124600000D02*
X101575000Y-123355400D01*
X101575000Y-123355400D02*
X101575000Y-121400000D01*
X103025000Y-115912500D02*
X102607600Y-115495100D01*
X103675000Y-115912500D02*
X103025000Y-115912500D01*
X101575000Y-123355400D02*
X101536300Y-123355400D01*
X102607600Y-115495100D02*
X102153100Y-115495100D01*
%TO.N,/HOT*%
X103225000Y-123632000D02*
X103225000Y-124600000D01*
X104000000Y-144887700D02*
X103174400Y-144062100D01*
X104000000Y-145800000D02*
X104000000Y-144887700D01*
X103503800Y-123353200D02*
X103225000Y-123632000D01*
%TO.N,/+5V_IN*%
X101000000Y-145800000D02*
X101000000Y-143612500D01*
X101000000Y-143612500D02*
X101612500Y-143000000D01*
%TO.N,/COLD*%
X103984900Y-143561700D02*
X105500000Y-145076800D01*
X105828000Y-138588500D02*
X103984900Y-140431600D01*
X103984900Y-140431600D02*
X103984900Y-143561700D01*
X105500000Y-145076800D02*
X105500000Y-145800000D01*
X107228100Y-137890000D02*
X106529600Y-138588500D01*
X107228100Y-125403100D02*
X107228100Y-137890000D01*
X106529600Y-138588500D02*
X105828000Y-138588500D01*
X106425000Y-124600000D02*
X107228100Y-125403100D01*
%TO.N,/SHIELD*%
X107000000Y-145225000D02*
X107000000Y-145800000D01*
X104775000Y-143000000D02*
X107000000Y-145225000D01*
%TO.N,/VREF*%
X105606700Y-111055700D02*
X105999900Y-111448900D01*
X105999900Y-111448900D02*
X105999900Y-111660100D01*
X103225000Y-135575000D02*
X101400000Y-137400000D01*
X104975000Y-111687500D02*
X105606600Y-111055900D01*
X101400000Y-137400000D02*
X101400000Y-140000000D01*
X104775000Y-137300000D02*
X104775000Y-134200000D01*
X105606600Y-111055900D02*
X105606600Y-111055700D01*
X106425000Y-109400000D02*
X106425000Y-110237400D01*
X104875000Y-137400000D02*
X104775000Y-137300000D01*
X101400000Y-140000000D02*
X102100000Y-140700000D01*
X103225000Y-134200000D02*
X103225000Y-135575000D01*
X105606600Y-111055700D02*
X105606700Y-111055700D01*
X106425000Y-110237400D02*
X105606700Y-111055700D01*
X103225000Y-134200000D02*
X104775000Y-134200000D01*
X104486200Y-132725100D02*
X104775000Y-133013900D01*
X104775000Y-133013900D02*
X104775000Y-134200000D01*
%TO.N,/MIC_D*%
X103175000Y-108025000D02*
X102100000Y-109100000D01*
X105270000Y-105680000D02*
X104750000Y-106200000D01*
X103175000Y-106200000D02*
X104750000Y-106200000D01*
X103175000Y-106200000D02*
X103175000Y-108025000D01*
X105270000Y-103000000D02*
X105270000Y-105680000D01*
%TO.N,/SIG*%
X106237300Y-107937700D02*
X104775000Y-109400000D01*
X106650000Y-106200000D02*
X106650000Y-107525000D01*
X106650000Y-107525000D02*
X106237300Y-107937700D01*
X104325000Y-114295600D02*
X107196800Y-111423800D01*
X107196800Y-108897200D02*
X106237300Y-107937700D01*
X107196800Y-111423800D02*
X107196800Y-108897200D01*
X104325000Y-115912500D02*
X104325000Y-114295600D01*
%TO.N,/INV_IN*%
X104775000Y-121400000D02*
X103225000Y-121400000D01*
X104535900Y-113163000D02*
X104325000Y-112952100D01*
X104775000Y-120302400D02*
X104775000Y-121400000D01*
X105740200Y-119337200D02*
X104775000Y-120302400D01*
X105740200Y-115494000D02*
X105740200Y-119337200D01*
X104325000Y-112952100D02*
X104325000Y-111687500D01*
%TO.N,/OUT_B*%
X106213500Y-120335600D02*
X106213500Y-121188500D01*
X103675000Y-111687500D02*
X103675000Y-110392600D01*
X106213500Y-121188500D02*
X106425000Y-121400000D01*
X104775000Y-124600000D02*
X104775000Y-123050000D01*
X104775000Y-123050000D02*
X106425000Y-121400000D01*
X103675000Y-110392600D02*
X103855800Y-110211800D01*
%TD*%
%TA.AperFunction,Conductor*%
%TO.N,/AGND*%
G36*
X102469504Y-142777686D02*
G01*
X102470504Y-142778686D01*
X102498281Y-142833203D01*
X102499500Y-142848690D01*
X102499500Y-143301126D01*
X102499499Y-143301126D01*
X102505508Y-143357016D01*
X102505510Y-143357027D01*
X102552662Y-143483448D01*
X102614726Y-143566356D01*
X102633528Y-143591472D01*
X102633531Y-143591474D01*
X102633532Y-143591475D01*
X102686721Y-143631292D01*
X102721974Y-143681300D01*
X102721100Y-143742479D01*
X102713129Y-143760045D01*
X102661416Y-143849613D01*
X102623900Y-143989625D01*
X102623900Y-144134574D01*
X102661417Y-144274589D01*
X102733887Y-144400110D01*
X102733889Y-144400112D01*
X102733891Y-144400115D01*
X102836385Y-144502609D01*
X102836387Y-144502610D01*
X102836389Y-144502612D01*
X102961911Y-144575082D01*
X102961912Y-144575082D01*
X102961915Y-144575084D01*
X103101925Y-144612600D01*
X103188210Y-144612600D01*
X103246401Y-144631507D01*
X103258214Y-144641596D01*
X103270655Y-144654037D01*
X103298432Y-144708554D01*
X103299382Y-144726864D01*
X103299500Y-144726864D01*
X103299500Y-144729136D01*
X103299510Y-144729329D01*
X103299500Y-144729515D01*
X103299500Y-146870478D01*
X103299501Y-146870484D01*
X103305587Y-146927111D01*
X103305587Y-146927112D01*
X103305588Y-146927114D01*
X103353372Y-147055226D01*
X103383570Y-147095566D01*
X103418084Y-147141672D01*
X103437820Y-147199587D01*
X103419745Y-147258042D01*
X103370764Y-147294708D01*
X103338830Y-147300000D01*
X101661170Y-147300000D01*
X101602979Y-147281093D01*
X101567015Y-147231593D01*
X101567015Y-147170407D01*
X101581916Y-147141672D01*
X101605448Y-147110236D01*
X101646628Y-147055226D01*
X101694412Y-146927114D01*
X101700500Y-146870485D01*
X101700499Y-144729516D01*
X101694412Y-144672886D01*
X101646628Y-144544774D01*
X101564687Y-144435313D01*
X101517661Y-144400110D01*
X101455228Y-144353373D01*
X101455224Y-144353371D01*
X101414900Y-144338330D01*
X101366987Y-144300278D01*
X101350500Y-144245573D01*
X101350500Y-143824500D01*
X101369407Y-143766309D01*
X101418907Y-143730345D01*
X101449500Y-143725500D01*
X101876126Y-143725500D01*
X101876130Y-143725500D01*
X101932022Y-143719491D01*
X102007257Y-143691430D01*
X102058448Y-143672337D01*
X102058448Y-143672336D01*
X102058450Y-143672336D01*
X102166472Y-143591472D01*
X102247336Y-143483450D01*
X102294491Y-143357022D01*
X102300500Y-143301130D01*
X102300500Y-142847690D01*
X102319407Y-142789499D01*
X102368907Y-142753535D01*
X102430093Y-142753535D01*
X102469504Y-142777686D01*
G37*
%TD.AperFunction*%
%TA.AperFunction,Conductor*%
G36*
X107245945Y-138464579D02*
G01*
X107289210Y-138507844D01*
X107300000Y-138552789D01*
X107300000Y-144200500D01*
X107281093Y-144258691D01*
X107231593Y-144294655D01*
X107201000Y-144299500D01*
X106729521Y-144299500D01*
X106729515Y-144299501D01*
X106672886Y-144305588D01*
X106672878Y-144305590D01*
X106662122Y-144309601D01*
X106600992Y-144312218D01*
X106557527Y-144286845D01*
X105454496Y-143183814D01*
X105426719Y-143129297D01*
X105425500Y-143113810D01*
X105425500Y-142670727D01*
X105425499Y-142670725D01*
X105422646Y-142640301D01*
X105377793Y-142512118D01*
X105301338Y-142408525D01*
X105297154Y-142402855D01*
X105297152Y-142402853D01*
X105297150Y-142402850D01*
X105297146Y-142402847D01*
X105297144Y-142402845D01*
X105187883Y-142322207D01*
X105059703Y-142277355D01*
X105059694Y-142277353D01*
X105029274Y-142274500D01*
X105029266Y-142274500D01*
X104520734Y-142274500D01*
X104520725Y-142274500D01*
X104490305Y-142277353D01*
X104490298Y-142277354D01*
X104467096Y-142285473D01*
X104405926Y-142286845D01*
X104355632Y-142252000D01*
X104335425Y-142194247D01*
X104335400Y-142192028D01*
X104335400Y-140617789D01*
X104354307Y-140559598D01*
X104364390Y-140547791D01*
X104961630Y-139950551D01*
X105016144Y-139922776D01*
X105076576Y-139932347D01*
X105119841Y-139975612D01*
X105129412Y-140036044D01*
X105113947Y-140075558D01*
X105013366Y-140226088D01*
X104937949Y-140408163D01*
X104937949Y-140408165D01*
X104899500Y-140601456D01*
X104899500Y-140798543D01*
X104937949Y-140991834D01*
X104937949Y-140991836D01*
X105013367Y-141173913D01*
X105013368Y-141173914D01*
X105122861Y-141337782D01*
X105262218Y-141477139D01*
X105426086Y-141586632D01*
X105608165Y-141662051D01*
X105801459Y-141700500D01*
X105801460Y-141700500D01*
X105998540Y-141700500D01*
X105998541Y-141700500D01*
X106191835Y-141662051D01*
X106373914Y-141586632D01*
X106537782Y-141477139D01*
X106677139Y-141337782D01*
X106786632Y-141173914D01*
X106862051Y-140991835D01*
X106900500Y-140798541D01*
X106900500Y-140601459D01*
X106862051Y-140408165D01*
X106786632Y-140226086D01*
X106677139Y-140062218D01*
X106537782Y-139922861D01*
X106492397Y-139892535D01*
X106454518Y-139844484D01*
X106448400Y-139810220D01*
X106448400Y-139709231D01*
X106467307Y-139651040D01*
X106477390Y-139639233D01*
X106538409Y-139578215D01*
X106610884Y-139452685D01*
X106648400Y-139312675D01*
X106648400Y-139167725D01*
X106611592Y-139030357D01*
X106614794Y-138969258D01*
X106653299Y-138921708D01*
X106659361Y-138918520D01*
X106659268Y-138918358D01*
X106664886Y-138915114D01*
X106664888Y-138915114D01*
X106667535Y-138913586D01*
X106744812Y-138868970D01*
X107130998Y-138482783D01*
X107185513Y-138455008D01*
X107245945Y-138464579D01*
G37*
%TD.AperFunction*%
%TA.AperFunction,Conductor*%
G36*
X106856346Y-128402839D02*
G01*
X106877524Y-128460242D01*
X106877600Y-128464129D01*
X106877600Y-137703810D01*
X106858693Y-137762001D01*
X106848604Y-137773814D01*
X106413414Y-138209004D01*
X106358897Y-138236781D01*
X106343410Y-138238000D01*
X105781856Y-138238000D01*
X105692712Y-138261886D01*
X105612788Y-138308030D01*
X103704429Y-140216389D01*
X103667432Y-140280468D01*
X103667433Y-140280469D01*
X103658286Y-140296310D01*
X103634400Y-140385457D01*
X103634400Y-142185488D01*
X103615493Y-142243679D01*
X103565993Y-142279643D01*
X103512634Y-142281835D01*
X103507022Y-142280509D01*
X103507013Y-142280508D01*
X103451130Y-142274500D01*
X103451126Y-142274500D01*
X102998690Y-142274500D01*
X102940499Y-142255593D01*
X102928687Y-142245504D01*
X102463650Y-141780468D01*
X102435872Y-141725951D01*
X102445443Y-141665519D01*
X102488708Y-141622254D01*
X102495737Y-141619013D01*
X102573914Y-141586632D01*
X102737782Y-141477139D01*
X102877139Y-141337782D01*
X102986632Y-141173914D01*
X103062051Y-140991835D01*
X103100500Y-140798541D01*
X103100500Y-140601459D01*
X103062051Y-140408165D01*
X102986632Y-140226086D01*
X102877139Y-140062218D01*
X102737782Y-139922861D01*
X102573914Y-139813368D01*
X102573915Y-139813368D01*
X102573913Y-139813367D01*
X102391835Y-139737949D01*
X102198543Y-139699500D01*
X102198541Y-139699500D01*
X102001459Y-139699500D01*
X102001456Y-139699500D01*
X101868814Y-139725885D01*
X101808053Y-139718693D01*
X101763123Y-139677161D01*
X101750500Y-139628787D01*
X101750500Y-138440432D01*
X101769407Y-138382241D01*
X101814902Y-138347674D01*
X101892331Y-138318796D01*
X102007546Y-138232546D01*
X102093796Y-138117331D01*
X102144091Y-137982483D01*
X102150500Y-137922873D01*
X102150499Y-137186188D01*
X102169406Y-137127998D01*
X102179489Y-137116191D01*
X103505470Y-135790212D01*
X103551614Y-135710288D01*
X103575500Y-135621143D01*
X103575500Y-135528856D01*
X103575500Y-134969865D01*
X103594407Y-134911674D01*
X103632448Y-134883381D01*
X103631326Y-134881258D01*
X103637879Y-134877793D01*
X103637882Y-134877793D01*
X103747150Y-134797150D01*
X103827793Y-134687882D01*
X103852665Y-134616802D01*
X103889730Y-134568122D01*
X103946109Y-134550500D01*
X104053891Y-134550500D01*
X104112082Y-134569407D01*
X104147335Y-134616802D01*
X104172207Y-134687883D01*
X104252845Y-134797144D01*
X104252847Y-134797146D01*
X104252850Y-134797150D01*
X104252853Y-134797152D01*
X104252855Y-134797154D01*
X104362116Y-134877792D01*
X104368674Y-134881258D01*
X104367490Y-134883498D01*
X104406871Y-134913476D01*
X104424500Y-134969865D01*
X104424500Y-136675278D01*
X104405593Y-136733469D01*
X104384828Y-136754532D01*
X104310316Y-136810310D01*
X104310311Y-136810315D01*
X104228373Y-136919771D01*
X104180587Y-137047887D01*
X104174500Y-137104518D01*
X104174500Y-137695478D01*
X104174501Y-137695484D01*
X104180587Y-137752111D01*
X104180587Y-137752112D01*
X104180588Y-137752114D01*
X104228372Y-137880226D01*
X104310313Y-137989687D01*
X104419774Y-138071628D01*
X104547886Y-138119412D01*
X104604515Y-138125500D01*
X105145484Y-138125499D01*
X105202114Y-138119412D01*
X105330226Y-138071628D01*
X105439687Y-137989687D01*
X105521628Y-137880226D01*
X105569412Y-137752114D01*
X105575500Y-137695485D01*
X105575499Y-137104516D01*
X105569412Y-137047886D01*
X105521628Y-136919774D01*
X105439687Y-136810313D01*
X105337035Y-136733469D01*
X105330228Y-136728373D01*
X105330226Y-136728372D01*
X105202114Y-136680588D01*
X105202112Y-136680587D01*
X105202110Y-136680587D01*
X105201725Y-136680496D01*
X105201501Y-136680359D01*
X105196311Y-136678424D01*
X105196681Y-136677429D01*
X105149445Y-136648709D01*
X105125833Y-136592263D01*
X105125500Y-136584151D01*
X105125500Y-134969865D01*
X105144407Y-134911674D01*
X105182448Y-134883381D01*
X105181326Y-134881258D01*
X105187879Y-134877793D01*
X105187882Y-134877793D01*
X105297150Y-134797150D01*
X105377793Y-134687882D01*
X105422646Y-134559699D01*
X105425499Y-134529273D01*
X105425500Y-134529273D01*
X105425500Y-133870727D01*
X105425499Y-133870725D01*
X105422646Y-133840301D01*
X105377793Y-133712118D01*
X105297150Y-133602850D01*
X105297146Y-133602847D01*
X105297144Y-133602845D01*
X105187885Y-133522208D01*
X105181324Y-133518741D01*
X105182507Y-133516502D01*
X105143118Y-133486508D01*
X105125500Y-133430134D01*
X105125500Y-132967757D01*
X105125500Y-132967756D01*
X105101614Y-132878612D01*
X105068814Y-132821801D01*
X105064614Y-132814527D01*
X105052225Y-132793066D01*
X105054021Y-132792028D01*
X105036734Y-132743215D01*
X105036700Y-132740620D01*
X105036700Y-132652625D01*
X104999184Y-132512615D01*
X104999182Y-132512612D01*
X104999182Y-132512610D01*
X104926712Y-132387089D01*
X104926710Y-132387087D01*
X104926709Y-132387085D01*
X104824215Y-132284591D01*
X104824212Y-132284589D01*
X104824210Y-132284587D01*
X104698688Y-132212117D01*
X104698689Y-132212117D01*
X104669096Y-132204187D01*
X104558675Y-132174600D01*
X104413725Y-132174600D01*
X104351990Y-132191141D01*
X104273710Y-132212117D01*
X104148189Y-132284587D01*
X104045687Y-132387089D01*
X103973217Y-132512610D01*
X103973216Y-132512615D01*
X103935700Y-132652625D01*
X103935700Y-132797575D01*
X103942192Y-132821802D01*
X103973217Y-132937589D01*
X104045687Y-133063110D01*
X104045689Y-133063112D01*
X104045691Y-133063115D01*
X104148185Y-133165609D01*
X104148187Y-133165610D01*
X104148189Y-133165612D01*
X104273711Y-133238082D01*
X104273712Y-133238082D01*
X104273715Y-133238084D01*
X104351124Y-133258826D01*
X104402438Y-133292149D01*
X104424364Y-133349271D01*
X104424500Y-133354452D01*
X104424500Y-133430134D01*
X104405593Y-133488325D01*
X104367554Y-133516619D01*
X104368676Y-133518741D01*
X104362114Y-133522208D01*
X104252855Y-133602845D01*
X104252845Y-133602855D01*
X104172207Y-133712116D01*
X104147335Y-133783198D01*
X104110270Y-133831878D01*
X104053891Y-133849500D01*
X103946109Y-133849500D01*
X103887918Y-133830593D01*
X103852665Y-133783198D01*
X103827792Y-133712116D01*
X103747154Y-133602855D01*
X103747152Y-133602853D01*
X103747150Y-133602850D01*
X103747146Y-133602847D01*
X103747144Y-133602845D01*
X103637883Y-133522207D01*
X103509703Y-133477355D01*
X103509694Y-133477353D01*
X103479274Y-133474500D01*
X103479266Y-133474500D01*
X102970734Y-133474500D01*
X102970725Y-133474500D01*
X102940305Y-133477353D01*
X102940296Y-133477355D01*
X102812116Y-133522207D01*
X102702855Y-133602845D01*
X102702845Y-133602855D01*
X102622207Y-133712116D01*
X102577355Y-133840296D01*
X102577353Y-133840305D01*
X102574500Y-133870725D01*
X102574500Y-134529274D01*
X102577353Y-134559694D01*
X102577355Y-134559703D01*
X102622207Y-134687883D01*
X102702845Y-134797144D01*
X102702847Y-134797146D01*
X102702850Y-134797150D01*
X102702853Y-134797152D01*
X102702855Y-134797154D01*
X102812116Y-134877792D01*
X102818674Y-134881258D01*
X102817490Y-134883498D01*
X102856871Y-134913476D01*
X102874500Y-134969865D01*
X102874500Y-135388809D01*
X102855593Y-135447000D01*
X102845504Y-135458813D01*
X101886904Y-136417412D01*
X101832387Y-136445189D01*
X101782303Y-136440166D01*
X101757483Y-136430909D01*
X101697873Y-136424500D01*
X101697870Y-136424500D01*
X101102133Y-136424500D01*
X101102129Y-136424500D01*
X101102128Y-136424501D01*
X101094949Y-136425272D01*
X101042519Y-136430908D01*
X101042516Y-136430909D01*
X101031392Y-136435058D01*
X100970263Y-136437675D01*
X100919270Y-136403862D01*
X100897891Y-136346533D01*
X100897800Y-136342298D01*
X100897800Y-135413889D01*
X100916707Y-135355698D01*
X100926796Y-135343885D01*
X101316185Y-134954496D01*
X101370702Y-134926719D01*
X101386189Y-134925500D01*
X101829273Y-134925500D01*
X101829273Y-134925499D01*
X101859699Y-134922646D01*
X101987882Y-134877793D01*
X102097150Y-134797150D01*
X102177793Y-134687882D01*
X102222646Y-134559699D01*
X102225499Y-134529273D01*
X102225500Y-134529273D01*
X102225500Y-133870727D01*
X102225499Y-133870725D01*
X102222646Y-133840301D01*
X102177793Y-133712118D01*
X102097150Y-133602850D01*
X102097146Y-133602847D01*
X102097144Y-133602845D01*
X101987883Y-133522207D01*
X101859703Y-133477355D01*
X101859694Y-133477353D01*
X101829274Y-133474500D01*
X101829266Y-133474500D01*
X101386188Y-133474500D01*
X101327997Y-133455593D01*
X101316184Y-133445503D01*
X100926796Y-133056114D01*
X100899019Y-133001598D01*
X100897800Y-132986111D01*
X100897800Y-132057701D01*
X100916707Y-131999510D01*
X100966207Y-131963546D01*
X101027393Y-131963546D01*
X101031375Y-131964935D01*
X101042517Y-131969091D01*
X101102127Y-131975500D01*
X101697872Y-131975499D01*
X101757483Y-131969091D01*
X101824907Y-131943943D01*
X101892329Y-131918797D01*
X101892329Y-131918796D01*
X101892331Y-131918796D01*
X102007546Y-131832546D01*
X102093796Y-131717331D01*
X102144091Y-131582483D01*
X102150500Y-131522873D01*
X102150499Y-130786188D01*
X102169406Y-130727998D01*
X102179489Y-130716191D01*
X103505470Y-129390212D01*
X103551614Y-129310288D01*
X103575500Y-129221143D01*
X103575500Y-129128856D01*
X103575500Y-128885189D01*
X103594407Y-128826998D01*
X103643907Y-128791034D01*
X103705093Y-128791034D01*
X103744501Y-128815183D01*
X104034788Y-129105470D01*
X104114712Y-129151614D01*
X104203856Y-129175500D01*
X104425500Y-129175500D01*
X104483691Y-129194407D01*
X104519655Y-129243907D01*
X104524500Y-129274500D01*
X104524500Y-130220573D01*
X104505593Y-130278764D01*
X104460100Y-130313330D01*
X104419775Y-130328371D01*
X104419771Y-130328373D01*
X104310315Y-130410311D01*
X104310311Y-130410315D01*
X104228373Y-130519771D01*
X104180587Y-130647887D01*
X104174500Y-130704518D01*
X104174500Y-131295478D01*
X104174501Y-131295484D01*
X104180587Y-131352111D01*
X104180587Y-131352112D01*
X104180588Y-131352114D01*
X104228372Y-131480226D01*
X104310313Y-131589687D01*
X104419774Y-131671628D01*
X104547886Y-131719412D01*
X104604515Y-131725500D01*
X105145484Y-131725499D01*
X105202114Y-131719412D01*
X105330226Y-131671628D01*
X105439687Y-131589687D01*
X105521628Y-131480226D01*
X105569412Y-131352114D01*
X105575500Y-131295485D01*
X105575499Y-130704516D01*
X105569412Y-130647886D01*
X105521628Y-130519774D01*
X105439687Y-130410313D01*
X105403476Y-130383206D01*
X105330228Y-130328373D01*
X105330224Y-130328371D01*
X105289900Y-130313330D01*
X105241987Y-130275278D01*
X105225500Y-130220573D01*
X105225500Y-129011188D01*
X105244407Y-128952997D01*
X105254490Y-128941191D01*
X105437976Y-128757704D01*
X105492491Y-128729928D01*
X105545863Y-128736245D01*
X105564454Y-128743945D01*
X105608165Y-128762051D01*
X105801459Y-128800500D01*
X105801460Y-128800500D01*
X105998540Y-128800500D01*
X105998541Y-128800500D01*
X106191835Y-128762051D01*
X106373914Y-128686632D01*
X106537782Y-128577139D01*
X106677139Y-128437782D01*
X106696286Y-128409126D01*
X106744334Y-128371248D01*
X106805472Y-128368846D01*
X106856346Y-128402839D01*
G37*
%TD.AperFunction*%
%TA.AperFunction,Conductor*%
G36*
X102318727Y-126576896D02*
G01*
X102359518Y-126615606D01*
X102413387Y-126708910D01*
X102413389Y-126708912D01*
X102413391Y-126708915D01*
X102515885Y-126811409D01*
X102515887Y-126811410D01*
X102515889Y-126811412D01*
X102641411Y-126883882D01*
X102641412Y-126883882D01*
X102641415Y-126883884D01*
X102781425Y-126921400D01*
X102781427Y-126921400D01*
X102787858Y-126922247D01*
X102787458Y-126925285D01*
X102833691Y-126940307D01*
X102869655Y-126989807D01*
X102874500Y-127020400D01*
X102874500Y-127030134D01*
X102855593Y-127088325D01*
X102817554Y-127116619D01*
X102818676Y-127118741D01*
X102812114Y-127122208D01*
X102702855Y-127202845D01*
X102702845Y-127202855D01*
X102622207Y-127312116D01*
X102577355Y-127440296D01*
X102577353Y-127440305D01*
X102574500Y-127470725D01*
X102574500Y-128129274D01*
X102577353Y-128159694D01*
X102577355Y-128159703D01*
X102622207Y-128287883D01*
X102702845Y-128397144D01*
X102702847Y-128397146D01*
X102702850Y-128397150D01*
X102702853Y-128397152D01*
X102702855Y-128397154D01*
X102812116Y-128477792D01*
X102818674Y-128481258D01*
X102817490Y-128483498D01*
X102856871Y-128513476D01*
X102874500Y-128569865D01*
X102874500Y-128988809D01*
X102855593Y-129047000D01*
X102845504Y-129058813D01*
X101886904Y-130017412D01*
X101832387Y-130045189D01*
X101782303Y-130040166D01*
X101757483Y-130030909D01*
X101697873Y-130024500D01*
X101697870Y-130024500D01*
X101102133Y-130024500D01*
X101102129Y-130024500D01*
X101102128Y-130024501D01*
X101094949Y-130025272D01*
X101042519Y-130030908D01*
X101042516Y-130030909D01*
X101031392Y-130035058D01*
X100970263Y-130037675D01*
X100919270Y-130003862D01*
X100897891Y-129946533D01*
X100897800Y-129942298D01*
X100897800Y-129013889D01*
X100916707Y-128955698D01*
X100926796Y-128943885D01*
X101316185Y-128554496D01*
X101370702Y-128526719D01*
X101386189Y-128525500D01*
X101829273Y-128525500D01*
X101829273Y-128525499D01*
X101859699Y-128522646D01*
X101987882Y-128477793D01*
X102097150Y-128397150D01*
X102177793Y-128287882D01*
X102222646Y-128159699D01*
X102225499Y-128129273D01*
X102225500Y-128129273D01*
X102225500Y-127470727D01*
X102225499Y-127470725D01*
X102222646Y-127440305D01*
X102222646Y-127440301D01*
X102177793Y-127312118D01*
X102097150Y-127202850D01*
X102097146Y-127202847D01*
X102097144Y-127202845D01*
X101987885Y-127122208D01*
X101981324Y-127118741D01*
X101982507Y-127116502D01*
X101943118Y-127086508D01*
X101925500Y-127030134D01*
X101925500Y-126914388D01*
X101944407Y-126856197D01*
X101954484Y-126844397D01*
X102203780Y-126595100D01*
X102258295Y-126567325D01*
X102318727Y-126576896D01*
G37*
%TD.AperFunction*%
%TA.AperFunction,Conductor*%
G36*
X107245945Y-111967080D02*
G01*
X107289210Y-112010345D01*
X107300000Y-112055290D01*
X107300000Y-124740310D01*
X107281093Y-124798501D01*
X107231593Y-124834465D01*
X107170407Y-124834465D01*
X107130996Y-124810314D01*
X107104496Y-124783814D01*
X107076719Y-124729297D01*
X107075500Y-124713810D01*
X107075500Y-124270727D01*
X107075499Y-124270725D01*
X107072646Y-124240305D01*
X107072646Y-124240301D01*
X107027793Y-124112118D01*
X106947150Y-124002850D01*
X106947146Y-124002847D01*
X106947144Y-124002845D01*
X106837883Y-123922207D01*
X106709703Y-123877355D01*
X106709694Y-123877353D01*
X106679274Y-123874500D01*
X106679266Y-123874500D01*
X106170734Y-123874500D01*
X106170725Y-123874500D01*
X106140305Y-123877353D01*
X106140296Y-123877355D01*
X106012116Y-123922207D01*
X105902855Y-124002845D01*
X105902845Y-124002855D01*
X105822207Y-124112116D01*
X105777355Y-124240296D01*
X105777353Y-124240305D01*
X105774500Y-124270725D01*
X105774500Y-124929274D01*
X105777353Y-124959694D01*
X105777355Y-124959703D01*
X105822207Y-125087883D01*
X105902845Y-125197144D01*
X105902847Y-125197146D01*
X105902850Y-125197150D01*
X105902853Y-125197152D01*
X105902855Y-125197154D01*
X106012116Y-125277792D01*
X106012117Y-125277792D01*
X106012118Y-125277793D01*
X106140301Y-125322646D01*
X106170725Y-125325499D01*
X106170727Y-125325500D01*
X106170734Y-125325500D01*
X106613810Y-125325500D01*
X106672001Y-125344407D01*
X106683814Y-125354496D01*
X106848604Y-125519286D01*
X106876381Y-125573803D01*
X106877600Y-125589290D01*
X106877600Y-127135870D01*
X106858693Y-127194061D01*
X106809193Y-127230025D01*
X106748007Y-127230025D01*
X106698507Y-127194061D01*
X106696285Y-127190872D01*
X106677139Y-127162218D01*
X106537785Y-127022864D01*
X106537782Y-127022861D01*
X106391749Y-126925285D01*
X106373913Y-126913367D01*
X106191835Y-126837949D01*
X105998543Y-126799500D01*
X105998541Y-126799500D01*
X105801459Y-126799500D01*
X105801456Y-126799500D01*
X105608165Y-126837949D01*
X105608163Y-126837949D01*
X105426086Y-126913367D01*
X105262218Y-127022861D01*
X105262214Y-127022864D01*
X105122864Y-127162214D01*
X105122861Y-127162218D01*
X105013367Y-127326086D01*
X104937949Y-127508163D01*
X104937949Y-127508165D01*
X104899500Y-127701456D01*
X104899500Y-127898543D01*
X104937949Y-128091834D01*
X104937949Y-128091836D01*
X104963754Y-128154135D01*
X104968554Y-128215132D01*
X104942294Y-128262023D01*
X104758815Y-128445503D01*
X104704298Y-128473281D01*
X104688811Y-128474500D01*
X104436190Y-128474500D01*
X104377999Y-128455593D01*
X104366186Y-128445504D01*
X103904496Y-127983814D01*
X103876719Y-127929297D01*
X103875500Y-127913810D01*
X103875500Y-127470727D01*
X103875499Y-127470725D01*
X103872646Y-127440305D01*
X103872646Y-127440301D01*
X103827793Y-127312118D01*
X103747150Y-127202850D01*
X103747146Y-127202847D01*
X103747144Y-127202845D01*
X103637885Y-127122208D01*
X103631324Y-127118741D01*
X103632507Y-127116502D01*
X103593118Y-127086508D01*
X103575500Y-127030134D01*
X103575500Y-126695857D01*
X103575500Y-126695856D01*
X103551614Y-126606712D01*
X103505470Y-126526788D01*
X103491670Y-126512988D01*
X103433396Y-126454713D01*
X103405619Y-126400196D01*
X103404400Y-126384710D01*
X103404400Y-126298425D01*
X103366884Y-126158415D01*
X103366882Y-126158412D01*
X103366882Y-126158410D01*
X103294412Y-126032889D01*
X103294410Y-126032887D01*
X103294409Y-126032885D01*
X103191915Y-125930391D01*
X103191912Y-125930389D01*
X103191910Y-125930387D01*
X103066388Y-125857917D01*
X103066389Y-125857917D01*
X103008897Y-125842512D01*
X102926375Y-125820400D01*
X102797900Y-125820400D01*
X102739709Y-125801493D01*
X102703745Y-125751993D01*
X102698900Y-125721400D01*
X102698900Y-125377703D01*
X102717807Y-125319512D01*
X102767307Y-125283548D01*
X102828493Y-125283548D01*
X102830564Y-125284247D01*
X102940301Y-125322646D01*
X102970725Y-125325499D01*
X102970727Y-125325500D01*
X102970734Y-125325500D01*
X103479273Y-125325500D01*
X103479273Y-125325499D01*
X103509699Y-125322646D01*
X103637882Y-125277793D01*
X103747150Y-125197150D01*
X103827793Y-125087882D01*
X103872646Y-124959699D01*
X103875499Y-124929273D01*
X103875500Y-124929273D01*
X103875500Y-124270727D01*
X103875499Y-124270725D01*
X103872646Y-124240305D01*
X103872646Y-124240301D01*
X103827793Y-124112118D01*
X103747150Y-124002850D01*
X103747146Y-124002847D01*
X103741903Y-123997604D01*
X103743935Y-123995571D01*
X103715774Y-123956201D01*
X103716226Y-123895018D01*
X103752555Y-123845785D01*
X103760642Y-123840573D01*
X103841815Y-123793709D01*
X103944309Y-123691215D01*
X104003849Y-123588089D01*
X104016782Y-123565689D01*
X104016782Y-123565687D01*
X104016784Y-123565685D01*
X104054300Y-123425675D01*
X104054300Y-123280725D01*
X104016784Y-123140715D01*
X104016782Y-123140712D01*
X104016782Y-123140710D01*
X103944312Y-123015189D01*
X103944310Y-123015187D01*
X103944309Y-123015185D01*
X103841815Y-122912691D01*
X103841812Y-122912689D01*
X103841810Y-122912687D01*
X103716288Y-122840217D01*
X103716289Y-122840217D01*
X103686696Y-122832287D01*
X103576275Y-122802700D01*
X103431325Y-122802700D01*
X103369590Y-122819241D01*
X103291310Y-122840217D01*
X103165789Y-122912687D01*
X103063287Y-123015189D01*
X102990817Y-123140710D01*
X102953300Y-123280725D01*
X102953300Y-123375071D01*
X102940037Y-123424569D01*
X102903134Y-123488488D01*
X102903133Y-123488488D01*
X102898386Y-123496711D01*
X102898385Y-123496713D01*
X102893526Y-123514849D01*
X102860202Y-123566163D01*
X102803080Y-123588089D01*
X102743980Y-123572253D01*
X102705475Y-123524703D01*
X102698900Y-123489225D01*
X102698900Y-122177703D01*
X102717807Y-122119512D01*
X102767307Y-122083548D01*
X102828493Y-122083548D01*
X102830564Y-122084247D01*
X102940301Y-122122646D01*
X102970725Y-122125499D01*
X102970727Y-122125500D01*
X102970734Y-122125500D01*
X103479273Y-122125500D01*
X103479273Y-122125499D01*
X103509699Y-122122646D01*
X103637882Y-122077793D01*
X103747150Y-121997150D01*
X103827793Y-121887882D01*
X103852665Y-121816802D01*
X103889730Y-121768122D01*
X103946109Y-121750500D01*
X104053891Y-121750500D01*
X104112082Y-121769407D01*
X104147335Y-121816802D01*
X104172207Y-121887883D01*
X104252845Y-121997144D01*
X104252847Y-121997146D01*
X104252850Y-121997150D01*
X104252853Y-121997152D01*
X104252855Y-121997154D01*
X104362116Y-122077792D01*
X104362117Y-122077792D01*
X104362118Y-122077793D01*
X104490301Y-122122646D01*
X104520725Y-122125499D01*
X104520727Y-122125500D01*
X104964811Y-122125500D01*
X105023002Y-122144407D01*
X105058966Y-122193907D01*
X105058966Y-122255093D01*
X105034816Y-122294501D01*
X104526618Y-122802700D01*
X104494528Y-122834790D01*
X104449552Y-122912691D01*
X104449551Y-122912694D01*
X104448386Y-122914710D01*
X104424500Y-123003857D01*
X104424500Y-123830134D01*
X104405593Y-123888325D01*
X104367554Y-123916619D01*
X104368676Y-123918741D01*
X104362114Y-123922208D01*
X104252855Y-124002845D01*
X104252845Y-124002855D01*
X104172207Y-124112116D01*
X104127355Y-124240296D01*
X104127353Y-124240305D01*
X104124500Y-124270725D01*
X104124500Y-124929274D01*
X104127353Y-124959694D01*
X104127355Y-124959703D01*
X104172207Y-125087883D01*
X104252845Y-125197144D01*
X104252847Y-125197146D01*
X104252850Y-125197150D01*
X104252853Y-125197152D01*
X104252855Y-125197154D01*
X104362116Y-125277792D01*
X104362117Y-125277792D01*
X104362118Y-125277793D01*
X104490301Y-125322646D01*
X104520725Y-125325499D01*
X104520727Y-125325500D01*
X104520734Y-125325500D01*
X105029273Y-125325500D01*
X105029273Y-125325499D01*
X105059699Y-125322646D01*
X105187882Y-125277793D01*
X105297150Y-125197150D01*
X105377793Y-125087882D01*
X105422646Y-124959699D01*
X105425499Y-124929273D01*
X105425500Y-124929273D01*
X105425500Y-124270727D01*
X105425499Y-124270725D01*
X105422646Y-124240305D01*
X105422646Y-124240301D01*
X105377793Y-124112118D01*
X105297150Y-124002850D01*
X105297146Y-124002847D01*
X105297144Y-124002845D01*
X105187885Y-123922208D01*
X105181324Y-123918741D01*
X105182507Y-123916502D01*
X105143118Y-123886508D01*
X105125500Y-123830134D01*
X105125500Y-123236189D01*
X105144407Y-123177998D01*
X105154496Y-123166185D01*
X106166185Y-122154496D01*
X106220702Y-122126719D01*
X106236189Y-122125500D01*
X106679273Y-122125500D01*
X106679273Y-122125499D01*
X106709699Y-122122646D01*
X106837882Y-122077793D01*
X106947150Y-121997150D01*
X107027793Y-121887882D01*
X107072646Y-121759699D01*
X107075499Y-121729273D01*
X107075500Y-121729273D01*
X107075500Y-121070727D01*
X107075499Y-121070725D01*
X107072646Y-121040301D01*
X107027793Y-120912118D01*
X107006344Y-120883056D01*
X106947154Y-120802855D01*
X106947152Y-120802853D01*
X106947150Y-120802850D01*
X106947146Y-120802847D01*
X106947144Y-120802845D01*
X106837883Y-120722207D01*
X106774356Y-120699978D01*
X106725676Y-120662913D01*
X106708079Y-120604312D01*
X106721318Y-120557033D01*
X106722078Y-120555715D01*
X106726484Y-120548085D01*
X106764000Y-120408075D01*
X106764000Y-120263125D01*
X106726484Y-120123115D01*
X106726482Y-120123112D01*
X106726482Y-120123110D01*
X106654012Y-119997589D01*
X106654010Y-119997587D01*
X106654009Y-119997585D01*
X106551515Y-119895091D01*
X106551512Y-119895089D01*
X106551510Y-119895087D01*
X106425988Y-119822617D01*
X106425989Y-119822617D01*
X106396396Y-119814687D01*
X106285975Y-119785100D01*
X106141025Y-119785100D01*
X106015640Y-119818696D01*
X105954541Y-119815495D01*
X105906991Y-119776990D01*
X105891155Y-119717889D01*
X105913081Y-119660768D01*
X105920005Y-119653076D01*
X106020670Y-119552412D01*
X106066814Y-119472488D01*
X106090700Y-119383344D01*
X106090700Y-115963031D01*
X106109607Y-115904840D01*
X106119690Y-115893033D01*
X106180709Y-115832015D01*
X106253184Y-115706485D01*
X106290700Y-115566475D01*
X106290700Y-115421525D01*
X106253184Y-115281515D01*
X106253182Y-115281512D01*
X106253182Y-115281510D01*
X106180712Y-115155989D01*
X106180710Y-115155987D01*
X106180709Y-115155985D01*
X106078215Y-115053491D01*
X106078212Y-115053489D01*
X106078210Y-115053487D01*
X105952688Y-114981017D01*
X105952689Y-114981017D01*
X105908927Y-114969291D01*
X105812675Y-114943500D01*
X105667725Y-114943500D01*
X105605990Y-114960041D01*
X105527710Y-114981017D01*
X105402189Y-115053487D01*
X105299687Y-115155989D01*
X105227217Y-115281510D01*
X105189700Y-115421525D01*
X105189700Y-115566474D01*
X105227217Y-115706489D01*
X105299687Y-115832010D01*
X105299689Y-115832012D01*
X105299691Y-115832015D01*
X105360705Y-115893029D01*
X105388481Y-115947544D01*
X105389700Y-115963031D01*
X105389700Y-117194817D01*
X105370793Y-117253008D01*
X105321293Y-117288972D01*
X105260107Y-117288972D01*
X105243260Y-117281711D01*
X105242328Y-117281202D01*
X105107488Y-117230910D01*
X105107483Y-117230909D01*
X105107481Y-117230908D01*
X105107477Y-117230908D01*
X105076249Y-117227550D01*
X105047873Y-117224500D01*
X105047870Y-117224500D01*
X104452133Y-117224500D01*
X104452129Y-117224500D01*
X104452128Y-117224501D01*
X104422322Y-117227705D01*
X104392516Y-117230909D01*
X104367693Y-117240167D01*
X104306563Y-117242786D01*
X104263095Y-117217412D01*
X104190186Y-117144504D01*
X104162408Y-117089988D01*
X104171979Y-117029556D01*
X104215243Y-116986291D01*
X104260189Y-116975500D01*
X104458257Y-116975500D01*
X104458260Y-116975500D01*
X104526393Y-116965573D01*
X104631483Y-116914198D01*
X104714198Y-116831483D01*
X104765573Y-116726393D01*
X104775500Y-116658260D01*
X104775500Y-115166740D01*
X104765573Y-115098607D01*
X104714198Y-114993517D01*
X104714195Y-114993514D01*
X104704494Y-114983812D01*
X104676718Y-114929295D01*
X104675500Y-114913811D01*
X104675500Y-114481790D01*
X104694407Y-114423599D01*
X104704496Y-114411786D01*
X107130996Y-111985286D01*
X107185513Y-111957509D01*
X107245945Y-111967080D01*
G37*
%TD.AperFunction*%
%TA.AperFunction,Conductor*%
G36*
X100879093Y-118558466D02*
G01*
X100891756Y-118582056D01*
X100928372Y-118680226D01*
X101010313Y-118789687D01*
X101119774Y-118871628D01*
X101247886Y-118919412D01*
X101304515Y-118925500D01*
X101763809Y-118925499D01*
X101822000Y-118944406D01*
X101833813Y-118954495D01*
X101968904Y-119089586D01*
X101996681Y-119144103D01*
X101997900Y-119159590D01*
X101997900Y-120586185D01*
X101978993Y-120644376D01*
X101929493Y-120680340D01*
X101868307Y-120680340D01*
X101866203Y-120679630D01*
X101859699Y-120677354D01*
X101859697Y-120677353D01*
X101859694Y-120677353D01*
X101829274Y-120674500D01*
X101829266Y-120674500D01*
X101320734Y-120674500D01*
X101320725Y-120674500D01*
X101290305Y-120677353D01*
X101290296Y-120677355D01*
X101162116Y-120722207D01*
X101052855Y-120802845D01*
X101052845Y-120802855D01*
X100972207Y-120912116D01*
X100927355Y-121040296D01*
X100927353Y-121040305D01*
X100924500Y-121070725D01*
X100924500Y-121729274D01*
X100927353Y-121759694D01*
X100927355Y-121759703D01*
X100972207Y-121887883D01*
X101052845Y-121997144D01*
X101052847Y-121997146D01*
X101052850Y-121997150D01*
X101052853Y-121997152D01*
X101052855Y-121997154D01*
X101162116Y-122077792D01*
X101168674Y-122081258D01*
X101167490Y-122083498D01*
X101206871Y-122113476D01*
X101224500Y-122169865D01*
X101224500Y-122847669D01*
X101205593Y-122905860D01*
X101195509Y-122917666D01*
X101109320Y-123003856D01*
X101095788Y-123017388D01*
X101095787Y-123017389D01*
X101023317Y-123142910D01*
X101013915Y-123177998D01*
X100985800Y-123282925D01*
X100985800Y-123427875D01*
X101002042Y-123488489D01*
X101023317Y-123567889D01*
X101095787Y-123693410D01*
X101095789Y-123693412D01*
X101095791Y-123693415D01*
X101174250Y-123771874D01*
X101202026Y-123826389D01*
X101192455Y-123886821D01*
X101163033Y-123921531D01*
X101052855Y-124002845D01*
X101052845Y-124002855D01*
X100972207Y-124112116D01*
X100927355Y-124240296D01*
X100927353Y-124240305D01*
X100924500Y-124270725D01*
X100924500Y-124929274D01*
X100927353Y-124959694D01*
X100927355Y-124959703D01*
X100972207Y-125087883D01*
X101052845Y-125197144D01*
X101052847Y-125197146D01*
X101052850Y-125197150D01*
X101052853Y-125197152D01*
X101052855Y-125197154D01*
X101162116Y-125277792D01*
X101162117Y-125277792D01*
X101162118Y-125277793D01*
X101290301Y-125322646D01*
X101320725Y-125325499D01*
X101320727Y-125325500D01*
X101320734Y-125325500D01*
X101829273Y-125325500D01*
X101829273Y-125325499D01*
X101859699Y-125322646D01*
X101866197Y-125320371D01*
X101927366Y-125318995D01*
X101977663Y-125353836D01*
X101997875Y-125411586D01*
X101997900Y-125413814D01*
X101997900Y-125768610D01*
X101978993Y-125826801D01*
X101968904Y-125838614D01*
X101294529Y-126512989D01*
X101252311Y-126586113D01*
X101248387Y-126592908D01*
X101224500Y-126682057D01*
X101224500Y-127030134D01*
X101205593Y-127088325D01*
X101167554Y-127116619D01*
X101168676Y-127118741D01*
X101162114Y-127122208D01*
X101052855Y-127202845D01*
X101052845Y-127202855D01*
X100972207Y-127312116D01*
X100927355Y-127440296D01*
X100927353Y-127440305D01*
X100924500Y-127470725D01*
X100924500Y-127913810D01*
X100905593Y-127972001D01*
X100895504Y-127983814D01*
X100869004Y-128010314D01*
X100814487Y-128038091D01*
X100754055Y-128028520D01*
X100710790Y-127985255D01*
X100700000Y-127940310D01*
X100700000Y-118616657D01*
X100718907Y-118558466D01*
X100768407Y-118522502D01*
X100829593Y-118522502D01*
X100879093Y-118558466D01*
G37*
%TD.AperFunction*%
%TA.AperFunction,Conductor*%
G36*
X103783801Y-117731207D02*
G01*
X103795614Y-117741296D01*
X103970504Y-117916186D01*
X103998281Y-117970703D01*
X103999500Y-117986190D01*
X103999500Y-118722866D01*
X103999501Y-118722870D01*
X104005908Y-118782480D01*
X104005909Y-118782485D01*
X104056202Y-118917329D01*
X104076472Y-118944406D01*
X104142454Y-119032546D01*
X104142457Y-119032548D01*
X104142458Y-119032549D01*
X104257670Y-119118797D01*
X104392511Y-119169089D01*
X104392512Y-119169089D01*
X104392517Y-119169091D01*
X104452127Y-119175500D01*
X105047872Y-119175499D01*
X105107483Y-119169091D01*
X105167739Y-119146616D01*
X105228866Y-119143997D01*
X105279861Y-119177808D01*
X105301243Y-119235135D01*
X105284845Y-119294082D01*
X105272338Y-119309378D01*
X104494529Y-120087188D01*
X104483290Y-120106656D01*
X104473788Y-120123115D01*
X104456853Y-120152446D01*
X104448386Y-120167111D01*
X104424500Y-120256257D01*
X104424500Y-120630134D01*
X104405593Y-120688325D01*
X104367554Y-120716619D01*
X104368676Y-120718741D01*
X104362114Y-120722208D01*
X104252855Y-120802845D01*
X104252845Y-120802855D01*
X104172207Y-120912116D01*
X104147335Y-120983198D01*
X104110270Y-121031878D01*
X104053891Y-121049500D01*
X103946109Y-121049500D01*
X103887918Y-121030593D01*
X103852665Y-120983198D01*
X103827792Y-120912116D01*
X103747154Y-120802855D01*
X103747152Y-120802853D01*
X103747150Y-120802850D01*
X103747146Y-120802847D01*
X103747144Y-120802845D01*
X103637883Y-120722207D01*
X103509703Y-120677355D01*
X103509694Y-120677353D01*
X103479274Y-120674500D01*
X103479266Y-120674500D01*
X102970734Y-120674500D01*
X102970725Y-120674500D01*
X102940305Y-120677353D01*
X102940301Y-120677354D01*
X102830597Y-120715741D01*
X102769427Y-120717113D01*
X102719133Y-120682269D01*
X102698925Y-120624517D01*
X102698900Y-120622296D01*
X102698900Y-118927257D01*
X102696798Y-118919412D01*
X102675014Y-118838112D01*
X102628870Y-118758188D01*
X102487339Y-118616657D01*
X102304495Y-118433812D01*
X102276718Y-118379296D01*
X102275499Y-118363809D01*
X102275499Y-118036189D01*
X102294406Y-117977998D01*
X102304496Y-117966185D01*
X102529386Y-117741296D01*
X102583902Y-117713519D01*
X102599389Y-117712300D01*
X103725610Y-117712300D01*
X103783801Y-117731207D01*
G37*
%TD.AperFunction*%
%TA.AperFunction,Conductor*%
G36*
X107259191Y-100718907D02*
G01*
X107295155Y-100768407D01*
X107300000Y-100799000D01*
X107300000Y-105201456D01*
X107281093Y-105259647D01*
X107231593Y-105295611D01*
X107170407Y-105295611D01*
X107148680Y-105284345D01*
X107148544Y-105284596D01*
X107142331Y-105281203D01*
X107007488Y-105230910D01*
X107007483Y-105230909D01*
X107007481Y-105230908D01*
X107007477Y-105230908D01*
X106976249Y-105227550D01*
X106947873Y-105224500D01*
X106947870Y-105224500D01*
X106352133Y-105224500D01*
X106352129Y-105224500D01*
X106352128Y-105224501D01*
X106344949Y-105225272D01*
X106292519Y-105230908D01*
X106292514Y-105230909D01*
X106157670Y-105281202D01*
X106042458Y-105367450D01*
X106042450Y-105367458D01*
X105956202Y-105482670D01*
X105905910Y-105617511D01*
X105905908Y-105617522D01*
X105899500Y-105677129D01*
X105899500Y-106722866D01*
X105899501Y-106722870D01*
X105905908Y-106782480D01*
X105905909Y-106782485D01*
X105956202Y-106917329D01*
X106033792Y-107020975D01*
X106042454Y-107032546D01*
X106157669Y-107118796D01*
X106235097Y-107147674D01*
X106283010Y-107185723D01*
X106299500Y-107240432D01*
X106299500Y-107338810D01*
X106280593Y-107397001D01*
X106270504Y-107408814D01*
X105033814Y-108645504D01*
X104979297Y-108673281D01*
X104963810Y-108674500D01*
X104520725Y-108674500D01*
X104490305Y-108677353D01*
X104490296Y-108677355D01*
X104362116Y-108722207D01*
X104252855Y-108802845D01*
X104252845Y-108802855D01*
X104172207Y-108912116D01*
X104127355Y-109040296D01*
X104127353Y-109040305D01*
X104124500Y-109070725D01*
X104124500Y-109584859D01*
X104105593Y-109643050D01*
X104056093Y-109679014D01*
X103999877Y-109680486D01*
X103928275Y-109661300D01*
X103783325Y-109661300D01*
X103721590Y-109677841D01*
X103643310Y-109698817D01*
X103517789Y-109771287D01*
X103415287Y-109873789D01*
X103342817Y-109999310D01*
X103305300Y-110139325D01*
X103305300Y-110284274D01*
X103321127Y-110343341D01*
X103324500Y-110368964D01*
X103324500Y-110534251D01*
X103305593Y-110592442D01*
X103256093Y-110628406D01*
X103211228Y-110632217D01*
X103171114Y-110626372D01*
X103158260Y-110624500D01*
X102891740Y-110624500D01*
X102864932Y-110628406D01*
X102823604Y-110634427D01*
X102718518Y-110685801D01*
X102635801Y-110768518D01*
X102584427Y-110873604D01*
X102574500Y-110941743D01*
X102574500Y-111601310D01*
X102555593Y-111659501D01*
X102545504Y-111671314D01*
X101220930Y-112995888D01*
X101174786Y-113075812D01*
X101150900Y-113164957D01*
X101150900Y-117455515D01*
X101131993Y-117513706D01*
X101111229Y-117534769D01*
X101010313Y-117610313D01*
X101010311Y-117610315D01*
X100928373Y-117719771D01*
X100928372Y-117719774D01*
X100891756Y-117817941D01*
X100853707Y-117865854D01*
X100794759Y-117882251D01*
X100737432Y-117860869D01*
X100703621Y-117809873D01*
X100700000Y-117783342D01*
X100700000Y-109001456D01*
X101099500Y-109001456D01*
X101099500Y-109198543D01*
X101137949Y-109391834D01*
X101137949Y-109391836D01*
X101213367Y-109573913D01*
X101213368Y-109573914D01*
X101322861Y-109737782D01*
X101462218Y-109877139D01*
X101626086Y-109986632D01*
X101808165Y-110062051D01*
X102001459Y-110100500D01*
X102001460Y-110100500D01*
X102198540Y-110100500D01*
X102198541Y-110100500D01*
X102391835Y-110062051D01*
X102573914Y-109986632D01*
X102737782Y-109877139D01*
X102877139Y-109737782D01*
X102986632Y-109573914D01*
X103062051Y-109391835D01*
X103100500Y-109198541D01*
X103100500Y-109001459D01*
X103062051Y-108808165D01*
X103051526Y-108782757D01*
X103036245Y-108745863D01*
X103031444Y-108684866D01*
X103057704Y-108637976D01*
X103455470Y-108240212D01*
X103501614Y-108160288D01*
X103525500Y-108071143D01*
X103525500Y-107978856D01*
X103525500Y-106969865D01*
X103544407Y-106911674D01*
X103582448Y-106883381D01*
X103581326Y-106881258D01*
X103587879Y-106877793D01*
X103587882Y-106877793D01*
X103697150Y-106797150D01*
X103777793Y-106687882D01*
X103802665Y-106616802D01*
X103839730Y-106568122D01*
X103896109Y-106550500D01*
X103900501Y-106550500D01*
X103958692Y-106569407D01*
X103994656Y-106618907D01*
X103999501Y-106649500D01*
X103999501Y-106722870D01*
X104005908Y-106782480D01*
X104005909Y-106782485D01*
X104056202Y-106917329D01*
X104133792Y-107020975D01*
X104142454Y-107032546D01*
X104142457Y-107032548D01*
X104142458Y-107032549D01*
X104257670Y-107118797D01*
X104392511Y-107169089D01*
X104392512Y-107169089D01*
X104392517Y-107169091D01*
X104452127Y-107175500D01*
X105047872Y-107175499D01*
X105107483Y-107169091D01*
X105240787Y-107119372D01*
X105242329Y-107118797D01*
X105242329Y-107118796D01*
X105242331Y-107118796D01*
X105357546Y-107032546D01*
X105443796Y-106917331D01*
X105450402Y-106899621D01*
X105488619Y-106797154D01*
X105494091Y-106782483D01*
X105500500Y-106722873D01*
X105500499Y-105986188D01*
X105519406Y-105927998D01*
X105529493Y-105916187D01*
X105550470Y-105895212D01*
X105596614Y-105815288D01*
X105620500Y-105726144D01*
X105620500Y-104058020D01*
X105639407Y-103999829D01*
X105681614Y-103966556D01*
X105767598Y-103930941D01*
X105939655Y-103815977D01*
X106085977Y-103669655D01*
X106200941Y-103497598D01*
X106280130Y-103306420D01*
X106320500Y-103103465D01*
X106320500Y-102896535D01*
X106280130Y-102693580D01*
X106200941Y-102502402D01*
X106085977Y-102330345D01*
X105939655Y-102184023D01*
X105767598Y-102069059D01*
X105767599Y-102069059D01*
X105767597Y-102069058D01*
X105576418Y-101989869D01*
X105373467Y-101949500D01*
X105373465Y-101949500D01*
X105166535Y-101949500D01*
X105166532Y-101949500D01*
X104963581Y-101989869D01*
X104772402Y-102069058D01*
X104600348Y-102184020D01*
X104454020Y-102330348D01*
X104339058Y-102502402D01*
X104259869Y-102693581D01*
X104219500Y-102896532D01*
X104219500Y-103103467D01*
X104259869Y-103306418D01*
X104339058Y-103497597D01*
X104339059Y-103497598D01*
X104454023Y-103669655D01*
X104600345Y-103815977D01*
X104772402Y-103930941D01*
X104858385Y-103966556D01*
X104904911Y-104006292D01*
X104919500Y-104058020D01*
X104919500Y-105125500D01*
X104900593Y-105183691D01*
X104851093Y-105219655D01*
X104820500Y-105224500D01*
X104452133Y-105224500D01*
X104452129Y-105224500D01*
X104452128Y-105224501D01*
X104444949Y-105225272D01*
X104392519Y-105230908D01*
X104392514Y-105230909D01*
X104257670Y-105281202D01*
X104142458Y-105367450D01*
X104142450Y-105367458D01*
X104056202Y-105482670D01*
X104005910Y-105617511D01*
X104005908Y-105617522D01*
X103999500Y-105677129D01*
X103999500Y-105750500D01*
X103980593Y-105808691D01*
X103931093Y-105844655D01*
X103900500Y-105849500D01*
X103896109Y-105849500D01*
X103837918Y-105830593D01*
X103802665Y-105783198D01*
X103777792Y-105712116D01*
X103697154Y-105602855D01*
X103697152Y-105602853D01*
X103697150Y-105602850D01*
X103697146Y-105602847D01*
X103697144Y-105602845D01*
X103587883Y-105522207D01*
X103459703Y-105477355D01*
X103459694Y-105477353D01*
X103429274Y-105474500D01*
X103429266Y-105474500D01*
X102920734Y-105474500D01*
X102920725Y-105474500D01*
X102890305Y-105477353D01*
X102890296Y-105477355D01*
X102762116Y-105522207D01*
X102652855Y-105602845D01*
X102652845Y-105602855D01*
X102572207Y-105712116D01*
X102527355Y-105840296D01*
X102527353Y-105840305D01*
X102524500Y-105870725D01*
X102524500Y-106529274D01*
X102527353Y-106559694D01*
X102527355Y-106559703D01*
X102572207Y-106687883D01*
X102652845Y-106797144D01*
X102652847Y-106797146D01*
X102652850Y-106797150D01*
X102652853Y-106797152D01*
X102652855Y-106797154D01*
X102762116Y-106877792D01*
X102768674Y-106881258D01*
X102767490Y-106883498D01*
X102806871Y-106913476D01*
X102824500Y-106969865D01*
X102824500Y-107838810D01*
X102805593Y-107897001D01*
X102795504Y-107908813D01*
X102562022Y-108142294D01*
X102507507Y-108170071D01*
X102454135Y-108163754D01*
X102391835Y-108137949D01*
X102198543Y-108099500D01*
X102198541Y-108099500D01*
X102001459Y-108099500D01*
X102001456Y-108099500D01*
X101808165Y-108137949D01*
X101808163Y-108137949D01*
X101626086Y-108213367D01*
X101462218Y-108322861D01*
X101462214Y-108322864D01*
X101322864Y-108462214D01*
X101322861Y-108462218D01*
X101213367Y-108626086D01*
X101137949Y-108808163D01*
X101137949Y-108808165D01*
X101099500Y-109001456D01*
X100700000Y-109001456D01*
X100700000Y-107906427D01*
X100718907Y-107848236D01*
X100768407Y-107812272D01*
X100829593Y-107812272D01*
X100877541Y-107846159D01*
X100881185Y-107850908D01*
X100881189Y-107850912D01*
X100881191Y-107850915D01*
X100983685Y-107953409D01*
X100983687Y-107953410D01*
X100983689Y-107953412D01*
X101109211Y-108025882D01*
X101109212Y-108025882D01*
X101109215Y-108025884D01*
X101249225Y-108063400D01*
X101249226Y-108063400D01*
X101394174Y-108063400D01*
X101394175Y-108063400D01*
X101534185Y-108025884D01*
X101534187Y-108025882D01*
X101534189Y-108025882D01*
X101659710Y-107953412D01*
X101659710Y-107953411D01*
X101659715Y-107953409D01*
X101762209Y-107850915D01*
X101834684Y-107725385D01*
X101872200Y-107585375D01*
X101872200Y-107440425D01*
X101869371Y-107429867D01*
X101869371Y-107378618D01*
X101875499Y-107355746D01*
X101875500Y-107355744D01*
X101875500Y-106969865D01*
X101894407Y-106911674D01*
X101932448Y-106883381D01*
X101931326Y-106881258D01*
X101937879Y-106877793D01*
X101937882Y-106877793D01*
X102047150Y-106797150D01*
X102127793Y-106687882D01*
X102172646Y-106559699D01*
X102175499Y-106529273D01*
X102175500Y-106529273D01*
X102175500Y-105870727D01*
X102175499Y-105870725D01*
X102174817Y-105863452D01*
X102172646Y-105840301D01*
X102127793Y-105712118D01*
X102101970Y-105677129D01*
X102047154Y-105602855D01*
X102047152Y-105602853D01*
X102047150Y-105602850D01*
X102047146Y-105602847D01*
X102047144Y-105602845D01*
X101937883Y-105522207D01*
X101809703Y-105477355D01*
X101809694Y-105477353D01*
X101779274Y-105474500D01*
X101779266Y-105474500D01*
X101270734Y-105474500D01*
X101270725Y-105474500D01*
X101240305Y-105477353D01*
X101240296Y-105477355D01*
X101112116Y-105522207D01*
X101002855Y-105602845D01*
X101002845Y-105602855D01*
X100922207Y-105712116D01*
X100892444Y-105797175D01*
X100855379Y-105845855D01*
X100796778Y-105863452D01*
X100739027Y-105843244D01*
X100704183Y-105792949D01*
X100700000Y-105764477D01*
X100700000Y-100799000D01*
X100718907Y-100740809D01*
X100768407Y-100704845D01*
X100799000Y-100700000D01*
X107201000Y-100700000D01*
X107259191Y-100718907D01*
G37*
%TD.AperFunction*%
%TA.AperFunction,Conductor*%
G36*
X107258038Y-107117625D02*
G01*
X107294707Y-107166605D01*
X107300000Y-107198543D01*
X107300000Y-108265710D01*
X107281093Y-108323901D01*
X107231593Y-108359865D01*
X107170407Y-108359865D01*
X107130996Y-108335714D01*
X106802985Y-108007703D01*
X106775208Y-107953186D01*
X106784779Y-107892754D01*
X106802983Y-107867698D01*
X106930470Y-107740212D01*
X106976614Y-107660288D01*
X106976616Y-107660282D01*
X106979856Y-107648190D01*
X106979856Y-107648188D01*
X107000500Y-107571144D01*
X107000500Y-107240432D01*
X107019407Y-107182241D01*
X107064902Y-107147674D01*
X107142331Y-107118796D01*
X107142332Y-107118794D01*
X107142335Y-107118794D01*
X107148544Y-107115404D01*
X107149255Y-107116706D01*
X107199582Y-107099553D01*
X107258038Y-107117625D01*
G37*
%TD.AperFunction*%
%TD*%
M02*
