M48
; DRILL file KiCad 10.0.5 date 2026-08-07T22:02:49
; FORMAT={-:-/ absolute / metric / decimal}
; #@! TF.CreationDate,2026-08-07T22:02:49-05:00
; #@! TF.GenerationSoftware,Kicad,Pcbnew,10.0.5
; #@! TF.FileFunction,Plated,1,4,PTH
FMAT,2
METRIC
; #@! TA.AperFunction,Plated,PTH,ViaDrill
T1C0.300
; #@! TA.AperFunction,Plated,PTH,ComponentDrill
T2C0.900
%
G90
G05
T1
X100.68Y-141.265
X100.7Y-100.7
X100.7Y-108.95
X100.7Y-112.45
X100.7Y-114.7
X100.7Y-116.95
X100.7Y-119.45
X100.7Y-122.45
X100.7Y-125.7
X100.95Y-102.7
X101.322Y-107.513
X101.45Y-128.95
X101.45Y-135.45
X101.536Y-123.355
X101.7Y-110.7
X102.153Y-115.495
X102.2Y-107.45
X102.2Y-144.2
X102.45Y-104.2
X102.7Y-132.2
X102.7Y-138.45
X102.854Y-126.371
X102.95Y-100.7
X103.174Y-144.062
X103.504Y-123.353
X103.7Y-119.7
X103.7Y-122.45
X103.856Y-110.212
X104.2Y-107.7
X104.2Y-125.7
X104.45Y-104.45
X104.45Y-127.7
X104.486Y-132.725
X104.536Y-113.163
X104.95Y-138.45
X105.2Y-100.7
X105.74Y-115.494
X105.95Y-129.2
X105.95Y-135.2
X105.95Y-142.2
X106.0Y-111.66
X106.098Y-139.24
X106.2Y-113.45
X106.2Y-122.7
X106.2Y-125.95
X106.2Y-131.95
X106.213Y-120.336
X106.7Y-102.95
X106.95Y-143.95
X107.2Y-100.95
X107.2Y-107.95
X107.2Y-138.95
T2
X102.73Y-103.0
X105.27Y-103.0
M30
